<svg width="74" height="13" viewBox="0 0 74 13" fill="none" xmlns="http://www.w3.org/2000/svg">
<path d="M11.1113 4.84037H8.60996C8.56427 4.51676 8.471 4.22931 8.33013 3.97804C8.18926 3.72296 8.00842 3.50595 7.78761 3.32701C7.56679 3.14807 7.31171 3.01101 7.02236 2.91584C6.73682 2.82066 6.42654 2.77307 6.09151 2.77307C5.48616 2.77307 4.95887 2.92345 4.50962 3.22422C4.06037 3.52118 3.71202 3.9552 3.46455 4.52627C3.21708 5.09354 3.09335 5.78264 3.09335 6.59357C3.09335 7.42735 3.21708 8.12787 3.46455 8.69514C3.71582 9.26241 4.06609 9.69072 4.51533 9.98006C4.96458 10.2694 5.48426 10.4141 6.07437 10.4141C6.4056 10.4141 6.71208 10.3703 6.99381 10.2827C7.27935 10.1952 7.53253 10.0676 7.75334 9.90011C7.97416 9.72879 8.1569 9.5213 8.30158 9.27764C8.45006 9.03398 8.55285 8.75605 8.60996 8.44386L11.1113 8.45529C11.0466 8.9921 10.8848 9.50988 10.6259 10.0086C10.3708 10.5036 10.0262 10.9471 9.59221 11.3392C9.162 11.7276 8.64803 12.0359 8.0503 12.2644C7.45638 12.489 6.78441 12.6013 6.0344 12.6013C4.99123 12.6013 4.05847 12.3653 3.23612 11.8932C2.41758 11.4211 1.77035 10.7377 1.29446 9.843C0.822366 8.94832 0.586321 7.86517 0.586321 6.59357C0.586321 5.31817 0.826173 4.23312 1.30588 3.33843C1.78558 2.44374 2.43661 1.76226 3.25896 1.29398C4.08131 0.821885 5.00646 0.585839 6.0344 0.585839C6.71208 0.585839 7.34026 0.681019 7.91895 0.871378C8.50145 1.06174 9.01733 1.33966 9.46657 1.70515C9.91582 2.06683 10.2813 2.51037 10.563 3.03576C10.8486 3.56115 11.0313 4.16269 11.1113 4.84037ZM16.8021 12.6127C15.915 12.6127 15.1478 12.4243 14.5006 12.0474C13.8572 11.6666 13.3604 11.1374 13.0101 10.4598C12.6598 9.77828 12.4847 8.98829 12.4847 8.0898C12.4847 7.18369 12.6598 6.39179 13.0101 5.71411C13.3604 5.03263 13.8572 4.50343 14.5006 4.12652C15.1478 3.7458 15.915 3.55544 16.8021 3.55544C17.6891 3.55544 18.4544 3.7458 19.0978 4.12652C19.745 4.50343 20.2438 5.03263 20.594 5.71411C20.9443 6.39179 21.1194 7.18369 21.1194 8.0898C21.1194 8.98829 20.9443 9.77828 20.594 10.4598C20.2438 11.1374 19.745 11.6666 19.0978 12.0474C18.4544 12.4243 17.6891 12.6127 16.8021 12.6127ZM16.8135 10.7282C17.217 10.7282 17.554 10.614 17.8243 10.3855C18.0946 10.1533 18.2983 9.83729 18.4353 9.43754C18.5762 9.03778 18.6466 8.58283 18.6466 8.07266C18.6466 7.5625 18.5762 7.10754 18.4353 6.70779C18.2983 6.30804 18.0946 5.99204 17.8243 5.7598C17.554 5.52756 17.217 5.41144 16.8135 5.41144C16.4061 5.41144 16.0635 5.52756 15.7855 5.7598C15.5114 5.99204 15.3039 6.30804 15.1631 6.70779C15.026 7.10754 14.9575 7.5625 14.9575 8.07266C14.9575 8.58283 15.026 9.03778 15.1631 9.43754C15.3039 9.83729 15.5114 10.1533 15.7855 10.3855C16.0635 10.614 16.4061 10.7282 16.8135 10.7282ZM22.7013 12.4414V3.66966H25.1341V12.4414H22.7013ZM23.9234 2.53892C23.5617 2.53892 23.2514 2.419 22.9925 2.17914C22.7375 1.93549 22.6099 1.64424 22.6099 1.3054C22.6099 0.970365 22.7375 0.682923 22.9925 0.44307C23.2514 0.19941 23.5617 0.0775803 23.9234 0.0775803C24.2851 0.0775803 24.5935 0.19941 24.8485 0.44307C25.1074 0.682923 25.2369 0.970365 25.2369 1.3054C25.2369 1.64424 25.1074 1.93549 24.8485 2.17914C24.5935 2.419 24.2851 2.53892 23.9234 2.53892ZM29.5157 7.37024V12.4414H27.0829V3.66966H29.4015V5.21728H29.5043C29.6984 4.70711 30.0239 4.30355 30.4808 4.00659C30.9377 3.70583 31.4916 3.55544 32.1426 3.55544C32.7518 3.55544 33.2829 3.68869 33.7359 3.9552C34.189 4.2217 34.5412 4.60242 34.7924 5.09735C35.0437 5.58848 35.1693 6.17478 35.1693 6.85627V12.4414H32.7366V7.29029C32.7404 6.75348 32.6033 6.33469 32.3254 6.03392C32.0475 5.72934 31.6648 5.57706 31.1775 5.57706C30.8501 5.57706 30.5607 5.64749 30.3095 5.78835C30.062 5.92922 29.8678 6.13481 29.727 6.40512C29.5899 6.67162 29.5195 6.99333 29.5157 7.37024ZM37.1324 12.4414V0.745741H39.5652V5.14304H39.6394C39.7461 4.90699 39.9002 4.66714 40.102 4.42348C40.3076 4.17601 40.5741 3.97043 40.9015 3.80672C41.2328 3.6392 41.6439 3.55544 42.1351 3.55544C42.7747 3.55544 43.3648 3.72296 43.9054 4.05799C44.446 4.38922 44.8781 4.88986 45.2017 5.55992C45.5254 6.22618 45.6872 7.06186 45.6872 8.06695C45.6872 9.0454 45.5292 9.87156 45.2132 10.5454C44.901 11.2155 44.4746 11.7238 43.934 12.0702C43.3971 12.4129 42.7956 12.5842 42.1293 12.5842C41.6573 12.5842 41.2556 12.5061 40.9244 12.35C40.597 12.1939 40.3285 11.9979 40.1192 11.7618C39.9098 11.522 39.7499 11.2802 39.6394 11.0366H39.5309V12.4414H37.1324ZM39.5138 8.05553C39.5138 8.57712 39.5861 9.03207 39.7308 9.42041C39.8755 9.80874 40.0849 10.1114 40.359 10.3284C40.6331 10.5416 40.9663 10.6482 41.3584 10.6482C41.7543 10.6482 42.0894 10.5397 42.3635 10.3227C42.6376 10.1019 42.8451 9.79732 42.986 9.40899C43.1306 9.01685 43.203 8.56569 43.203 8.05553C43.203 7.54918 43.1325 7.10374 42.9917 6.71921C42.8508 6.33469 42.6433 6.03392 42.3692 5.81691C42.0951 5.5999 41.7581 5.49139 41.3584 5.49139C40.9624 5.49139 40.6274 5.59609 40.3533 5.80549C40.083 6.01488 39.8755 6.31184 39.7308 6.69637C39.5861 7.08089 39.5138 7.53395 39.5138 8.05553ZM49.8118 12.607C49.2521 12.607 48.7534 12.5099 48.3155 12.3158C47.8777 12.1178 47.5313 11.8265 47.2762 11.442C47.0249 11.0537 46.8993 10.5702 46.8993 9.99148C46.8993 9.50416 46.9887 9.09489 47.1677 8.76367C47.3466 8.43244 47.5903 8.16594 47.8987 7.96416C48.207 7.76238 48.5573 7.61009 48.9494 7.5073C49.3454 7.4045 49.7604 7.33217 50.1944 7.29029C50.7045 7.23699 51.1157 7.18749 51.4279 7.14181C51.7401 7.09231 51.9666 7.01998 52.1075 6.9248C52.2484 6.82962 52.3188 6.68875 52.3188 6.5022V6.46794C52.3188 6.10625 52.2046 5.82643 51.9761 5.62845C51.7515 5.43048 51.4317 5.33149 51.0167 5.33149C50.5789 5.33149 50.2306 5.42858 49.9717 5.62274C49.7128 5.8131 49.5415 6.05295 49.4577 6.3423L47.2077 6.15956C47.3219 5.62655 47.5465 5.16588 47.8815 4.77755C48.2166 4.38541 48.6487 4.08464 49.1779 3.87524C49.7109 3.66204 50.3276 3.55544 51.0282 3.55544C51.5155 3.55544 51.9819 3.61255 52.4273 3.72676C52.8765 3.84098 53.2744 4.01801 53.6209 4.25787C53.9711 4.49772 54.2471 4.8061 54.4489 5.18301C54.6507 5.55612 54.7516 6.00346 54.7516 6.52504V12.4414H52.4444V11.225H52.3759C52.235 11.4991 52.0466 11.7409 51.8105 11.9503C51.5745 12.1559 51.2909 12.3177 50.9596 12.4357C50.6284 12.5499 50.2458 12.607 49.8118 12.607ZM50.5085 10.9281C50.8664 10.9281 51.1824 10.8576 51.4565 10.7168C51.7306 10.5721 51.9457 10.3779 52.1018 10.1343C52.2579 9.89059 52.3359 9.61457 52.3359 9.30619V8.37534C52.2598 8.42483 52.1551 8.47051 52.0218 8.51239C51.8924 8.55047 51.7458 8.58663 51.5821 8.6209C51.4184 8.65136 51.2547 8.67991 51.091 8.70656C50.9273 8.7294 50.7788 8.75034 50.6455 8.76938C50.36 8.81126 50.1106 8.87788 49.8974 8.96926C49.6842 9.06063 49.5186 9.18436 49.4006 9.34046C49.2826 9.49274 49.2236 9.6831 49.2236 9.91153C49.2236 10.2428 49.3435 10.4959 49.5833 10.6711C49.827 10.8424 50.1354 10.9281 50.5085 10.9281ZM63.9374 6.17098L61.7102 6.30803C61.6721 6.11768 61.5902 5.94635 61.4646 5.79407C61.339 5.63797 61.1733 5.51424 60.9678 5.42286C60.766 5.32769 60.5242 5.2801 60.2425 5.2801C59.8656 5.2801 59.5477 5.36005 59.2888 5.51995C59.0299 5.67604 58.9005 5.88544 58.9005 6.14813C58.9005 6.35753 58.9842 6.53456 59.1517 6.67924C59.3193 6.82391 59.6067 6.94003 60.0141 7.02759L61.6017 7.3474C62.4545 7.52253 63.0903 7.80426 63.5091 8.19259C63.9278 8.58092 64.1372 9.09109 64.1372 9.72308C64.1372 10.298 63.9678 10.8024 63.629 11.2364C63.294 11.6705 62.8333 12.0093 62.247 12.253C61.6645 12.4928 60.9925 12.6127 60.2311 12.6127C59.0699 12.6127 58.1447 12.371 57.4556 11.8875C56.7703 11.4001 56.3687 10.7377 56.2507 9.90011L58.6435 9.77447C58.7158 10.1285 58.8909 10.3989 59.1689 10.5854C59.4468 10.7681 59.8028 10.8595 60.2368 10.8595C60.6632 10.8595 61.0058 10.7777 61.2647 10.614C61.5274 10.4464 61.6607 10.2313 61.6645 9.96864C61.6607 9.74782 61.5674 9.56698 61.3846 9.42612C61.2019 9.28144 60.9202 9.17104 60.5395 9.09489L59.0204 8.79222C58.1638 8.6209 57.5261 8.32394 57.1073 7.90134C56.6923 7.47874 56.4848 6.94003 56.4848 6.28519C56.4848 5.72173 56.6371 5.23631 56.9417 4.82894C57.25 4.42158 57.6822 4.10748 58.238 3.88667C58.7977 3.66585 59.4525 3.55544 60.2025 3.55544C61.3104 3.55544 62.1823 3.78958 62.8181 4.25787C63.4577 4.72615 63.8308 5.36385 63.9374 6.17098ZM69.6667 12.6127C68.7644 12.6127 67.9877 12.43 67.3367 12.0645C66.6895 11.6952 66.1907 11.1736 65.8405 10.4997C65.4902 9.82206 65.3151 9.02065 65.3151 8.09551C65.3151 7.1932 65.4902 6.40131 65.8405 5.71983C66.1907 5.03834 66.6838 4.50724 67.3196 4.12652C67.9592 3.7458 68.7092 3.55544 69.5696 3.55544C70.1483 3.55544 70.687 3.64872 71.1858 3.83527C71.6883 4.01801 72.1261 4.29404 72.4992 4.66333C72.8762 5.03263 73.1693 5.49711 73.3787 6.05676C73.5881 6.61261 73.6928 7.26364 73.6928 8.00985V8.67801H66.2859V7.17036H71.4028C71.4028 6.8201 71.3266 6.50982 71.1743 6.23951C71.0221 5.9692 70.8108 5.7579 70.5404 5.60561C70.2739 5.44952 69.9637 5.37147 69.6096 5.37147C69.2403 5.37147 68.9129 5.45713 68.6273 5.62845C68.3456 5.79597 68.1248 6.0225 67.9649 6.30803C67.805 6.58977 67.7231 6.90386 67.7193 7.25031V8.68372C67.7193 9.11774 67.7993 9.49274 67.9592 9.80874C68.1229 10.1247 68.3532 10.3684 68.6502 10.5397C68.9471 10.711 69.2993 10.7967 69.7067 10.7967C69.977 10.7967 70.2245 10.7586 70.4491 10.6825C70.6737 10.6063 70.866 10.4921 71.0259 10.3398C71.1858 10.1876 71.3076 10.001 71.3914 9.78019L73.6414 9.92867C73.5272 10.4693 73.293 10.9414 72.939 11.3449C72.5887 11.7447 72.1357 12.0569 71.5798 12.2815C71.0278 12.5023 70.3901 12.6127 69.6667 12.6127Z" fill="white"/>
</svg>
