<svg width="180" height="62" viewBox="0 0 180 62" fill="none" xmlns="http://www.w3.org/2000/svg">
<path d="M13.6339 4.69112C13.8989 4.15428 14.0314 3.88586 14.2113 3.8001C14.3678 3.72549 14.5496 3.72549 14.7061 3.8001C14.886 3.88586 15.0185 4.15428 15.2834 4.69112L17.7975 9.78427C17.8757 9.94276 17.9148 10.022 17.972 10.0835C18.0226 10.138 18.0833 10.1821 18.1507 10.2135C18.2269 10.2489 18.3143 10.2617 18.4892 10.2873L24.1127 11.1092C24.7049 11.1958 25.001 11.239 25.138 11.3837C25.2572 11.5095 25.3133 11.6824 25.2906 11.8543C25.2645 12.0518 25.0502 12.2606 24.6214 12.6782L20.5538 16.6401C20.427 16.7636 20.3636 16.8254 20.3226 16.8988C20.2864 16.9639 20.2632 17.0354 20.2542 17.1093C20.2441 17.1928 20.2591 17.28 20.289 17.4545L21.2488 23.0505C21.35 23.6407 21.4006 23.9358 21.3055 24.111C21.2227 24.2633 21.0756 24.3702 20.9051 24.4018C20.7092 24.4381 20.4442 24.2988 19.9141 24.02L14.8868 21.3762C14.7302 21.2938 14.6518 21.2526 14.5693 21.2365C14.4963 21.2221 14.4211 21.2221 14.3481 21.2365C14.2655 21.2526 14.1872 21.2938 14.0306 21.3762L9.00324 24.02C8.47322 24.2988 8.20821 24.4381 8.01226 24.4018C7.84177 24.3702 7.69465 24.2633 7.61189 24.111C7.51677 23.9358 7.56738 23.6407 7.66861 23.0505L8.6284 17.4545C8.65832 17.28 8.67328 17.1928 8.66316 17.1093C8.65419 17.0354 8.63096 16.9639 8.59473 16.8988C8.55382 16.8254 8.49042 16.7636 8.36362 16.6401L4.29594 12.6782C3.86722 12.2606 3.65286 12.0518 3.62678 11.8543C3.60408 11.6824 3.66015 11.5095 3.77937 11.3837C3.9164 11.239 4.21249 11.1958 4.80467 11.1092L10.4282 10.2873C10.6031 10.2617 10.6905 10.2489 10.7666 10.2135C10.8341 10.1821 10.8948 10.138 10.9454 10.0835C11.0026 10.022 11.0417 9.94276 11.1199 9.78427L13.6339 4.69112Z" fill="white" stroke="white" stroke-width="1.27894" stroke-linecap="round" stroke-linejoin="round"/>
<path d="M50.4245 4.69112C50.6894 4.15428 50.8219 3.88586 51.0018 3.8001C51.1583 3.72549 51.3401 3.72549 51.4966 3.8001C51.6765 3.88586 51.809 4.15428 52.074 4.69112L54.588 9.78427C54.6662 9.94276 54.7053 10.022 54.7625 10.0835C54.8131 10.138 54.8738 10.1821 54.9413 10.2135C55.0174 10.2489 55.1048 10.2617 55.2797 10.2873L60.9032 11.1092C61.4954 11.1958 61.7915 11.239 61.9285 11.3837C62.0478 11.5095 62.1038 11.6824 62.0811 11.8543C62.055 12.0518 61.8407 12.2606 61.412 12.6782L57.3443 16.6401C57.2175 16.7636 57.1541 16.8254 57.1132 16.8988C57.0769 16.9639 57.0537 17.0354 57.0447 17.1093C57.0346 17.1928 57.0496 17.28 57.0795 17.4545L58.0393 23.0505C58.1405 23.6407 58.1911 23.9358 58.096 24.111C58.0133 24.2633 57.8661 24.3702 57.6956 24.4018C57.4997 24.4381 57.2347 24.2988 56.7047 24.02L51.6773 21.3762C51.5207 21.2938 51.4424 21.2526 51.3598 21.2365C51.2868 21.2221 51.2116 21.2221 51.1386 21.2365C51.0561 21.2526 50.9778 21.2938 50.8211 21.3762L45.7938 24.02C45.2637 24.2988 44.9987 24.4381 44.8028 24.4018C44.6323 24.3702 44.4852 24.2633 44.4024 24.111C44.3073 23.9358 44.3579 23.6407 44.4591 23.0505L45.4189 17.4545C45.4488 17.28 45.4638 17.1928 45.4537 17.1093C45.4447 17.0354 45.4215 16.9639 45.3853 16.8988C45.3444 16.8254 45.2809 16.7636 45.1541 16.6401L41.0865 12.6782C40.6578 12.2606 40.4434 12.0518 40.4173 11.8543C40.3946 11.6824 40.4507 11.5095 40.5699 11.3837C40.7069 11.239 41.003 11.1958 41.5952 11.1092L47.2187 10.2873C47.3936 10.2617 47.481 10.2489 47.5572 10.2135C47.6246 10.1821 47.6853 10.138 47.7359 10.0835C47.7931 10.022 47.8322 9.94276 47.9104 9.78427L50.4245 4.69112Z" fill="white" stroke="white" stroke-width="1.27894" stroke-linecap="round" stroke-linejoin="round"/>
<path d="M87.2145 4.69112C87.4795 4.15428 87.612 3.88586 87.7919 3.8001C87.9483 3.72549 88.1302 3.72549 88.2867 3.8001C88.4665 3.88586 88.599 4.15428 88.864 4.69112L91.378 9.78427C91.4563 9.94276 91.4954 10.022 91.5526 10.0835C91.6032 10.138 91.6639 10.1821 91.7313 10.2135C91.8074 10.2489 91.8949 10.2617 92.0698 10.2873L97.6933 11.1092C98.2855 11.1958 98.5815 11.239 98.7186 11.3837C98.8378 11.5095 98.8939 11.6824 98.8712 11.8543C98.8451 12.0518 98.6307 12.2606 98.202 12.6782L94.1343 16.6401C94.0075 16.7636 93.9441 16.8254 93.9032 16.8988C93.867 16.9639 93.8437 17.0354 93.8348 17.1093C93.8247 17.1928 93.8396 17.28 93.8695 17.4545L94.8293 23.0505C94.9306 23.6407 94.9812 23.9358 94.8861 24.111C94.8033 24.2633 94.6562 24.3702 94.4857 24.4018C94.2897 24.4381 94.0247 24.2988 93.4947 24.02L88.4674 21.3762C88.3107 21.2938 88.2324 21.2526 88.1499 21.2365C88.0768 21.2221 88.0017 21.2221 87.9286 21.2365C87.8461 21.2526 87.7678 21.2938 87.6112 21.3762L82.5838 24.02C82.0538 24.2988 81.7888 24.4381 81.5928 24.4018C81.4223 24.3702 81.2752 24.2633 81.1925 24.111C81.0973 23.9358 81.1479 23.6407 81.2492 23.0505L82.209 17.4545C82.2389 17.28 82.2538 17.1928 82.2437 17.1093C82.2348 17.0354 82.2115 16.9639 82.1753 16.8988C82.1344 16.8254 82.071 16.7636 81.9442 16.6401L77.8765 12.6782C77.4478 12.2606 77.2334 12.0518 77.2073 11.8543C77.1846 11.6824 77.2407 11.5095 77.3599 11.3837C77.497 11.239 77.7931 11.1958 78.3852 11.1092L84.0087 10.2873C84.1836 10.2617 84.2711 10.2489 84.3472 10.2135C84.4146 10.1821 84.4753 10.138 84.526 10.0835C84.5831 10.022 84.6222 9.94276 84.7005 9.78427L87.2145 4.69112Z" fill="white" stroke="white" stroke-width="1.27894" stroke-linecap="round" stroke-linejoin="round"/>
<path d="M124.005 4.69112C124.27 4.15428 124.402 3.88586 124.582 3.8001C124.739 3.72549 124.92 3.72549 125.077 3.8001C125.257 3.88586 125.389 4.15428 125.654 4.69112L128.168 9.78427C128.247 9.94276 128.286 10.022 128.343 10.0835C128.393 10.138 128.454 10.1821 128.522 10.2135C128.598 10.2489 128.685 10.2617 128.86 10.2873L134.484 11.1092C135.076 11.1958 135.372 11.239 135.509 11.3837C135.628 11.5095 135.684 11.6824 135.661 11.8543C135.635 12.0518 135.421 12.2606 134.992 12.6782L130.925 16.6401C130.798 16.7636 130.734 16.8254 130.693 16.8988C130.657 16.9639 130.634 17.0354 130.625 17.1093C130.615 17.1928 130.63 17.28 130.66 17.4545L131.62 23.0505C131.721 23.6407 131.771 23.9358 131.676 24.111C131.594 24.2633 131.446 24.3702 131.276 24.4018C131.08 24.4381 130.815 24.2988 130.285 24.02L125.258 21.3762C125.101 21.2938 125.023 21.2526 124.94 21.2365C124.867 21.2221 124.792 21.2221 124.719 21.2365C124.636 21.2526 124.558 21.2938 124.401 21.3762L119.374 24.02C118.844 24.2988 118.579 24.4381 118.383 24.4018C118.213 24.3702 118.066 24.2633 117.983 24.111C117.888 23.9358 117.938 23.6407 118.039 23.0505L118.999 17.4545C119.029 17.28 119.044 17.1928 119.034 17.1093C119.025 17.0354 119.002 16.9639 118.966 16.8988C118.925 16.8254 118.861 16.7636 118.734 16.6401L114.667 12.6782C114.238 12.2606 114.024 12.0518 113.998 11.8543C113.975 11.6824 114.031 11.5095 114.15 11.3837C114.287 11.239 114.583 11.1958 115.176 11.1092L120.799 10.2873C120.974 10.2617 121.061 10.2489 121.137 10.2135C121.205 10.1821 121.266 10.138 121.316 10.0835C121.373 10.022 121.413 9.94276 121.491 9.78427L124.005 4.69112Z" fill="white" stroke="white" stroke-width="1.27894" stroke-linecap="round" stroke-linejoin="round"/>
<path d="M151.154 18.9663V17.2921L157.081 7.9299H158.4V10.3943H157.563L153.324 17.1046V17.2117H161.447V18.9663H151.154ZM157.657 21.645V18.4573L157.67 17.6939V7.9299H159.633V21.645H157.657ZM164.612 21.7723C164.246 21.7723 163.931 21.6428 163.667 21.3838C163.404 21.1204 163.272 20.8035 163.272 20.4329C163.272 20.0668 163.404 19.7543 163.667 19.4953C163.931 19.2319 164.246 19.1002 164.612 19.1002C164.978 19.1002 165.292 19.2319 165.556 19.4953C165.819 19.7543 165.951 20.0668 165.951 20.4329C165.951 20.6784 165.889 20.9039 165.764 21.1093C165.643 21.3102 165.482 21.4709 165.281 21.5914C165.08 21.712 164.857 21.7723 164.612 21.7723ZM172.897 21.8325C172.286 21.8236 171.683 21.712 171.089 21.4977C170.5 21.2834 169.964 20.9262 169.482 20.4262C169 19.9262 168.614 19.2542 168.323 18.4104C168.038 17.5666 167.895 16.513 167.895 15.2495C167.895 14.053 168.013 12.9905 168.25 12.0618C168.491 11.1332 168.837 10.3497 169.288 9.71126C169.739 9.06836 170.283 8.57949 170.922 8.24465C171.56 7.90981 172.277 7.74239 173.071 7.74239C173.888 7.74239 174.614 7.90311 175.248 8.22456C175.882 8.54601 176.395 8.99023 176.788 9.55723C177.186 10.1242 177.438 10.7694 177.545 11.4926H175.502C175.364 10.9212 175.089 10.4546 174.679 10.093C174.268 9.73135 173.732 9.55053 173.071 9.55053C172.067 9.55053 171.283 9.98806 170.721 10.8631C170.163 11.7382 169.882 12.9548 169.877 14.5129H169.977C170.214 14.1245 170.504 13.7941 170.848 13.5218C171.196 13.245 171.585 13.0329 172.013 12.8856C172.446 12.7338 172.902 12.6579 173.379 12.6579C174.174 12.6579 174.893 12.8521 175.536 13.2405C176.183 13.6244 176.699 14.1557 177.083 14.8343C177.467 15.513 177.659 16.2898 177.659 17.1648C177.659 18.0399 177.46 18.8323 177.063 19.5422C176.67 20.2521 176.116 20.8146 175.402 21.2298C174.688 21.6406 173.853 21.8415 172.897 21.8325ZM172.891 20.0914C173.417 20.0914 173.888 19.9619 174.304 19.7029C174.719 19.444 175.047 19.0958 175.288 18.6582C175.529 18.2207 175.65 17.7318 175.65 17.1916C175.65 16.6648 175.531 16.1849 175.295 15.7518C175.063 15.3187 174.741 14.975 174.33 14.7205C173.924 14.466 173.46 14.3388 172.937 14.3388C172.54 14.3388 172.172 14.4147 171.833 14.5665C171.498 14.7183 171.203 14.9281 170.949 15.196C170.694 15.4638 170.493 15.7719 170.346 16.1201C170.203 16.4639 170.132 16.8278 170.132 17.2117C170.132 17.7251 170.25 18.2006 170.486 18.6381C170.728 19.0757 171.056 19.4284 171.471 19.6962C171.891 19.9596 172.364 20.0914 172.891 20.0914Z" fill="white"/>
<g clip-path="url(#clip0_6052_127055)">
<mask id="mask0_6052_127055" style="mask-type:luminance" maskUnits="userSpaceOnUse" x="0" y="42" width="87" height="16">
<path d="M86.7137 42.3589H0.660156V57.731H86.7137V42.3589Z" fill="white"/>
</mask>
<g mask="url(#mask0_6052_127055)">
<path d="M18.028 46.6505C14.9019 46.6505 12.4593 49.0236 12.4593 52.2005C12.4593 55.3774 14.8402 57.7302 18.028 57.7302C21.2159 57.7302 23.6382 55.3368 23.6382 52.1802C23.6382 49.0439 21.2573 46.6505 18.028 46.6505ZM18.0491 55.4407C16.2689 55.4407 14.9644 54.058 14.9644 52.2013C14.9644 50.3234 16.2478 48.9416 18.028 48.9416C19.8293 48.9416 21.1331 50.3445 21.1331 52.2013C21.1331 54.058 19.8293 55.4407 18.0491 55.4407ZM24.3209 49.065H25.8737V57.5247H28.3577V46.8567H24.3209V49.065ZM6.20781 48.9408C7.51233 48.9408 8.54732 49.7454 8.94025 50.942H11.5696C11.0931 48.3838 8.98165 46.6505 6.2289 46.6505C3.10278 46.6505 0.660156 49.0236 0.660156 52.2013C0.660156 55.3789 3.04107 57.731 6.2289 57.731C8.91993 57.731 11.0728 55.9976 11.5492 53.4183H8.94025C8.56764 54.615 7.53262 55.4407 6.22813 55.4407C4.42682 55.4407 3.16448 54.058 3.16448 52.2013C3.16527 50.3234 4.40729 48.9408 6.20781 48.9408ZM71.5189 51.1694L69.6973 50.9014C68.828 50.778 68.2069 50.489 68.2069 49.8079C68.2069 49.065 69.0147 48.6939 70.1114 48.6939C71.3121 48.6939 72.0783 49.2095 72.2438 50.0555H74.6452C74.3757 47.9097 72.7196 46.6512 70.1738 46.6512C67.5445 46.6512 65.8058 47.9925 65.8058 49.8906C65.8058 51.706 66.9445 52.759 69.2419 53.0886L71.0635 53.3566C71.9541 53.48 72.4508 53.8315 72.4508 54.4916C72.4508 55.3375 71.5816 55.6883 70.3809 55.6883C68.9107 55.6883 68.0827 55.0899 67.9586 54.1822H65.5158C65.744 56.2663 67.379 57.731 70.3597 57.731C73.0719 57.731 74.8724 56.4929 74.8724 54.3674C74.8724 52.4692 73.5686 51.4787 71.5189 51.1694ZM27.1157 42.462C26.2049 42.462 25.5216 43.1221 25.5216 44.0297C25.5216 44.9374 26.2042 45.5975 27.1157 45.5975C28.0265 45.5975 28.7101 44.9374 28.7101 44.0297C28.7101 43.1221 28.0265 42.462 27.1157 42.462ZM63.5701 50.5093C63.5701 48.1987 62.1626 46.6512 59.1816 46.6512C56.3663 46.6512 54.7931 48.0753 54.4823 50.2625H56.9459C57.0701 49.4165 57.7325 48.715 59.1403 48.715C60.4034 48.715 61.0243 49.272 61.0243 49.9531C61.0243 50.8405 59.8854 51.067 58.4778 51.2116C56.5734 51.4178 54.2135 52.0778 54.2135 54.5541C54.2135 56.4733 55.6422 57.7106 57.9194 57.7106C59.6994 57.7106 60.8173 56.9678 61.3767 55.7914C61.4595 56.8436 62.2462 57.5247 63.3436 57.5247H64.7926V55.3172H63.5708V50.5093H63.5701ZM61.1274 53.1917C61.1274 54.6158 59.8854 55.6679 58.3738 55.6679C57.4422 55.6679 56.6555 55.2758 56.6555 54.4509C56.6555 53.3987 57.9184 53.1097 59.0778 52.9863C60.1957 52.8832 60.8166 52.6356 61.1274 52.1606V53.1917ZM47.941 46.6505C46.5537 46.6505 45.3945 47.2285 44.5666 48.1979V42.3589H42.0826V57.5247H44.5251V56.1218C45.353 57.1326 46.5335 57.731 47.941 57.731C50.9218 57.731 53.1786 55.3789 53.1786 52.2013C53.1786 49.0236 50.8804 46.6505 47.941 46.6505ZM47.5685 55.4407C45.7882 55.4407 44.4837 54.058 44.4837 52.2013C44.4837 50.3445 45.8086 48.9416 47.5887 48.9416C49.3901 48.9416 50.6523 50.3242 50.6523 52.2013C50.6523 54.058 49.3485 55.4407 47.5685 55.4407ZM36.141 46.6505C34.5265 46.6505 33.4704 47.3105 32.8495 48.2393V46.8567H30.3856V57.524H32.8697V51.7263C32.8697 50.0961 33.9046 48.9408 35.4366 48.9408C36.8652 48.9408 37.7549 49.9516 37.7549 51.417V57.5247H40.2389V51.2319C40.2399 48.5486 38.8532 46.6505 36.141 46.6505ZM86.7137 51.8505C86.7137 48.797 84.478 46.6512 81.4761 46.6512C78.2884 46.6512 75.9489 49.0447 75.9489 52.2013C75.9489 55.5235 78.4538 57.731 81.5177 57.731C84.1055 57.731 86.1341 56.2038 86.6512 54.0377H84.0632C83.6907 54.9868 82.7799 55.5235 81.5583 55.5235C79.9639 55.5235 78.7632 54.533 78.4944 52.7996H86.713V51.8505H86.7137ZM78.6397 51.0249C79.0337 49.5391 80.1513 48.8174 81.4348 48.8174C82.8423 48.8174 83.9189 49.6219 84.1672 51.0249H78.6397Z" fill="white"/>
</g>
</g>
<path d="M94.6241 57.8096V47.5717H96.5504V49.198H96.657C96.8437 48.6471 97.1725 48.2138 97.6435 47.8983C98.119 47.5784 98.6566 47.4184 99.2565 47.4184C99.3809 47.4184 99.5276 47.4229 99.6964 47.4318C99.8697 47.4406 100.005 47.4517 100.103 47.4651V49.3713C100.023 49.3491 99.8808 49.3247 99.6764 49.298C99.472 49.2669 99.2676 49.2514 99.0632 49.2514C98.5922 49.2514 98.1723 49.3513 97.8035 49.5513C97.4391 49.7468 97.1503 50.0201 96.937 50.3711C96.7237 50.7177 96.6171 51.1132 96.6171 51.5576V57.8096H94.6241ZM104.715 58.0362C104.067 58.0362 103.48 57.9162 102.956 57.6763C102.431 57.4319 102.016 57.0786 101.709 56.6165C101.407 56.1544 101.256 55.5878 101.256 54.9168C101.256 54.3392 101.367 53.8637 101.589 53.4905C101.812 53.1172 102.111 52.8217 102.489 52.604C102.867 52.3863 103.289 52.2219 103.756 52.1108C104.222 51.9997 104.698 51.9153 105.182 51.8575C105.795 51.7864 106.293 51.7286 106.675 51.6842C107.057 51.6353 107.335 51.5576 107.508 51.4509C107.681 51.3443 107.768 51.171 107.768 50.931V50.8844C107.768 50.3023 107.604 49.8512 107.275 49.5313C106.95 49.2114 106.466 49.0514 105.822 49.0514C105.151 49.0514 104.622 49.2003 104.235 49.498C103.853 49.7913 103.589 50.1179 103.442 50.4778L101.569 50.0512C101.792 49.4291 102.116 48.927 102.542 48.5449C102.973 48.1583 103.469 47.8783 104.029 47.705C104.589 47.5273 105.177 47.4384 105.795 47.4384C106.204 47.4384 106.637 47.4873 107.095 47.5851C107.557 47.6784 107.988 47.8517 108.388 48.1049C108.792 48.3582 109.123 48.7204 109.381 49.1914C109.639 49.658 109.768 50.2645 109.768 51.011V57.8096H107.821V56.4099H107.741C107.613 56.6676 107.419 56.9209 107.162 57.1697C106.904 57.4185 106.573 57.6252 106.168 57.7896C105.764 57.954 105.28 58.0362 104.715 58.0362ZM105.149 56.4365C105.7 56.4365 106.171 56.3277 106.562 56.1099C106.957 55.8922 107.257 55.6078 107.461 55.2568C107.67 54.9013 107.775 54.5214 107.775 54.117V52.7973C107.704 52.8684 107.566 52.935 107.361 52.9972C107.162 53.055 106.933 53.1061 106.675 53.1505C106.417 53.1905 106.166 53.2283 105.922 53.2639C105.677 53.295 105.473 53.3216 105.309 53.3438C104.922 53.3927 104.569 53.4749 104.249 53.5905C103.933 53.706 103.68 53.8726 103.489 54.0904C103.302 54.3036 103.209 54.588 103.209 54.9435C103.209 55.4367 103.391 55.81 103.756 56.0633C104.12 56.3121 104.584 56.4365 105.149 56.4365ZM117.201 47.5717V49.1714H111.609V47.5717H117.201ZM113.109 45.1189H115.102V54.8035C115.102 55.1901 115.159 55.4812 115.275 55.6767C115.39 55.8678 115.539 55.9988 115.721 56.0699C115.908 56.1366 116.11 56.1699 116.328 56.1699C116.488 56.1699 116.628 56.1588 116.748 56.1366C116.868 56.1144 116.961 56.0966 117.028 56.0833L117.388 57.7296C117.272 57.774 117.108 57.8185 116.894 57.8629C116.681 57.9118 116.415 57.9384 116.095 57.9429C115.57 57.9518 115.082 57.8584 114.628 57.6629C114.175 57.4674 113.808 57.1653 113.529 56.7565C113.249 56.3477 113.109 55.8344 113.109 55.2168V45.1189ZM119.406 57.8096V47.5717H121.399V57.8096H119.406ZM120.412 45.9921C120.065 45.9921 119.768 45.8765 119.519 45.6455C119.275 45.41 119.152 45.13 119.152 44.8056C119.152 44.4768 119.275 44.1969 119.519 43.9658C119.768 43.7303 120.065 43.6126 120.412 43.6126C120.759 43.6126 121.054 43.7303 121.299 43.9658C121.547 44.1969 121.672 44.4768 121.672 44.8056C121.672 45.13 121.547 45.41 121.299 45.6455C121.054 45.8765 120.759 45.9921 120.412 45.9921ZM126.073 51.7308V57.8096H124.08V47.5717H125.993V49.238H126.119C126.355 48.6959 126.724 48.2605 127.226 47.9316C127.732 47.6028 128.37 47.4384 129.139 47.4384C129.836 47.4384 130.447 47.5851 130.972 47.8783C131.496 48.1672 131.902 48.5982 132.191 49.1714C132.48 49.7446 132.624 50.4533 132.624 51.2976V57.8096H130.632V51.5376C130.632 50.7955 130.438 50.2156 130.052 49.7979C129.665 49.3758 129.134 49.1647 128.459 49.1647C127.997 49.1647 127.586 49.2647 127.226 49.4647C126.87 49.6646 126.588 49.9579 126.379 50.3445C126.175 50.7266 126.073 51.1887 126.073 51.7308ZM139.59 61.8621C138.777 61.8621 138.077 61.7554 137.49 61.5421C136.908 61.3288 136.433 61.0467 136.064 60.6956C135.695 60.3446 135.419 59.9602 135.237 59.5425L136.95 58.836C137.07 59.0315 137.23 59.2382 137.43 59.4559C137.635 59.6781 137.91 59.8669 138.257 60.0224C138.608 60.178 139.059 60.2557 139.61 60.2557C140.365 60.2557 140.989 60.0713 141.483 59.7025C141.976 59.3381 142.222 58.756 142.222 57.9562V55.9433H142.096C141.976 56.161 141.803 56.4032 141.576 56.6698C141.354 56.9364 141.047 57.1675 140.656 57.363C140.265 57.5585 139.756 57.6563 139.13 57.6563C138.321 57.6563 137.592 57.4674 136.944 57.0897C136.299 56.7076 135.788 56.1455 135.411 55.4034C135.037 54.6569 134.851 53.7393 134.851 52.6507C134.851 51.562 135.035 50.6289 135.404 49.8512C135.777 49.0736 136.288 48.4782 136.937 48.065C137.586 47.6473 138.321 47.4384 139.143 47.4384C139.779 47.4384 140.292 47.5451 140.683 47.7583C141.074 47.9672 141.378 48.2116 141.596 48.4915C141.818 48.7715 141.989 49.0181 142.109 49.2314H142.256V47.5717H144.209V58.0362C144.209 58.916 144.004 59.6381 143.596 60.2024C143.187 60.7667 142.633 61.1844 141.936 61.4555C141.243 61.7265 140.461 61.8621 139.59 61.8621ZM139.57 56.0033C140.143 56.0033 140.627 55.87 141.023 55.6034C141.423 55.3323 141.725 54.9457 141.929 54.4436C142.138 53.9371 142.242 53.3305 142.242 52.624C142.242 51.9352 142.14 51.3287 141.936 50.8044C141.731 50.28 141.432 49.8712 141.036 49.578C140.641 49.2803 140.152 49.1314 139.57 49.1314C138.97 49.1314 138.47 49.2869 138.07 49.598C137.67 49.9046 137.368 50.3223 137.164 50.851C136.964 51.3798 136.864 51.9708 136.864 52.624C136.864 53.295 136.966 53.8837 137.17 54.3903C137.375 54.8968 137.677 55.2923 138.077 55.5767C138.481 55.8611 138.979 56.0033 139.57 56.0033Z" fill="white"/>
<defs>
<clipPath id="clip0_6052_127055">
<rect width="86.2277" height="15.3721" fill="white" transform="translate(0.662109 42.355)"/>
</clipPath>
</defs>
</svg>
