<svg width="122" height="27" viewBox="0 0 122 27" fill="none" xmlns="http://www.w3.org/2000/svg">
<g clip-path="url(#clip0_6052_127121)">
<path d="M16.2406 21.1198H14.5887L12.6111 19.3504V18.4431L14.6585 16.5375V13.5205L17.3341 11.8192L20.3819 14.0649L16.2406 21.1198ZM9.40032 16.356L9.70279 13.5205L8.70238 10.9799H14.6119L13.6348 13.5205L13.9139 16.356H11.6339H9.40032ZM10.7498 19.3504L8.77213 21.1425H7.09697L2.93236 14.0649L6.00349 11.8419L8.70238 13.5205V16.5375L10.7498 18.4431V19.3504ZM7.07372 5.73974H16.2173L17.3108 10.2766H6.00349L7.07372 5.73974ZM11.6572 0.0913086L0.0473633 6.62443V19.6907L11.6572 26.2238L23.267 19.6907V6.62443L11.6572 0.0913086Z" fill="white"/>
</g>
<path d="M35.8042 18.6127C34.9057 18.6127 34.1329 18.4224 33.4857 18.0417C32.8422 17.6571 32.3473 17.1241 32.0009 16.4426C31.6582 15.7611 31.4869 14.9769 31.4869 14.0898C31.4869 13.1913 31.6601 12.4032 32.0066 11.7255C32.3568 11.0441 32.8537 10.5129 33.4971 10.1322C34.1405 9.7477 34.9057 9.55544 35.7928 9.55544C36.558 9.55544 37.2281 9.6944 37.803 9.97233C38.3779 10.2503 38.8328 10.6405 39.1679 11.143C39.5029 11.6456 39.6876 12.2357 39.7218 12.9134H37.4261C37.3614 12.4756 37.19 12.1234 36.9121 11.8569C36.638 11.5866 36.2782 11.4514 35.8328 11.4514C35.4559 11.4514 35.1265 11.5542 34.8448 11.7598C34.5669 11.9616 34.3499 12.2566 34.1938 12.645C34.0377 13.0333 33.9596 13.5035 33.9596 14.0555C33.9596 14.6152 34.0358 15.0911 34.1881 15.4832C34.3442 15.8754 34.5631 16.1742 34.8448 16.3798C35.1265 16.5854 35.4559 16.6882 35.8328 16.6882C36.1107 16.6882 36.3601 16.6311 36.5809 16.5169C36.8055 16.4027 36.9902 16.237 37.1348 16.02C37.2833 15.7992 37.3804 15.5346 37.4261 15.2262H39.7218C39.6837 15.8963 39.501 16.4864 39.1736 16.9966C38.85 17.5029 38.4026 17.8989 37.8316 18.1844C37.2605 18.47 36.5847 18.6127 35.8042 18.6127ZM41.2794 18.4414V9.66966H43.638V11.2001H43.7294C43.8893 10.6557 44.1577 10.2445 44.5346 9.96662C44.9115 9.68489 45.3455 9.54402 45.8366 9.54402C45.9585 9.54402 46.0898 9.55163 46.2307 9.56686C46.3715 9.58209 46.4953 9.60303 46.6019 9.62968V11.7884C46.4877 11.7541 46.3297 11.7236 46.1279 11.697C45.9261 11.6703 45.7414 11.657 45.5739 11.657C45.2161 11.657 44.8963 11.7351 44.6145 11.8911C44.3366 12.0434 44.1158 12.2566 43.9521 12.5308C43.7922 12.8049 43.7122 13.1209 43.7122 13.4787V18.4414H41.2794ZM49.6286 21.7308C49.3202 21.7308 49.0309 21.7061 48.7605 21.6566C48.494 21.6109 48.2732 21.5519 48.0981 21.4795L48.6463 19.6635C48.9319 19.7511 49.1889 19.7987 49.4173 19.8063C49.6495 19.8139 49.8494 19.7606 50.0169 19.6464C50.1882 19.5322 50.3272 19.338 50.4338 19.0639L50.5766 18.6927L47.4299 9.66966H49.9884L51.8044 16.1114H51.8958L53.7289 9.66966H56.3045L52.8951 19.3894C52.7314 19.8615 52.5087 20.2727 52.227 20.6229C51.9491 20.977 51.5969 21.2492 51.1705 21.4396C50.7441 21.6337 50.2301 21.7308 49.6286 21.7308ZM57.5494 21.7308V9.66966H59.948V11.143H60.0565C60.1631 10.907 60.3172 10.6671 60.519 10.4235C60.7246 10.176 60.9911 9.97043 61.3185 9.80672C61.6498 9.6392 62.0609 9.55544 62.5521 9.55544C63.1917 9.55544 63.7818 9.72296 64.3224 10.058C64.863 10.3892 65.2951 10.8899 65.6187 11.5599C65.9424 12.2262 66.1042 13.0619 66.1042 14.067C66.1042 15.0454 65.9462 15.8716 65.6302 16.5454C65.318 17.2155 64.8916 17.7238 64.351 18.0702C63.8141 18.4129 63.2126 18.5842 62.5464 18.5842C62.0743 18.5842 61.6726 18.5061 61.3414 18.35C61.014 18.1939 60.7456 17.9979 60.5362 17.7618C60.3268 17.522 60.1669 17.2802 60.0565 17.0366H59.9822V21.7308H57.5494ZM59.9308 14.0555C59.9308 14.5771 60.0032 15.0321 60.1478 15.4204C60.2925 15.8087 60.5019 16.1114 60.776 16.3284C61.0501 16.5416 61.3833 16.6482 61.7754 16.6482C62.1713 16.6482 62.5064 16.5397 62.7805 16.3227C63.0546 16.1019 63.2621 15.7973 63.403 15.409C63.5476 15.0168 63.62 14.5657 63.62 14.0555C63.62 13.5492 63.5495 13.1037 63.4087 12.7192C63.2678 12.3347 63.0603 12.0339 62.7862 11.8169C62.5121 11.5999 62.1752 11.4914 61.7754 11.4914C61.3795 11.4914 61.0444 11.5961 60.7703 11.8055C60.5 12.0149 60.2925 12.3118 60.1478 12.6964C60.0032 13.0809 59.9308 13.5339 59.9308 14.0555ZM72.3917 9.66966V11.4971H67.1093V9.66966H72.3917ZM68.3085 7.56809H70.7413V15.7459C70.7413 15.9705 70.7756 16.1457 70.8441 16.2713C70.9126 16.3931 71.0078 16.4788 71.1296 16.5283C71.2553 16.5778 71.4 16.6025 71.5637 16.6025C71.6779 16.6025 71.7921 16.593 71.9063 16.574C72.0205 16.5511 72.1081 16.534 72.169 16.5226L72.5516 18.3329C72.4298 18.371 72.2585 18.4148 72.0377 18.4642C71.8168 18.5175 71.5484 18.5499 71.2324 18.5613C70.6461 18.5842 70.1322 18.5061 69.6905 18.3272C69.2527 18.1483 68.912 17.8703 68.6683 17.4934C68.4246 17.1165 68.3047 16.6406 68.3085 16.0657V7.56809ZM77.8455 18.6127C76.9584 18.6127 76.1913 18.4243 75.5441 18.0474C74.9007 17.6666 74.4038 17.1374 74.0536 16.4598C73.7033 15.7783 73.5282 14.9883 73.5282 14.0898C73.5282 13.1837 73.7033 12.3918 74.0536 11.7141C74.4038 11.0326 74.9007 10.5034 75.5441 10.1265C76.1913 9.7458 76.9584 9.55544 77.8455 9.55544C78.7326 9.55544 79.4978 9.7458 80.1412 10.1265C80.7885 10.5034 81.2872 11.0326 81.6375 11.7141C81.9877 12.3918 82.1629 13.1837 82.1629 14.0898C82.1629 14.9883 81.9877 15.7783 81.6375 16.4598C81.2872 17.1374 80.7885 17.6666 80.1412 18.0474C79.4978 18.4243 78.7326 18.6127 77.8455 18.6127ZM77.8569 16.7282C78.2605 16.7282 78.5974 16.614 78.8677 16.3855C79.1381 16.1533 79.3417 15.8373 79.4788 15.4375C79.6197 15.0378 79.6901 14.5828 79.6901 14.0727C79.6901 13.5625 79.6197 13.1075 79.4788 12.7078C79.3417 12.308 79.1381 11.992 78.8677 11.7598C78.5974 11.5276 78.2605 11.4114 77.8569 11.4114C77.4496 11.4114 77.1069 11.5276 76.829 11.7598C76.5549 11.992 76.3474 12.308 76.2065 12.7078C76.0695 13.1075 76.0009 13.5625 76.0009 14.0727C76.0009 14.5828 76.0695 15.0378 76.2065 15.4375C76.3474 15.8373 76.5549 16.1533 76.829 16.3855C77.1069 16.614 77.4496 16.7282 77.8569 16.7282ZM85.1667 18.5899C84.7898 18.5899 84.4662 18.4566 84.1959 18.1901C83.9294 17.9198 83.7961 17.5962 83.7961 17.2193C83.7961 16.8462 83.9294 16.5264 84.1959 16.2599C84.4662 15.9934 84.7898 15.8601 85.1667 15.8601C85.5322 15.8601 85.852 15.9934 86.1261 16.2599C86.4003 16.5264 86.5373 16.8462 86.5373 17.2193C86.5373 17.4706 86.4726 17.7009 86.3431 17.9103C86.2175 18.1159 86.0519 18.2815 85.8463 18.4071C85.6407 18.529 85.4142 18.5899 85.1667 18.5899ZM92.4979 18.6127C91.5994 18.6127 90.8266 18.4224 90.1794 18.0417C89.5359 17.6571 89.041 17.1241 88.6946 16.4426C88.3519 15.7611 88.1806 14.9769 88.1806 14.0898C88.1806 13.1913 88.3538 12.4032 88.7003 11.7255C89.0505 11.0441 89.5474 10.5129 90.1908 10.1322C90.8342 9.7477 91.5994 9.55544 92.4865 9.55544C93.2518 9.55544 93.9218 9.6944 94.4967 9.97233C95.0716 10.2503 95.5265 10.6405 95.8616 11.143C96.1966 11.6456 96.3813 12.2357 96.4155 12.9134H94.1198C94.0551 12.4756 93.8837 12.1234 93.6058 11.8569C93.3317 11.5866 92.9719 11.4514 92.5265 11.4514C92.1496 11.4514 91.8203 11.5542 91.5385 11.7598C91.2606 11.9616 91.0436 12.2566 90.8875 12.645C90.7314 13.0333 90.6534 13.5035 90.6534 14.0555C90.6534 14.6152 90.7295 15.0911 90.8818 15.4832C91.0379 15.8754 91.2568 16.1742 91.5385 16.3798C91.8203 16.5854 92.1496 16.6882 92.5265 16.6882C92.8044 16.6882 93.0538 16.6311 93.2746 16.5169C93.4992 16.4027 93.6839 16.237 93.8285 16.02C93.977 15.7992 94.0741 15.5346 94.1198 15.2262H96.4155C96.3775 15.8963 96.1947 16.4864 95.8673 16.9966C95.5437 17.5029 95.0963 17.8989 94.5253 18.1844C93.9542 18.47 93.2784 18.6127 92.4979 18.6127ZM101.936 18.6127C101.049 18.6127 100.282 18.4243 99.635 18.0474C98.9916 17.6666 98.4947 17.1374 98.1445 16.4598C97.7942 15.7783 97.6191 14.9883 97.6191 14.0898C97.6191 13.1837 97.7942 12.3918 98.1445 11.7141C98.4947 11.0326 98.9916 10.5034 99.635 10.1265C100.282 9.7458 101.049 9.55544 101.936 9.55544C102.823 9.55544 103.589 9.7458 104.232 10.1265C104.879 10.5034 105.378 11.0326 105.728 11.7141C106.079 12.3918 106.254 13.1837 106.254 14.0898C106.254 14.9883 106.079 15.7783 105.728 16.4598C105.378 17.1374 104.879 17.6666 104.232 18.0474C103.589 18.4243 102.823 18.6127 101.936 18.6127ZM101.948 16.7282C102.351 16.7282 102.688 16.614 102.959 16.3855C103.229 16.1533 103.433 15.8373 103.57 15.4375C103.711 15.0378 103.781 14.5828 103.781 14.0727C103.781 13.5625 103.711 13.1075 103.57 12.7078C103.433 12.308 103.229 11.992 102.959 11.7598C102.688 11.5276 102.351 11.4114 101.948 11.4114C101.54 11.4114 101.198 11.5276 100.92 11.7598C100.646 11.992 100.438 12.308 100.297 12.7078C100.16 13.1075 100.092 13.5625 100.092 14.0727C100.092 14.5828 100.16 15.0378 100.297 15.4375C100.438 15.8373 100.646 16.1533 100.92 16.3855C101.198 16.614 101.54 16.7282 101.948 16.7282ZM107.836 18.4414V9.66966H110.154V11.2173H110.257C110.44 10.7033 110.744 10.2978 111.171 10.0009C111.597 9.70392 112.107 9.55544 112.701 9.55544C113.303 9.55544 113.815 9.70583 114.237 10.0066C114.66 10.3036 114.942 10.7071 115.083 11.2173H115.174C115.353 10.7147 115.677 10.3131 116.145 10.0123C116.617 9.70773 117.175 9.55544 117.818 9.55544C118.637 9.55544 119.301 9.81623 119.811 10.3378C120.325 10.8556 120.582 11.5904 120.582 12.5422V18.4414H118.155V13.0219C118.155 12.5346 118.026 12.1691 117.767 11.9254C117.508 11.6818 117.184 11.5599 116.796 11.5599C116.354 11.5599 116.01 11.7008 115.762 11.9825C115.515 12.2604 115.391 12.6278 115.391 13.0847V18.4414H113.032V12.9705C113.032 12.5403 112.909 12.1976 112.661 11.9425C112.418 11.6875 112.096 11.5599 111.696 11.5599C111.426 11.5599 111.182 11.6285 110.965 11.7655C110.752 11.8988 110.583 12.0872 110.457 12.3309C110.331 12.5707 110.268 12.8525 110.268 13.1761V18.4414H107.836Z" fill="white"/>
<defs>
<clipPath id="clip0_6052_127121">
<rect width="23.4522" height="26.1325" fill="white" transform="translate(0.046875 0.0913086)"/>
</clipPath>
</defs>
</svg>
