<svg width="60" height="60" viewBox="0 0 60 60" fill="none" xmlns="http://www.w3.org/2000/svg">
<g clip-path="url(#clip0_6052_126968)">
<path d="M42.316 0H17.1554C7.68102 0 0.000488281 7.68053 0.000488281 17.1549V42.3155C0.000488281 51.79 7.68102 59.4705 17.1554 59.4705H42.316C51.7904 59.4705 59.471 51.79 59.471 42.3155V17.1549C59.471 7.68053 51.7904 0 42.316 0Z" fill="#F1F1F1"/>
<mask id="mask0_6052_126968" style="mask-type:luminance" maskUnits="userSpaceOnUse" x="11" y="13" width="38" height="33">
<path d="M48.034 13.7236H11.4368V45.7462H48.034V13.7236Z" fill="white"/>
</mask>
<g mask="url(#mask0_6052_126968)">
<path d="M45.0814 34.5092C45.2016 34.6054 45.2806 34.6885 45.399 34.7873C45.4707 34.847 45.4711 34.847 45.5416 34.7819C45.5904 34.7363 45.6379 34.6888 45.6881 34.6442C45.8904 34.4623 46.1625 34.4711 46.3508 34.6691C46.4259 34.7485 46.4965 34.8323 46.5625 34.9202C46.7254 35.1359 46.7091 35.4178 46.5252 35.6141C46.4737 35.6692 46.4189 35.7213 46.3631 35.7716C46.3166 35.8133 46.315 35.8539 46.3481 35.9063C46.416 36.0141 46.4819 36.1234 46.5457 36.234C46.6267 36.3741 46.6987 36.5198 46.7671 36.667C46.8321 36.8072 46.8321 36.8062 46.9673 36.7611C47.0326 36.7371 47.0991 36.7172 47.1666 36.7014C47.3864 36.6564 47.5948 36.7695 47.6886 36.9873C47.7455 37.1216 47.788 37.2621 47.8154 37.4064C47.8558 37.6123 47.7376 37.8406 47.5486 37.9419C47.4753 37.9809 47.395 37.9978 47.3185 38.027C47.226 38.0623 47.2178 38.0693 47.2331 38.1655C47.2819 38.4686 47.3163 38.7731 47.3185 39.081C47.3191 39.1482 47.343 39.1866 47.4092 39.1924C47.4658 39.1973 47.5219 39.2085 47.5786 39.2147C47.8035 39.2395 47.9565 39.3587 48.0233 39.5936C48.029 39.6139 48.0438 40.0374 48.0241 40.1521C47.9809 40.4057 47.7953 40.5863 47.5511 40.5966C47.4984 40.5991 47.4456 40.5955 47.3936 40.5858C47.2973 40.5673 47.2336 40.6103 47.2104 40.709C47.1531 40.952 47.076 41.188 46.9933 41.4221C46.9689 41.4898 46.9829 41.5491 47.036 41.5966C47.0637 41.6216 47.1704 41.7437 47.1875 41.7844C47.2271 41.8777 47.056 41.7325 47.0166 41.7082C46.926 41.6529 45.8171 41.0019 45.4042 40.7682C45.4338 40.5362 45.5404 40.2394 45.5834 40.0105C45.8023 38.8446 45.5759 37.781 44.9423 36.81C44.4152 36.0025 43.6937 35.4859 42.8074 35.2297C42.0274 35.0041 41.2543 35.0499 40.4959 35.3444C39.8683 35.5881 39.1813 35.9876 38.8044 36.6167C38.7611 36.6679 38.7408 36.662 38.6724 36.6297C38.4366 36.5046 37.512 35.8644 37.1362 35.6319C36.9696 35.4541 36.8595 35.1631 36.9846 34.9484C37.0738 34.7952 37.1938 34.671 37.3225 34.5594C37.5033 34.4027 37.7657 34.4072 37.9576 34.5545C38.1959 34.7371 38.1957 34.7363 38.4273 34.5401C38.5481 34.4375 38.677 34.3465 38.8039 34.2528C38.9219 34.1656 38.9307 34.1305 38.8753 33.9939C38.7243 33.6213 38.8212 33.3381 39.1617 33.1538C39.2517 33.103 39.3457 33.0606 39.4425 33.0272C39.7024 32.9431 39.9419 33.0418 40.0831 33.2879C40.2304 33.5446 40.2297 33.5443 40.5069 33.4765C40.6536 33.4404 40.8021 33.4149 40.9501 33.3862C41.098 33.3575 41.1205 33.3327 41.1289 33.1771C41.1323 33.0993 41.1434 33.0221 41.162 32.9467C41.2011 32.7963 41.2719 32.6644 41.4186 32.6051C41.6981 32.4918 41.9804 32.47 42.2547 32.619C42.4165 32.7068 42.492 32.8578 42.4942 33.0534C42.4972 33.3467 42.4991 33.3491 42.7684 33.3955C42.9455 33.426 43.119 33.4714 43.2929 33.5151C43.425 33.5483 43.4591 33.5353 43.5107 33.4C43.6408 33.0574 43.9646 32.8827 44.3466 33.0821C44.455 33.1387 44.5686 33.18 44.6631 33.2713C44.8541 33.4552 44.8675 33.7269 44.7891 33.925C44.7778 33.9529 44.7646 33.9796 44.7537 34.0077C44.7014 34.1453 44.6958 34.2258 44.6958 34.2258C44.6958 34.2258 44.963 34.4142 45.0814 34.5092Z" fill="#5F5F5F"/>
<path d="M45.3417 40.6548C45.4527 40.7678 46.9361 41.6306 47.0639 41.712C47.102 41.7173 47.1314 41.7441 47.1657 41.7588L47.1639 41.7576C47.1903 41.7829 47.2157 41.8097 47.2396 41.8378L47.2382 41.836C47.3558 42.0109 47.355 42.1973 47.287 42.3903C47.2439 42.4929 47.1921 42.5912 47.1321 42.6836C46.9924 42.9072 46.7348 42.9774 46.5082 42.856C46.4392 42.8191 46.3724 42.778 46.307 42.7339C46.2594 42.7023 46.2267 42.7108 46.1933 42.7577C46.0118 43.013 45.81 43.2513 45.5902 43.4699C45.5459 43.5138 45.5407 43.5523 45.578 43.6032C45.6209 43.6607 45.6608 43.7209 45.6993 43.7818C45.8558 44.0286 45.8138 44.3135 45.5923 44.4964C45.5153 44.5599 45.4366 44.6216 45.3548 44.6782C45.135 44.83 44.8772 44.7872 44.7098 44.5726C44.6635 44.5123 44.6201 44.4495 44.5799 44.3846C44.5442 44.3276 44.5084 44.3147 44.4487 44.3509C44.1973 44.503 43.9319 44.6231 43.6608 44.7294C43.5622 44.7684 43.5631 44.7697 43.5824 44.8793C43.5892 44.9175 43.5946 44.956 43.6016 44.9941C43.6646 45.3153 43.5927 45.4892 43.3285 45.654C43.2602 45.6943 43.1818 45.688 43.1087 45.7086C42.9811 45.7411 42.8521 45.7384 42.7221 45.7316C42.6795 45.7093 42.6372 45.6851 42.5956 45.6609C42.4706 45.5501 42.4148 45.4041 42.3824 45.2368C42.3385 45.0103 42.3653 45.047 42.1689 45.0568C41.9088 45.0697 41.6484 45.0686 41.3885 45.0533C41.2875 45.0473 41.2873 45.0468 41.264 45.1462C41.2533 45.1925 41.2412 45.2385 41.2345 45.2855C41.1923 45.5823 40.9675 45.8052 40.6092 45.7326C40.5215 45.7146 40.4345 45.6906 40.3489 45.6637C40.1038 45.5872 39.9621 45.336 40.0113 45.0689C40.0235 45.0011 40.0384 44.9337 40.0508 44.8658C40.0676 44.7734 40.0666 44.7686 39.9794 44.7337C39.8118 44.6668 39.645 44.5984 39.4837 44.5157C39.3884 44.4669 39.2942 44.4159 39.2003 44.3643C39.1026 44.3109 39.1032 44.3101 39.0349 44.4074C38.9983 44.4593 38.9641 44.5132 38.926 44.5633C38.759 44.786 38.4955 44.8328 38.2728 44.677C38.1878 44.6176 38.1051 44.554 38.0255 44.487C37.8223 44.3156 37.7785 44.034 37.9181 43.8015C37.9597 43.7323 38.0059 43.6662 38.0525 43.6009C38.0849 43.5555 38.0869 43.5193 38.0453 43.4775C37.8226 43.2558 37.6183 43.014 37.4346 42.7548C37.3998 42.7054 37.3654 42.7058 37.3202 42.7358C37.2652 42.7727 37.2082 42.8063 37.151 42.8398C36.8944 42.9883 36.6272 42.9151 36.4765 42.648C36.4227 42.5524 36.3568 42.4647 36.3198 42.3574C36.2279 42.0917 36.3053 41.8455 36.5348 41.6974C36.5836 41.666 36.6335 41.6369 36.6813 41.6053C36.766 41.5502 36.7682 41.5486 36.7308 41.4524C36.6532 41.2525 36.5865 41.048 36.531 40.8401C36.5065 40.7491 36.4833 40.6567 36.4631 40.5641C36.4484 40.4966 36.4151 40.4705 36.3498 40.485C36.2978 40.4952 36.2453 40.5025 36.1926 40.5071C35.8824 40.5418 35.6523 40.3443 35.6199 40.0152C35.611 39.9243 35.6015 39.8345 35.5956 39.7439C35.5872 39.6128 35.6266 39.4835 35.7054 39.3824C35.7842 39.2813 35.8965 39.2162 36.0191 39.2006C36.0876 39.1916 36.1566 39.1859 36.2247 39.1746C36.3137 39.159 36.3165 39.1571 36.3179 39.0583C36.3219 38.8421 36.3375 38.6264 36.3644 38.4121C36.3756 38.3179 36.4053 38.2264 36.3988 38.1299C36.392 38.0638 36.3657 38.0229 36.3159 38.0022C36.2817 37.9917 36.2735 37.9871 36.2227 37.9736C36.1222 37.9477 36.0311 37.9014 35.9585 37.8232" fill="#414141"/>
<path d="M36.4039 38.1884C36.4153 38.1222 36.3885 38.0227 36.3247 38.0037C36.2698 37.9873 36.1821 37.9524 36.1277 37.935C35.9111 37.8655 35.7753 37.6837 35.7514 37.4396C35.7239 37.3357 35.8101 36.9994 35.8492 36.8904C35.9366 36.6502 36.151 36.5102 36.3925 36.5491C36.4448 36.5571 36.4959 36.5712 36.5452 36.5911C36.6365 36.6288 36.7067 36.5992 36.7471 36.5069C36.8465 36.2798 36.9952 36.0548 37.0909 35.8263C37.1835 35.6054 37.1178 35.6237 37.1502 35.6314C37.2294 35.7039 38.3846 36.3012 38.7486 36.6136C38.5114 36.8864 37.9845 38.1219 37.9626 38.5353" fill="#414141"/>
<path d="M38.7617 36.5958C39.4991 35.748 40.0268 35.3841 40.7547 35.1642C41.1976 35.0292 41.6598 34.9803 42.119 35.0194C42.8918 35.0856 43.5898 35.3726 44.2043 35.8799C44.7463 36.3275 45.1408 36.8944 45.41 37.563C45.5749 37.972 45.6618 38.3995 45.7025 38.8427C45.7607 39.4771 45.6329 40.1859 45.4282 40.7773C45.3868 40.8163 44.6327 40.2672 44.552 40.1603C44.5335 40.1025 44.5564 40.0497 44.5703 39.9962C44.6444 39.7073 44.6924 39.4137 44.6838 39.1135C44.6432 37.6705 43.7188 36.4803 42.4405 36.1895C41.497 35.9749 40.4966 36.1914 39.5809 37.1814C39.5578 37.1951 39.5506 37.1654 39.3952 37.0515C39.1341 36.8825 39.0057 36.7766 38.8274 36.6617C38.7251 36.5982 38.7303 36.6324 38.7617 36.5958Z" fill="#414141"/>
<path d="M45.4439 40.7355C45.4193 40.7771 45.3971 40.8202 45.3774 40.8646C45.1525 41.441 44.7923 41.9143 44.3537 42.315C43.7796 42.8397 43.1137 43.167 42.3577 43.2721C42.1726 43.2981 41.9869 43.3263 41.7996 43.32C41.2584 43.3017 40.7353 43.1957 40.2354 42.9642C39.9184 42.8165 39.6216 42.6237 39.3532 42.3913C38.9353 42.0318 38.5959 41.5999 38.3467 41.088C38.1176 40.6163 37.9858 40.1176 37.9299 39.5919C37.881 39.1395 37.9194 38.6955 38.0084 38.2526C38.1103 37.7473 38.3003 37.2817 38.5657 36.8502C38.6034 36.7889 38.7132 36.6496 38.7489 36.6147C38.9416 36.7212 39.4678 37.0907 39.5522 37.171C39.6054 37.2449 39.5071 37.3422 39.4767 37.3897C39.315 37.6411 39.1818 37.9065 39.0961 38.1981C38.7976 39.2143 38.9344 40.1599 39.5358 41.0101C40.0376 41.7195 40.72 42.1083 41.5544 42.1974C42.7431 42.3244 43.9631 41.6066 44.4651 40.3397C44.4928 40.2697 44.4858 40.1593 44.5987 40.1538C44.6712 40.2424 45.3586 40.6857 45.4439 40.7355Z" fill="#5F5F5F"/>
<path d="M44.5996 40.1518C44.5049 40.4099 44.3991 40.6615 44.2507 40.8913C43.7807 41.6188 43.1392 42.0703 42.3224 42.2258C41.4951 42.3832 40.7377 42.1868 40.0646 41.6575C39.4723 41.1917 39.0944 40.5651 38.9485 39.7978C38.7761 38.8909 38.9572 38.0563 39.4621 37.302C39.481 37.2738 39.4987 37.2453 39.5177 37.217C39.5368 37.1928 39.7877 36.8982 39.9098 36.7893C40.4511 36.307 41.0703 36.0598 41.7781 36.0455C43.1041 36.0187 44.3003 36.9736 44.6452 38.3608C44.7832 38.9161 44.7796 39.4727 44.6294 40.0263C44.6182 40.0674 44.6094 40.1099 44.5996 40.1518Z" fill="#EDAE50"/>
<path d="M42.6003 39.1624C42.6227 39.6372 42.2128 40.0047 41.8241 39.9998C41.3804 39.9942 41.0163 39.6241 41.0203 39.1544C41.0241 38.6954 41.3615 38.3157 41.8296 38.3145C42.2195 38.3133 42.6219 38.6844 42.6003 39.1624Z" fill="#414141"/>
<path d="M42.6443 37.5837C42.7344 37.5739 42.8095 37.6078 42.872 37.679C42.9272 37.742 42.9866 37.8012 43.0406 37.8656C43.1659 38.0146 43.0894 38.2873 42.9272 38.3409C42.8564 38.3644 42.7915 38.3658 42.7292 38.3224C42.5957 38.2291 42.4819 38.1112 42.3809 37.9817C42.2735 37.8442 42.3281 37.6682 42.4876 37.6086C42.5377 37.5891 42.591 37.5805 42.6443 37.5837Z" fill="#FCD38C"/>
<path d="M21.3581 45.6836C21.1383 45.5605 21.0078 45.3693 20.9686 45.1067C20.9552 45.0172 20.932 44.9296 20.9147 44.8405C20.9025 44.7781 20.873 44.7573 20.8118 44.7626C20.4227 44.7973 20.0318 44.8017 19.6422 44.7755C19.5893 44.7722 19.5365 44.769 19.4841 44.7626C19.4341 44.7565 19.4081 44.7785 19.3979 44.8297C19.3792 44.9227 19.3543 45.0144 19.3399 45.1082C19.2953 45.3975 19.1464 45.5964 18.8926 45.7085C18.7303 45.7554 18.5682 45.739 18.4059 45.707C18.2557 45.6773 18.1014 45.6633 17.9652 45.5795C17.9129 45.5386 17.8567 45.5032 17.8114 45.4524C17.6496 45.2705 17.5827 45.0582 17.6244 44.8105C17.6402 44.7169 17.661 44.6245 17.6787 44.5312C17.7087 44.372 17.7085 44.3711 17.5688 44.3186C17.2509 44.1984 16.9408 44.056 16.6405 43.8925C16.5682 43.8535 16.4949 43.8145 16.4258 43.77C16.373 43.7353 16.338 43.7427 16.3037 43.7959C16.251 43.8779 16.1926 43.9557 16.1404 44.0382C15.9177 44.3899 15.4807 44.4929 15.1373 44.2111C15.0473 44.1372 14.9522 44.0702 14.862 43.9968C14.5433 43.7377 14.4852 43.325 14.7173 42.9751C14.7782 42.8832 14.8404 42.7923 14.9039 42.7023C14.934 42.6599 14.9336 42.6252 14.8953 42.5904C14.8767 42.5736 14.8602 42.5545 14.8424 42.5367C14.5449 42.2358 14.27 41.9104 14.0205 41.5636C13.9497 41.4652 13.949 41.4655 13.845 41.5292C13.7745 41.5723 13.7044 41.6159 13.6339 41.6591C13.2634 41.8844 12.8952 41.7854 12.6662 41.3993C12.6348 41.3499 12.6229 41.332 12.5901 41.2726C12.5496 41.1892 12.5008 41.111 12.4642 41.0247C12.308 40.6567 12.4167 40.28 12.7437 40.0722C12.8204 40.0234 12.8983 39.9766 12.9759 39.9281C13.0789 39.8631 13.0801 39.8623 13.0357 39.7494C12.8932 39.3863 12.7756 39.0126 12.6839 38.6314C12.6688 38.5686 12.6521 38.5062 12.6399 38.4427C12.6277 38.3793 12.593 38.3586 12.5348 38.3666C12.4259 38.3813 12.317 38.3982 12.2076 38.4048C11.9266 38.4221 11.7098 38.3032 11.5631 38.0469C11.502 37.9413 11.479 37.8232 11.4687 37.701C11.4612 37.6101 11.4444 37.5283 11.4387 37.4308C11.4149 37.0622 11.6133 36.5993 12.0494 36.5661C12.1426 36.559 12.2352 36.5441 12.3282 36.5331C12.4357 36.5202 12.4395 36.5193 12.4419 36.4105C12.4489 36.0906 12.4733 35.7713 12.5152 35.4544C12.5324 35.3261 12.5518 35.198 12.5731 35.0704C12.5935 34.9486 12.5937 34.9459 12.4794 34.9061C12.394 34.8765 12.3084 34.8486 12.2242 34.8182C11.8585 34.687 11.6697 34.3166 11.7723 33.9225C11.8101 33.7768 11.8567 33.6334 11.9067 33.4918C12.0349 33.1268 12.3856 32.9427 12.7373 33.0532C12.8425 33.0861 12.9481 33.1192 13.0504 33.1607C13.116 33.1868 13.145 33.165 13.1726 33.1035C13.2374 32.9592 13.3079 32.8177 13.3761 32.6754C13.4006 32.6264 13.4232 32.5871 13.4452 32.5421C13.5185 32.3991 13.5963 32.2582 13.6895 32.128C13.7735 32.0501 27.8927 40.8816 27.8529 40.9835C27.8258 41.0354 27.8039 41.0857 27.778 41.1358C27.7281 41.2299 27.6811 41.3256 27.628 41.4176C27.4266 41.7662 27.06 41.8723 26.7178 41.6822C26.6278 41.6323 26.5414 41.5748 26.4531 41.5213C26.3613 41.4657 26.3602 41.4652 26.2978 41.5509C26.1584 41.7424 26.0127 41.9282 25.8605 42.1082C25.7243 42.2692 25.5803 42.4215 25.4338 42.5713C25.3663 42.6402 25.3664 42.6422 25.4183 42.7206C25.4769 42.809 25.5387 42.8946 25.5966 42.9834C25.8217 43.3277 25.7613 43.7419 25.4488 43.9952C25.3486 44.0765 25.2468 44.1554 25.1434 44.2319C24.8186 44.4714 24.4327 44.4059 24.1926 44.071C24.1315 43.9851 24.0735 43.8958 24.0124 43.8094C23.9572 43.7314 23.9551 43.7303 23.8743 43.7771C23.5426 43.9701 23.1985 44.1377 22.8443 44.2785C22.7947 44.2979 22.7447 44.3162 22.6954 44.3362C22.6061 44.3725 22.6044 44.3738 22.6221 44.4792C22.6379 44.5727 22.651 44.6675 22.6763 44.7583C22.7707 45.098 22.5737 45.5081 22.1366 45.6525C21.9476 45.7149 21.5382 45.7603 21.3581 45.6836Z" fill="#414141"/>
<path d="M27.8252 41.0085C27.5286 40.8254 24.8893 39.0958 24.7044 38.9873C24.6043 38.9334 24.6368 38.9269 24.6977 38.8055C24.9135 38.315 25.0587 37.7926 25.1286 37.2562C25.1789 36.8654 25.1762 36.4729 25.1459 36.0793C25.1175 35.7085 25.052 35.342 24.9504 34.986C24.8211 34.5323 24.634 34.1076 24.403 33.702C24.1451 33.2494 23.8166 32.8631 23.4537 32.5067C23.1748 32.2327 22.8594 32.0103 22.5264 31.817C22.0261 31.5246 21.4817 31.3273 20.9178 31.234C20.5636 31.1755 20.2061 31.1467 19.8484 31.1716C19.0877 31.2249 18.3674 31.4378 17.6974 31.8295C17.1688 32.1464 16.6958 32.5582 16.2992 33.0466C16.1981 33.1711 16.0541 33.4192 15.955 33.5449C15.8981 33.6171 14.9509 32.9636 13.6626 32.1529C13.7101 32.0639 13.7559 31.9912 13.8067 31.9135C13.8384 31.8649 13.8357 31.8281 13.7945 31.7897C13.7154 31.7151 13.6366 31.6401 13.5591 31.5637C13.3124 31.3203 13.2548 30.9975 13.4093 30.6803C13.4445 30.6077 13.5083 30.4369 13.6055 30.3129C13.6525 30.2528 13.7043 30.1981 13.7551 30.1421C14.0039 29.8685 14.4873 29.864 14.7469 30.1161C15.0611 30.4209 15.0198 30.35 15.2843 30.1342C15.5104 29.9501 15.7391 29.7704 15.9783 29.6055C16.1071 29.5168 16.1154 29.4739 16.0502 29.3252C15.9777 29.1595 15.9124 28.9927 15.9264 28.8033C15.9437 28.5695 16.0331 28.3694 16.2127 28.2395C16.4693 28.0542 16.7416 27.9017 17.0689 27.9112C17.3391 27.9193 17.5285 28.0621 17.6658 28.2962C17.7146 28.3804 17.7526 28.4725 17.7921 28.5626C17.8288 28.647 17.8882 28.6746 17.9713 28.6513C18.3218 28.5538 18.6768 28.4798 19.034 28.4184C19.1638 28.3961 19.19 28.3555 19.1951 28.2184C19.1974 28.1707 19.1974 28.123 19.1951 28.0754C19.1673 27.6394 19.4849 27.2733 19.8602 27.2481C20.0671 27.234 20.2745 27.2174 20.4799 27.2611C20.7819 27.3261 21.0793 27.6203 21.0493 28.0244C21.0452 28.0802 21.0481 28.1367 21.0493 28.1932C21.052 28.3593 21.0813 28.4 21.2356 28.4234C21.5699 28.4732 21.9009 28.5451 22.2268 28.6386C22.3993 28.6887 22.426 28.6706 22.4979 28.499C22.5541 28.3647 22.6105 28.2301 22.71 28.1223C22.9111 27.9051 23.1613 27.87 23.4219 27.9313C23.6284 27.9799 23.8223 28.0795 24.0001 28.2027C24.2896 28.4036 24.3952 28.7643 24.2774 29.1152C24.2529 29.1884 24.2234 29.2599 24.1925 29.3306C24.1315 29.4692 24.1419 29.5198 24.2633 29.6016C24.5184 29.7716 24.7639 29.9571 24.9988 30.1572C25.2563 30.378 25.2103 30.4116 25.4943 30.1382C25.743 29.8989 26.127 29.8703 26.3538 30.0344C26.5837 30.2002 26.7836 30.4094 26.9164 30.6709C27.0345 30.904 27.0186 31.3324 26.7834 31.5478C26.7128 31.6127 26.6503 31.6873 26.5846 31.7583C26.5279 31.8201 26.5202 31.8875 26.5652 31.9579C26.7754 32.2873 26.9636 32.6319 27.1283 32.9894C27.1688 33.0771 27.2382 33.0994 27.3238 33.0707C27.4244 33.0361 27.5271 33.0088 27.6312 32.9888C27.9094 32.9369 28.2159 33.0668 28.3588 33.3266C28.4976 33.5782 28.5828 33.8544 28.5915 34.15C28.6009 34.4748 28.4489 34.6995 28.1884 34.849C28.1019 34.8975 28.0108 34.9359 27.9165 34.9636C27.817 34.9938 27.7744 35.0581 27.7944 35.1662C27.8646 35.5536 27.8879 35.9457 27.911 36.3386C27.9171 36.4424 27.9644 36.4998 28.0626 36.5029C28.1359 36.5052 28.2081 36.5197 28.2806 36.5299C28.654 36.5818 28.9093 36.8909 28.9107 37.2926C28.9113 37.3705 28.9079 37.4483 28.9003 37.5256C28.8881 37.6477 28.847 37.8227 28.8148 37.937C28.7212 38.2697 28.4056 38.4518 28.0801 38.4299C27.9746 38.4228 27.8699 38.4047 27.7645 38.3938C27.6679 38.3836 27.663 38.3849 27.6389 38.487C27.5666 38.7933 27.4878 39.0977 27.3844 39.3941C27.3362 39.5319 27.2866 39.6693 27.2322 39.8043C27.2077 39.8643 27.218 39.9011 27.2702 39.9323C27.3729 39.9941 27.4766 40.0546 27.5756 40.1229C27.8399 40.3047 27.9491 40.6357 27.8529 40.9514C27.8451 40.9712 27.8358 40.9903 27.8252 41.0085Z" fill="#666059"/>
<path d="M17.0617 34.1806C17.1839 34.0248 17.2998 33.8629 17.4335 33.7168C18.0645 33.0273 18.8267 32.6224 19.7268 32.5147C20.5229 32.4194 21.2781 32.5667 21.9757 32.9841C23.0496 33.6269 23.69 34.6065 23.8921 35.8977C24.0095 36.6479 23.9206 37.38 23.6405 38.0831C23.6247 38.1229 23.6135 38.1646 23.6002 38.2053C23.6306 38.273 23.6011 38.3311 23.5744 38.3898C23.4386 38.6886 23.2599 38.9567 23.0531 39.2019C22.4584 39.9074 21.7305 40.375 20.8471 40.5368C19.6745 40.7513 18.6166 40.4628 17.6969 39.6564C16.951 39.0022 16.5014 38.1553 16.3568 37.1399C16.2441 36.3495 16.3378 35.5793 16.6458 34.8437C16.7203 34.6654 16.811 34.4969 16.9023 34.3278C16.9395 34.2575 16.9881 34.2049 17.0617 34.1806Z" fill="#EDAE50"/>
<path d="M17.7409 36.51C17.7208 35.0533 18.8923 33.9433 20.135 33.9366C21.3538 33.9299 22.5701 34.9622 22.5722 36.523C22.5743 37.9719 21.4686 39.0731 20.1781 39.0873C18.7723 39.1027 17.7152 37.8688 17.7409 36.51Z" fill="#45423D"/>
<path d="M22.5294 34.1341C22.5495 34.3489 22.2964 34.5175 22.1205 34.3933C22.0012 34.3091 21.8885 34.2233 21.7939 34.111C21.6577 33.9498 21.6888 33.7823 21.8692 33.6769C22.0027 33.5989 22.1274 33.5934 22.2508 33.7053C22.3376 33.7838 22.4218 33.8632 22.4841 33.9657C22.5157 34.0153 22.5314 34.0742 22.5294 34.1341Z" fill="#FCD38C"/>
<path d="M18.2286 36.5268C18.1987 35.4745 19.0004 34.4481 20.1641 34.4527C21.2512 34.4573 22.0998 35.3846 22.0889 36.5444C22.0783 37.6876 21.187 38.5841 20.1278 38.5702C19.0294 38.5558 18.199 37.5727 18.2286 36.5268Z" fill="#EDAE50"/>
<path d="M20.1509 37.3524C19.7179 37.3524 19.3569 36.9694 19.3601 36.5079C19.363 36.0532 19.6942 35.6727 20.1559 35.6675C20.5771 35.6631 20.9448 36.0333 20.9425 36.5151C20.9403 36.9844 20.5935 37.3529 20.1509 37.3524Z" fill="#414141"/>
<path d="M21.0669 35.1182C21.1123 35.1182 21.1568 35.1234 21.1953 35.1506C21.3633 35.2691 21.4532 35.4338 21.4473 35.6504C21.4441 35.7617 21.2939 35.8788 21.1916 35.8541C21.0185 35.8123 20.8774 35.7211 20.7811 35.5571C20.6977 35.4153 20.7142 35.2965 20.8391 35.1962C20.9067 35.1424 20.9839 35.1205 21.0669 35.1182Z" fill="#FCD38C"/>
<path d="M17.0617 34.1814C16.9357 34.3936 16.8137 34.6076 16.7162 34.8371C16.5525 35.2245 16.4461 35.6364 16.4009 36.0584C16.341 36.5905 16.3824 37.1299 16.5226 37.6447C16.6628 38.1593 16.8991 38.6388 17.2173 39.0544C17.7009 39.6859 18.3104 40.1209 19.0406 40.3636C19.4639 40.5044 19.8996 40.5689 20.3411 40.5379C21.4958 40.4567 22.4376 39.9337 23.1572 38.9658C23.3083 38.7617 23.4387 38.5412 23.5461 38.3078C23.5622 38.2731 23.5821 38.2404 23.6002 38.2068C23.7006 38.2568 24.4817 38.7934 24.6148 38.8924C24.6677 38.9314 24.6438 38.9835 24.6186 39.0309C24.4815 39.2916 24.3365 39.5469 24.1619 39.7817C23.7804 40.2952 23.3355 40.7329 22.8092 41.076C22.2983 41.4093 21.7371 41.646 21.1504 41.7758C20.6965 41.8776 20.2368 41.8927 19.7784 41.8623C19.1686 41.8224 18.5843 41.6581 18.028 41.3837C17.6469 41.1978 17.2899 40.9608 16.9653 40.6786C16.3272 40.1191 15.8321 39.4434 15.5118 38.6273C15.3071 38.1034 15.1792 37.5493 15.1324 36.9842C15.0591 36.1415 15.1846 35.3301 15.4636 34.5417C15.5658 34.253 15.7007 33.9821 15.8448 33.7159C15.8589 33.6898 15.8748 33.6638 15.8912 33.6396C15.9788 33.5071 15.9954 33.503 16.1256 33.5819C16.3443 33.7146 16.7648 33.992 16.9789 34.131C17.0075 34.1459 17.0352 34.1627 17.0617 34.1814Z" fill="#666059"/>
<path d="M23.8479 37.3674C23.9584 36.8445 23.9687 36.3033 23.8783 35.7762C23.788 35.249 23.5987 34.7466 23.3219 34.2988C22.8592 33.6641 22.2779 33.1295 21.6329 32.7994C21.2302 32.6149 20.7988 32.5121 20.3607 32.4963C19.204 32.4525 18.2124 32.8601 17.4048 33.7459C17.2777 33.8877 17.1584 34.0372 17.0475 34.1936C16.9524 34.133 16.0774 33.6583 15.9545 33.5453C15.9056 33.5003 16.287 33.0406 16.4831 32.8258C16.9116 32.3562 17.3959 31.9683 17.9525 31.6842C18.4733 31.3984 19.0686 31.2351 19.6693 31.1671C20.1299 31.1142 20.595 31.1272 21.0524 31.206C21.6551 31.3117 22.2109 31.5611 22.7379 31.8946C23.0994 32.1206 23.4321 32.395 23.7281 32.7107C24.3095 33.3362 24.7376 34.062 24.9787 34.9084C25.1324 35.4518 25.2067 36.017 25.1994 36.5843C25.1915 37.4306 24.9917 38.2083 24.7017 38.8346C24.6441 38.9588 24.6963 38.9556 24.5295 38.8346C24.3247 38.6786 23.8136 38.3531 23.5979 38.2058C23.5845 38.1949 23.7607 37.7843 23.8479 37.3674Z" fill="#45423D"/>
<path d="M18.4801 15.3085C18.3911 15.0077 18.3228 14.7008 18.248 14.3959C18.2282 14.3156 18.2504 14.294 18.3309 14.2732C22.7849 13.1211 28.2013 14.0015 30.9832 14.8977C31.424 15.066 31.8531 15.2615 32.2501 15.529C32.4223 15.6451 32.5858 15.7731 32.7142 15.9448C32.75 15.9918 32.7822 16.0418 32.8106 16.0941C32.8779 16.2216 32.893 16.3501 32.8296 16.4895C32.6831 16.8129 32.5237 17.129 32.3514 17.4379C32.2402 17.6391 32.1257 17.8382 32.0129 18.0385C31.9597 18.1356 31.9001 18.2286 31.8344 18.3166C31.7769 18.3737 31.7122 18.3462 31.6503 18.3314C31.3778 18.2664 31.1027 18.2156 30.8318 18.1447C30.8119 18.1395 30.7917 18.1484 30.7715 18.1492C30.4878 18.0514 30.1884 18.0403 29.9003 17.9672C29.8626 17.9576 29.8298 17.9819 29.7936 17.9755C29.3205 17.8776 28.8408 17.8283 28.3645 17.7586C28.197 17.734 28.024 17.7471 27.8616 17.6834C27.7995 17.6136 27.7883 17.5223 27.7675 17.4344C27.6474 16.9155 27.4914 16.412 27.2056 15.9648C27.1621 15.8969 27.1148 15.832 27.0653 15.7689C26.9166 15.579 26.7391 15.4661 26.4982 15.4325C25.8696 15.3446 25.24 15.2685 24.6087 15.2117C23.5583 15.1164 22.5065 15.1002 21.4542 15.1161C20.9348 15.1237 20.4159 15.1604 19.8975 15.208C19.4683 15.247 19.0401 15.2932 18.6131 15.3534C18.5601 15.3589 18.5145 15.3554 18.4801 15.3085Z" fill="#EDAE50"/>
<path d="M33.2503 24.3679C32.9544 24.3656 32.6585 24.3592 32.3628 24.3635C32.2685 24.3649 32.2476 24.3066 32.2271 24.2344C32.147 24.2084 32.1491 24.1304 32.1369 24.0655C32.0412 23.5655 31.9512 23.064 31.8471 22.5657C31.5913 21.3407 31.3037 20.1244 30.9539 18.9254C30.8936 18.7189 30.8288 18.5138 30.7699 18.3067C30.7519 18.2437 30.7177 18.1749 30.7757 18.1118C30.7971 18.0858 30.8256 18.0858 30.8537 18.0912C31.1829 18.1562 31.5119 18.2211 31.8352 18.3149C32.0475 18.9504 32.226 19.5971 32.3908 20.248C32.6147 21.1328 32.8069 22.0258 32.986 22.9218C33.0528 23.2565 33.2495 24.3595 33.2503 24.3679Z" fill="#45423D"/>
<path d="M18.4799 15.309C18.8689 15.2384 19.2616 15.1974 19.6541 15.1599C19.937 15.1329 20.2215 15.1156 20.5053 15.0949C21.2936 15.0367 22.0826 15.038 22.8714 15.052C23.4444 15.0623 24.0169 15.0947 24.589 15.1431C24.9699 15.1752 25.3503 15.2122 25.7298 15.2583C26.0486 15.2973 26.365 15.3536 26.6838 15.3977C26.787 15.4119 26.8646 15.4658 26.9383 15.5373C27.1922 15.7842 27.3715 16.0861 27.5124 16.4156C27.6799 16.8072 27.795 17.2166 27.8714 17.6388C27.8537 17.698 27.8081 17.6988 27.7623 17.6958C27.5596 17.6828 27.3566 17.6676 27.1547 17.6476C26.9766 17.6301 26.7978 17.6216 26.62 17.611C26.3365 17.5944 26.0526 17.5616 25.7676 17.5784C25.6577 17.585 25.5494 17.5555 25.4396 17.5537C25.2912 17.5514 25.245 17.5855 25.1934 17.732C24.8897 18.5955 24.6397 19.4769 24.42 20.3683C24.0805 21.7455 23.8215 23.1407 23.6037 24.5448C23.5454 24.92 23.4978 25.297 23.4458 25.6733C23.4351 25.75 23.4273 25.8284 23.3815 25.8943C23.3457 25.9325 23.3002 25.935 23.2565 25.923C23.0522 25.8668 22.8495 25.8042 22.6458 25.7465C22.6298 25.7428 22.615 25.7347 22.6025 25.7234C22.5902 25.7121 22.5806 25.6977 22.5746 25.6816C22.5418 25.5877 22.5624 25.4922 22.5757 25.3997C22.7832 23.8809 23.0375 22.3716 23.3718 20.8784C23.6083 19.8225 23.8777 18.7772 24.2229 17.7548C24.2751 17.6002 24.2459 17.5553 24.0932 17.5534C23.4881 17.5462 22.8839 17.5686 22.2791 17.5994C21.9751 17.615 21.6714 17.6282 21.3682 17.6552C21.3479 17.6552 21.3276 17.656 21.3071 17.6561C20.9907 17.6584 20.9833 17.6657 20.8835 17.979C20.3027 19.8003 19.8967 21.6672 19.583 23.5589C19.4893 24.1247 19.407 24.6924 19.3235 25.2599C19.316 25.3118 19.3106 25.3631 19.2797 25.4065C19.2505 25.4568 19.2021 25.4636 19.1535 25.4715C18.9012 25.5105 18.6473 25.5376 18.3961 25.585C18.3396 25.5958 18.2701 25.6087 18.2588 25.5117C18.3009 25.2127 18.3431 24.9136 18.3853 24.6145C18.4947 23.8366 18.6187 23.0614 18.7571 22.289C18.9386 21.2769 19.1463 20.2727 19.4028 19.2807C19.5249 18.8101 19.6511 18.3406 19.8047 17.8802C19.8584 17.7188 19.8581 17.7188 19.742 17.6073C19.4618 17.3375 19.1825 17.0666 18.9008 16.7985C18.8491 16.7501 18.8129 16.6859 18.7972 16.6145C18.7018 16.2212 18.6018 15.8293 18.5033 15.4367C18.4863 15.3967 18.4781 15.353 18.4799 15.309Z" fill="#45423D"/>
<path d="M18.4794 15.3071C18.4943 15.3483 18.5112 15.3889 18.5026 15.4349C18.4782 15.3961 18.4472 15.3579 18.4794 15.3071Z" fill="#A9A9A9"/>
<path d="M24.9473 26.6008C24.4792 26.3334 23.9885 26.1227 23.4867 25.9401C23.441 25.9235 23.3929 25.9112 23.3582 25.8713C23.4098 25.4905 23.4575 25.109 23.5138 24.7291C23.6441 23.8493 23.7962 22.9738 23.9702 22.1028C24.2352 20.7825 24.5524 19.4773 24.9692 18.2013C25.0359 17.997 25.1051 17.7937 25.1744 17.5906C25.2095 17.4879 25.2111 17.4874 25.3145 17.4906C25.8918 17.508 26.4689 17.5316 27.0453 17.57C27.3211 17.5883 27.5962 17.6153 27.8716 17.6385C28.3268 17.6849 28.7803 17.7446 29.2329 17.8128C29.4253 17.8418 29.6178 17.8687 29.8088 17.9064C29.9187 17.9531 29.9867 18.0424 30.053 18.1451C30.3051 18.5358 30.506 18.9576 30.6731 19.3923C30.8481 19.847 31.0081 20.3109 31.1161 20.7914C31.1586 20.9806 31.2189 21.165 31.2627 21.3534C31.4055 21.9739 31.5639 22.5902 31.6796 23.2177C31.7388 23.5396 31.8017 23.861 31.8797 24.1791C31.9005 24.2637 31.9349 24.3594 31.8325 24.4204C31.8215 24.4333 31.8125 24.4496 31.799 24.4572C31.6177 24.5592 31.4952 24.7253 31.3763 24.8946C31.1774 25.1772 30.9804 25.4613 30.7828 25.7449C30.7271 25.7708 30.6813 25.7493 30.6356 25.7146C30.3976 25.5333 30.1575 25.355 29.915 25.18C29.7918 25.0907 29.7822 25.0461 29.8649 24.9144C29.9824 24.7273 30.1085 24.5467 30.2295 24.3623C30.2761 24.2914 30.3259 24.2223 30.3639 24.1457C30.4324 24.0067 30.4072 23.868 30.302 23.7851C30.1967 23.7021 30.0655 23.7189 29.9645 23.8393C29.8371 23.9914 29.7367 24.1656 29.6278 24.333C29.2824 24.8625 28.9364 25.3916 28.5896 25.9203C28.557 25.97 28.5237 26.0196 28.5017 26.0762C28.451 26.2047 28.4863 26.3373 28.589 26.4087C28.6953 26.4824 28.8175 26.4679 28.9075 26.3582C29.0335 26.205 29.1332 26.0303 29.2428 25.8645C29.3126 25.7582 29.3822 25.6516 29.4543 25.547C29.5045 25.4743 29.5599 25.4634 29.6323 25.5128C29.8958 25.6931 30.1475 25.8914 30.4046 26.0813C30.4477 26.1133 30.49 26.1509 30.4883 26.2161C30.408 26.3555 30.3279 26.4951 30.2469 26.6341C30.2062 26.7038 30.1626 26.7717 30.1225 26.8419C29.9553 27.1326 29.9501 27.433 30.0942 27.7313C30.4824 28.5346 30.8857 29.3294 31.3408 30.0927C31.3975 30.1878 31.4585 30.2795 31.5153 30.374C31.6758 30.6399 31.9153 30.7466 32.1972 30.7555C32.469 30.7641 32.7403 30.7324 33.0111 30.707C33.0051 31.9097 32.6814 33.01 32.0756 34.0225C31.9908 34.1642 31.899 34.2247 31.7337 34.2195C31.2952 34.2056 30.856 34.2169 30.4172 34.2183C30.3284 34.2052 30.3316 34.1219 30.3194 34.0592C30.2674 33.8012 30.199 33.5482 30.1267 33.296C29.8492 32.3231 29.4468 31.3955 28.9309 30.5396C28.7641 30.2628 28.5781 30.0015 28.4034 29.7311C28.2411 29.5058 28.0662 29.2913 27.8855 29.0831C27.5637 28.7125 27.2298 28.3544 26.8642 28.0308C26.3356 27.5657 25.7693 27.1511 25.1721 26.792C25.0894 26.7392 24.9903 26.7062 24.9473 26.6008Z" fill="#B9E1E1"/>
<path d="M31.8036 24.4493C31.8374 24.3714 31.8344 24.2638 31.8168 24.1904C31.6627 23.5506 30.5732 19.0897 29.9571 18.1079C29.8824 17.989 29.8648 17.9574 29.8062 17.9053C30.0955 17.9292 30.3792 17.9941 30.6661 18.0368C30.688 18.0394 30.7091 18.0477 30.7275 18.0606C30.7459 18.0736 30.7611 18.091 30.7721 18.1115C31.1568 19.3545 31.4869 20.6136 31.7624 21.8889C31.9312 22.6661 32.1045 23.5012 32.2422 24.2854L32.2441 24.2905C32.2719 24.3451 32.279 24.33 32.1178 24.3515C32.0179 24.3651 31.8836 24.4126 31.8036 24.4493Z" fill="#DCF9FB"/>
<path d="M22.6015 25.6668C22.3511 25.6149 22.1008 25.558 21.8497 25.5124C21.5501 25.4584 21.248 25.4211 20.9447 25.4008C20.6577 25.3809 20.3731 25.3748 20.0855 25.3741C19.9239 25.3741 19.7602 25.3908 19.5977 25.3781C19.5312 25.3238 19.543 25.2502 19.5528 25.1763C19.6907 24.1184 19.851 23.0652 20.06 22.0192C20.2066 21.2826 20.3716 20.5511 20.5747 19.8303C20.7687 19.1417 20.9947 18.4653 21.3449 17.8452C21.3976 17.7518 21.406 17.6747 21.3501 17.5873C21.3887 17.5708 21.4297 17.5709 21.4701 17.569C22.3919 17.5245 23.3135 17.4763 24.2365 17.4853C24.2763 17.4853 24.3177 17.4753 24.3565 17.4964C24.3719 17.5429 24.3461 17.581 24.3327 17.6199C23.9258 18.8022 23.6183 20.0161 23.3534 21.2424C23.1288 22.2828 22.9422 23.331 22.7816 24.3845C22.7168 24.8115 22.6617 25.2395 22.6015 25.6668Z" fill="#B9E1E1"/>
<path d="M21.4326 17.5711C21.5976 17.5507 21.5819 17.5603 21.483 17.74C21.2158 18.2254 20.9909 18.7244 20.819 19.2509C20.7194 19.5562 20.6227 19.8642 20.5481 20.179C20.4666 20.5225 20.3704 20.862 20.2948 21.2073C20.2183 21.5568 20.1537 21.9089 20.0828 22.2597C20.0103 22.6189 19.9362 22.9778 19.8811 23.3403C19.7955 23.9034 19.713 24.4667 19.6334 25.0304C19.6172 25.1452 19.5966 25.2607 19.6 25.3781C19.5588 25.3978 19.2769 25.4287 19.2554 25.3781C19.274 25.1018 19.3227 24.8296 19.3629 24.5566C19.4624 23.8821 19.574 23.2097 19.6981 22.5397C19.9874 20.991 20.344 19.4606 20.8218 17.9649C20.8519 17.8709 20.8876 17.7786 20.9144 17.6836C20.93 17.6277 20.9611 17.6072 21.0111 17.6056C21.1256 17.5995 21.4122 17.5702 21.4326 17.5711Z" fill="#DCF9FB"/>
<path d="M36.6703 36.6202C36.3861 36.5969 36.0693 36.359 35.8431 36.9735C35.6183 37.5825 35.9488 37.8172 35.8989 37.7966C35.8743 37.7933 35.8495 37.7925 35.8248 37.7942C35.6386 37.7965 35.4461 37.7638 35.2604 37.7636C35.1945 37.7314 35.2101 37.6741 35.2211 37.6187C35.3146 37.1398 35.458 36.6736 35.6486 36.2285C35.9006 35.6449 36.2093 35.0982 36.5961 34.6019C37.1335 33.9127 37.7632 33.3417 38.4955 32.8982C39.2577 32.4364 40.0758 32.1508 40.9426 32.0264C41.3613 31.9663 41.7835 31.9439 42.2068 31.9755C42.3674 31.9874 42.4928 31.9177 42.5792 31.7769C42.6144 31.7196 42.6532 31.676 42.7135 31.6533C42.7833 31.6525 42.8467 31.684 42.9132 31.6997C43.0598 31.7347 43.0751 31.7291 43.1393 31.588C43.2432 31.3602 43.3508 31.1344 43.4848 30.9241C43.5179 30.9015 43.5453 30.8709 43.5652 30.8349C43.7391 30.5518 43.9614 30.3176 44.2226 30.1255C44.23 30.1218 44.2382 30.1205 44.2463 30.1214C44.3409 30.1214 44.3656 30.1981 44.3883 30.2732C44.4884 30.6026 44.6009 30.9264 44.74 31.2401C44.9705 31.7598 45.255 32.2405 45.6202 32.6646C45.6747 32.7279 45.7435 32.7844 45.7115 32.8874C45.5214 33.2427 45.3312 33.5978 45.1409 33.9529C45.113 34.0048 45.0821 34.0555 45.0525 34.1068C44.9996 34.1962 44.9399 34.2809 44.874 34.36C44.8569 34.3469 44.8388 34.3352 44.8198 34.3254C44.8089 34.3196 44.788 34.3001 44.7774 34.2939C44.5782 34.1786 44.6064 34.171 44.7056 33.9561C44.7679 33.8205 44.8003 33.6832 44.7609 33.5305C44.7454 33.4674 44.7178 33.4084 44.6798 33.3572C44.6418 33.306 44.5943 33.2638 44.5402 33.233C44.4128 33.1594 44.2806 33.0902 44.135 33.0577C43.9309 33.0125 43.7175 33.1133 43.6191 33.3097C43.5866 33.3746 43.5639 33.4443 43.5337 33.5106C43.4903 33.6071 43.4655 33.6206 43.3713 33.592C43.1207 33.516 42.8676 33.4539 42.6082 33.4231C42.5839 33.4201 42.5608 33.4102 42.5365 33.4078C42.4673 33.3991 42.4382 33.3559 42.4388 33.2847C42.4388 33.2156 42.4344 33.1461 42.4388 33.0769C42.4549 32.8152 42.2981 32.6382 42.0705 32.5903C41.9063 32.5558 41.7372 32.5581 41.5739 32.5972C41.3653 32.6471 41.2418 32.7827 41.2127 33.0129C41.2011 33.0983 41.1942 33.1844 41.1922 33.2708C41.191 33.3831 41.1838 33.3926 41.0771 33.4149C40.9454 33.4422 40.8127 33.463 40.681 33.4897C40.5453 33.5172 40.4109 33.5516 40.278 33.5927C40.1917 33.6196 40.1713 33.6089 40.1353 33.5231C40.1021 33.4442 40.0709 33.3645 40.0282 33.2905C39.9155 33.0956 39.7115 33.0056 39.5029 33.0628C39.3531 33.1044 39.2105 33.1714 39.0806 33.2613C38.8914 33.3912 38.8222 33.6365 38.9024 33.8679C38.9262 33.9366 38.9613 34.0008 38.9891 34.068C39.0243 34.1528 39.0212 34.1729 38.9514 34.2184C38.7048 34.379 38.4765 34.5664 38.2494 34.7558C38.183 34.8113 38.1649 34.812 38.1029 34.751C38.0475 34.6937 37.989 34.6401 37.9274 34.5906C37.7529 34.4563 37.5145 34.4546 37.3505 34.6019C37.236 34.7048 37.1278 34.8168 37.0462 34.9541C36.9227 35.162 36.9512 35.4089 37.1195 35.5778C37.1876 35.6461 37.1947 35.6513 37.3053 35.7317C37.1353 35.9125 36.8033 36.4007 36.7061 36.5929" fill="#414141"/>
<path d="M34.3958 37.7402C33.7124 37.7394 33.029 37.7387 32.3455 37.738C31.2593 37.738 30.1732 37.738 29.0868 37.738C28.8365 37.738 28.8323 37.7296 28.867 37.4681C28.8915 37.2777 28.8958 37.0876 28.7953 36.9143C28.687 36.7275 28.534 36.6076 28.3284 36.5741C28.2281 36.5566 28.1268 36.5458 28.0253 36.5414C27.9031 36.5376 27.8811 36.5053 27.8765 36.3742C27.8619 35.9507 27.8293 35.5297 27.7528 35.1123C27.7223 34.9473 27.7307 34.9334 27.8863 34.8877C28.0123 34.8507 28.1349 34.8049 28.2473 34.7331C28.5264 34.5543 28.6084 34.2489 28.5415 33.9351C28.511 33.7922 28.4645 33.6525 28.4194 33.5137C28.3022 33.1532 27.9919 32.9658 27.64 33.036C27.5194 33.06 27.4039 33.1009 27.2877 33.1398C27.1922 33.1723 27.1803 33.1691 27.136 33.0705C26.9512 32.6559 26.7332 32.2591 26.4843 31.8843C26.4375 31.8144 26.4401 31.7925 26.5112 31.7356C26.609 31.6568 26.6881 31.557 26.7787 31.4704C26.9968 31.2625 26.9928 30.8249 26.8624 30.6161C26.7395 30.4195 26.5838 30.2523 26.4143 30.1053C26.2013 29.9199 25.8274 29.9133 25.5904 30.1399C25.5089 30.2179 25.4162 30.2828 25.3441 30.3718C25.3009 30.4252 25.2609 30.4264 25.2097 30.3804C25.0889 30.2714 24.9669 30.1637 24.8416 30.0606C24.6452 29.8992 24.4385 29.7539 24.2289 29.6121C24.0473 29.4891 24.0557 29.5168 24.148 29.3132C24.1866 29.2321 24.2204 29.1487 24.2495 29.0632C24.3552 28.7305 24.2593 28.3659 23.9224 28.1841C23.777 28.1061 23.631 28.0257 23.4743 27.9804C23.2545 27.9167 23.0398 27.9284 22.8467 28.0811C22.7682 28.1438 22.7053 28.226 22.6635 28.3203C22.6114 28.4327 22.5657 28.5485 22.5158 28.662C22.4781 28.7477 22.4698 28.7531 22.3846 28.7246C22.058 28.6154 21.724 28.5408 21.3863 28.4839C21.3062 28.4708 21.2256 28.4579 21.1452 28.4457C21.0288 28.4277 21.0198 28.4181 21.0177 28.2881C21.0161 28.18 21.0165 28.0717 21.0177 27.9633C21.0205 27.6628 20.8712 27.4695 20.6296 27.3442C20.5601 27.3069 20.4841 27.2855 20.4064 27.2814C20.2239 27.2748 20.041 27.2624 19.8588 27.2944C19.5113 27.3562 19.2955 27.6143 19.2847 27.988C19.2821 28.083 19.2847 28.1783 19.2837 28.2738C19.282 28.4197 19.2763 28.424 19.1443 28.4465C18.7385 28.5147 18.334 28.5893 17.9397 28.7162C17.8457 28.7464 17.8344 28.7399 17.7914 28.6411C17.7505 28.547 17.7106 28.4523 17.6693 28.358C17.5068 27.9837 17.1301 27.8628 16.783 27.9975C16.6529 28.0475 16.526 28.1063 16.4029 28.1735C16.2011 28.2845 16.0679 28.4561 16.0244 28.7002C16.0018 28.8284 16.0132 28.9608 16.0571 29.0827C16.0949 29.1926 16.1451 29.2963 16.1925 29.4018C16.2327 29.4911 16.2282 29.5114 16.1513 29.561C15.8273 29.7701 15.5246 30.0108 15.2292 30.2626C15.1912 30.2948 15.1559 30.3316 15.1193 30.3648C15.056 30.4212 15.0367 30.4211 14.9727 30.3623C14.902 30.2974 14.829 30.2348 14.7628 30.1647C14.5133 29.9009 14.0461 29.9025 13.8038 30.1828C13.7324 30.2654 13.6643 30.3517 13.5911 30.4322C13.5024 30.5296 13.4965 30.5263 13.4056 30.4371C13.3284 30.3613 13.1465 30.1911 13.1335 30.1809C13.0122 30.0372 13.0172 30.0361 13.1399 29.8886C14.1836 28.6356 15.5068 27.6817 16.9876 27.1148C17.734 26.8289 18.5021 26.6426 19.2915 26.5703C19.7735 26.5276 20.258 26.5228 20.7407 26.5556C21.3944 26.5974 22.0424 26.7115 22.6739 26.8963C23.1921 27.047 23.696 27.2481 24.1794 27.4972C24.5097 27.6629 24.83 27.85 25.1387 28.0577C25.571 28.3489 25.9803 28.6771 26.3624 29.0392C26.728 29.3885 27.0712 29.7633 27.3899 30.1613C27.4331 30.2183 27.4736 30.2779 27.5111 30.3394C27.8093 30.6974 28.0485 31.0996 28.272 31.5111C28.7212 32.335 29.0573 33.2232 29.2701 34.1484C29.3444 34.4721 29.3938 34.8005 29.4487 35.1281C29.4964 35.4139 29.6936 35.5117 29.9354 35.3733C30.2388 35.1999 30.4314 34.7875 30.3874 34.4223C30.3778 34.3431 30.3263 34.2534 30.4063 34.1789C30.4696 34.141 30.5395 34.1442 30.6086 34.1438C30.975 34.1427 31.3407 34.1388 31.7066 34.1457C31.8577 34.1485 31.9589 34.0886 32.0399 33.9554C32.3425 33.4566 32.5731 32.9125 32.7239 32.3409C32.8427 31.8948 32.9282 31.4419 32.9572 30.9782C32.9607 30.9305 32.96 30.8827 32.9549 30.8352C32.9486 30.7788 32.9619 30.7325 33.011 30.703C33.0903 30.7014 33.264 30.6908 33.2718 30.69C33.5757 30.6709 33.5757 30.671 33.5763 30.9959C33.5763 31.2428 33.5749 31.4896 33.5771 31.7357C33.579 31.9613 33.6355 32.0309 33.8429 32.0865C34.3393 32.221 34.8417 32.2643 35.3539 32.236C35.5904 32.2231 35.8218 32.1778 36.0564 32.1581C36.105 32.1523 36.1526 32.1391 36.1977 32.1191C36.3402 32.061 36.3821 32.0022 36.3842 31.8374C36.3879 31.5303 36.3831 31.2232 36.3868 30.9161C36.3878 30.8489 36.3747 30.7755 36.4306 30.7212C36.5228 30.6458 36.6109 30.7034 36.6933 30.74C36.8969 30.831 37.0502 30.9926 37.1908 31.1673C37.4512 31.4909 37.6446 31.8605 37.828 32.2366C37.8441 32.2669 37.851 32.3017 37.8475 32.3363C37.841 32.4203 37.7836 32.4623 37.7254 32.5026C37.2455 32.8325 36.8147 33.2241 36.4184 33.6611C35.9639 34.1619 35.587 34.7218 35.2678 35.3271C34.897 36.03 34.6448 36.7792 34.4959 37.569C34.4831 37.6351 34.4958 37.729 34.3958 37.7402Z" fill="#45423D"/>
<path d="M34.3959 37.739C34.4268 37.5916 34.4562 37.4437 34.4886 37.2973C34.7542 36.0937 35.2644 35.0195 36.0011 34.0654C36.4902 33.4277 37.0703 32.8757 37.7203 32.4293C37.7577 32.4033 37.7989 32.3825 37.822 32.3384C37.8512 32.2863 40.068 30.769 42.5471 31.2566C42.6946 31.3706 42.712 31.5897 42.6319 31.7884C42.5535 31.9822 42.4076 32.0433 42.1737 32.0374C41.9579 32.0318 41.7425 32.0194 41.5277 32.0319C41.1664 32.0512 40.807 32.0998 40.4528 32.1772C39.4822 32.3936 38.5982 32.8131 37.805 33.446C36.8784 34.1855 36.1791 35.1208 35.6989 36.2411C35.5043 36.6987 35.3577 37.1778 35.2617 37.6694C35.2559 37.6989 35.1762 38.1743 35.1518 38.384C35.1295 38.5789 35.0418 38.7149 34.865 38.7791C34.6052 38.8735 34.3276 38.6719 34.322 38.38C34.3189 38.2329 34.3486 38.0884 34.3695 37.9433C34.3778 37.8859 34.3868 37.7485 34.3959 37.739Z" fill="#A19D98"/>
<path d="M32.2811 36.7269C31.8379 36.7269 31.3946 36.7284 30.9514 36.7264C30.7437 36.7253 30.5933 36.6175 30.5077 36.4197C30.422 36.222 30.4484 36.03 30.5728 35.8583C30.6715 35.7226 30.8127 35.6704 30.9696 35.6652C31.0753 35.6616 31.1811 35.6637 31.2872 35.6638C32.0354 35.6644 32.7836 35.6648 33.5318 35.6654C33.6736 35.6654 33.8056 35.6913 33.918 35.7937C34.0731 35.9354 34.1362 36.1649 34.0717 36.3694C34.0401 36.473 33.9786 36.5635 33.8959 36.6279C33.8132 36.6922 33.7136 36.7272 33.6111 36.7277C33.1678 36.7302 32.7247 36.7285 32.2815 36.7285L32.2811 36.7269Z" fill="#FCBE4F"/>
<path d="M18.2569 25.509C18.2845 25.5325 18.3163 25.5331 18.3489 25.5263C18.6261 25.4685 18.9067 25.4354 19.1873 25.4044C19.2117 25.4015 19.1996 25.402 19.2688 25.3949C20.2545 25.317 21.5684 25.3744 22.6016 25.6647C22.8294 25.7317 23.059 25.7816 23.287 25.8481C23.3104 25.8495 24.4265 26.2837 24.8601 26.5316C24.8989 26.5611 24.9179 26.5767 24.9456 26.5994C24.9634 26.8121 24.9013 26.9719 24.7845 27.117C24.6219 27.3193 24.4071 27.4642 24.1667 27.5562C23.8576 27.4132 23.5497 27.2668 23.2304 27.1496C22.6654 26.942 22.0833 26.7915 21.4918 26.6999C20.9765 26.6219 20.4559 26.5884 19.9354 26.6C19.3214 26.6108 18.71 26.6891 18.1108 26.8332C16.2514 27.2774 14.5656 28.319 13.2816 29.8169C13.2405 29.8649 13.1987 29.9121 13.1575 29.9598C13.0721 30.0595 13.0347 30.1243 12.9716 30.2036C12.8669 30.3356 12.7651 30.4703 12.6631 30.6048C12.4249 30.9185 12.0063 30.9355 11.7455 30.6066C11.5691 30.3837 11.5989 30.0479 11.7425 29.8362C11.8992 29.6097 12.0667 29.392 12.2443 29.1837C12.4258 28.9677 12.6026 28.7471 12.8016 28.5488C13.0804 28.271 13.3581 27.991 13.6614 27.7432C14.697 26.8972 15.8322 26.2519 17.0831 25.8446C17.4137 25.7366 17.7495 25.6474 18.089 25.5774C18.1489 25.5655 18.2117 25.5609 18.2569 25.509Z" fill="#EDAE50"/>
<path d="M28.4376 29.6925C28.7407 30.0739 28.9873 30.4962 29.2255 30.9242C29.5056 31.4276 29.7384 31.9555 29.9357 32.5015C30.1167 33.0028 30.2731 33.5117 30.3772 34.0379C30.3894 34.0972 30.4042 34.1549 30.4178 34.2144C30.445 34.3758 30.4762 34.5355 30.4431 34.7019C30.375 35.0431 30.2152 35.3102 29.91 35.459C29.6543 35.5836 29.4324 35.4533 29.3907 35.1572C29.2806 34.3777 29.1011 33.6166 28.8274 32.8822C28.5036 32.0136 28.0792 31.2063 27.5395 30.4672C27.5151 30.4333 27.4921 30.3974 27.4685 30.3625C27.5269 30.1563 27.6479 29.9895 27.7644 29.8181C27.8297 29.7218 27.9308 29.7376 28.0151 29.7094C28.1514 29.6637 28.2945 29.6265 28.4376 29.6925Z" fill="#EDAE50"/>
<path d="M28.3664 29.6756C27.6981 29.6182 27.4882 30.3194 27.4668 30.3633C27.1781 29.9894 26.8737 29.6313 26.5422 29.2992C25.8687 28.6223 25.1045 28.0554 24.2745 27.6171C24.2379 27.598 24.2025 27.5782 24.1665 27.5577C24.1977 27.5187 24.4727 27.4615 24.7019 27.129C24.8958 26.8478 24.9416 26.657 24.9455 26.6011C25.1642 26.6885 25.3552 26.8305 25.5537 26.9566C25.8966 27.1728 26.2264 27.4119 26.5407 27.6726C26.8249 27.9101 27.1006 28.1575 27.363 28.4233C27.5429 28.6052 27.7115 28.7978 27.8816 28.9886C28.0794 29.2105 28.2789 29.4337 28.4355 29.6934" fill="#FCD38C"/>
<path d="M45.7 32.884C45.6282 32.7565 45.5191 32.6632 45.4313 32.5492C44.9591 31.9366 44.6207 31.2469 44.3823 30.499C44.355 30.4131 44.3299 30.3263 44.3026 30.2403C44.2911 30.204 44.2824 30.1625 44.2335 30.1637C43.6317 29.6154 42.9052 29.3097 42.1937 28.975C41.1189 28.4698 39.9966 28.1226 38.8613 27.8167C37.9708 27.5767 37.0686 27.3988 36.1638 27.2341C36.0815 27.2192 35.9934 27.2119 35.9366 27.1303C35.9217 27.071 35.9217 27.0104 35.9216 26.95C35.9204 26.2342 35.9207 25.5183 35.9226 24.8025C35.9226 24.7245 35.9001 24.6349 35.9793 24.5771C36.1577 24.6238 36.3419 24.6238 36.5228 24.6506C36.8649 24.701 37.2092 24.7385 37.5506 24.7935C37.9928 24.8639 38.4364 24.9265 38.875 25.0201C39.178 25.085 39.4825 25.1397 39.7848 25.2083C40.139 25.2887 40.4932 25.3701 40.843 25.4647C41.4262 25.6223 42.0092 25.7823 42.5775 25.9949C42.8037 26.0796 43.0281 26.1708 43.2571 26.246C43.4905 26.3224 43.6735 26.4749 43.8475 26.6466C44.2262 27.0201 44.6038 27.3948 44.9694 27.783C45.2136 28.0428 45.4592 28.3008 45.692 28.5725C45.793 28.6903 45.9047 28.798 46.0096 28.9124C46.1911 29.1107 46.3601 29.3213 46.546 29.5154C46.6953 29.6714 46.7836 29.8676 46.7945 30.0924C46.81 30.4081 46.8005 30.7214 46.7251 31.032C46.5863 31.6036 46.3303 32.1078 45.9833 32.5637C45.8963 32.6771 45.8064 32.7888 45.7 32.884Z" fill="#EDAE50"/>
<path d="M30.487 26.213L29.646 25.5924C29.6321 25.5835 29.6188 25.5735 29.6065 25.5624C29.5556 25.5103 29.525 25.5342 29.4929 25.5883C29.4452 25.6686 29.3917 25.7451 29.3405 25.8229C29.2189 26.0068 29.0998 26.1925 28.9748 26.3737C28.8821 26.5082 28.7643 26.5496 28.6344 26.5063C28.4397 26.4414 28.3519 26.2185 28.4483 26.0257C28.4786 25.9648 28.5187 25.9095 28.5559 25.8528C28.9836 25.2006 29.4117 24.5485 29.84 23.8966C29.8669 23.8534 29.8965 23.8121 29.9286 23.7732C30.0404 23.6453 30.2096 23.6253 30.3377 23.7212C30.4001 23.7676 30.4441 23.8368 30.4615 23.9155C30.4787 23.9943 30.4682 24.0771 30.4317 24.148C30.3937 24.224 30.3449 24.294 30.2984 24.3648C30.1656 24.5667 30.0316 24.7676 29.8979 24.9688C29.8447 25.0491 29.8436 25.0508 29.9196 25.1073C30.2063 25.3199 30.4935 25.5318 30.7809 25.7432L30.487 26.213Z" fill="#45423E"/>
<path d="M33.9549 24.4181C33.9942 24.4476 33.9915 24.4925 33.9915 24.535C33.9926 25.2937 33.9926 26.0521 33.9915 26.8106C33.9926 26.8366 33.9884 26.8623 33.9793 26.8864C33.929 26.9514 33.8571 26.9488 33.7893 26.949C33.5377 26.9503 33.2861 26.936 33.035 26.9308C32.3325 26.9147 31.6302 26.9244 30.9271 26.9259C30.8782 26.9259 30.8293 26.9288 30.784 26.9519C30.7572 26.9649 30.7329 26.9835 30.7367 27.0193C30.7404 27.055 30.7687 27.0661 30.7969 27.074C30.8167 27.0794 30.837 27.0819 30.8573 27.0814C31.2021 27.0734 31.5467 27.0886 31.8921 27.0657C32.2238 27.0435 32.557 27.0502 32.8902 27.0715C33.1775 27.0898 33.4657 27.0976 33.7536 27.1085C33.827 27.1113 33.9001 27.1059 33.9655 27.1523C33.998 27.3262 34.0491 27.4982 34.0143 27.6791C34.0135 27.6957 34.009 27.7118 34.0014 27.7262C33.9476 27.7943 33.864 27.7957 33.7942 27.8266C33.6622 27.8851 33.5964 27.9805 33.6006 28.1356C33.6195 28.844 33.567 29.5516 33.5761 30.26C33.5773 30.3421 33.5788 30.424 33.5874 30.5058C33.6058 30.6827 33.5599 30.741 33.3919 30.7591C33.3475 30.7638 33.3028 30.7653 33.2576 30.7664C33.1795 30.7676 33.1015 30.768 33.0236 30.7615C32.7953 30.7995 32.564 30.8021 32.3339 30.8188C31.9073 30.8493 31.5938 30.6646 31.3716 30.2732C31.0629 29.7299 30.7518 29.1886 30.4694 28.6292C30.3427 28.3781 30.2251 28.1224 30.0917 27.8748C29.8773 27.477 29.875 27.0882 30.1255 26.7075C30.2347 26.5416 30.3144 26.3546 30.4449 26.2044C30.5174 26.0233 30.6346 25.8726 30.74 25.7137C30.9816 25.3346 31.2367 24.9659 31.5114 24.6131C31.5952 24.5053 31.7119 24.439 31.8195 24.3617C31.962 24.3206 32.479 24.3097 32.6102 24.3052C32.7591 24.2998 32.9084 24.303 33.0575 24.3052C33.1285 24.3057 33.8181 24.3455 33.9549 24.4181Z" fill="#EDAE50"/>
<path d="M42.7165 31.7112C42.6705 31.6841 42.6419 31.6462 42.645 31.5866C42.6544 31.4048 42.5437 31.3151 42.4084 31.2481C42.2281 31.1781 40.8546 31.0409 39.4891 31.5453C39.0089 31.7107 38.5458 31.9171 38.1101 32.1902C38.0299 32.2407 37.941 32.2748 37.8658 32.3353C37.8551 32.3436 37.835 32.3382 37.8192 32.3393C37.7123 32.1764 37.6413 31.9919 37.5449 31.8227C37.3954 31.5608 37.2373 31.3066 37.0355 31.0858C36.8767 30.9124 36.697 30.7795 36.4697 30.7308C36.4072 30.7358 36.3979 30.6873 36.3902 30.6399C36.3835 30.5842 36.3811 30.5279 36.3831 30.4718C36.3831 30.0788 36.3765 29.6856 36.3847 29.2928C36.3923 28.921 36.3524 28.551 36.3572 28.1796C36.359 28.0383 36.2961 27.9423 36.174 27.8874C36.1254 27.8655 36.078 27.8403 36.0324 27.8121C35.9976 27.7902 35.9599 27.7677 35.9752 27.7122L35.9798 27.4312C36.0203 27.3716 36.0751 27.3801 36.1338 27.3894C36.8097 27.4976 37.4809 27.6311 38.1475 27.7902C38.9489 27.983 39.7457 28.1946 40.5261 28.4705C41.1513 28.6913 41.7701 28.9315 42.3694 29.2253C42.6535 29.3647 42.9435 29.4928 43.203 29.6817C43.3008 29.7527 43.3793 29.8472 43.4536 29.9456C43.6304 30.1794 43.5857 30.451 43.5692 30.7171C43.5642 30.8002 43.527 30.8774 43.5204 30.961C43.3674 31.2085 43.2368 31.4708 43.1304 31.7444C43.1087 31.8014 43.0794 31.8224 43.0187 31.8006C42.9203 31.765 42.8178 31.7407 42.7165 31.7112Z" fill="#EDAE50"/>
<path d="M43.5239 30.9614C43.4898 30.8918 43.4952 30.8167 43.5079 30.7454C43.5345 30.5951 43.525 30.4439 43.525 30.2929C43.525 30.1449 43.4482 30.0301 43.3639 29.9246C43.258 29.7929 43.1283 29.6852 42.9825 29.6077C42.3004 29.239 41.5942 28.9322 40.8716 28.6657C40.3493 28.4729 39.8225 28.297 39.2872 28.1512C38.6105 27.967 37.9314 27.7971 37.2439 27.6576C36.8489 27.5775 36.451 27.5175 36.0557 27.4393C36.0319 27.4347 36.0068 27.4339 35.9832 27.4311C35.9832 27.3358 35.9832 27.2408 35.9832 27.146C36.226 27.1706 36.4649 27.2219 36.7046 27.2678C37.0162 27.3274 37.3273 27.3906 37.6378 27.4578C37.9639 27.5288 38.2901 27.5977 38.6124 27.6888C38.8595 27.7584 39.1094 27.8177 39.357 27.8863C39.9628 28.0542 40.5612 28.247 41.1524 28.4649C41.6326 28.6418 42.0969 28.8611 42.5639 29.0732C43.0082 29.2757 43.4392 29.5102 43.8536 29.7747C43.9752 29.852 44.0869 29.9469 44.2017 30.0359C44.2425 30.0675 44.2789 30.1055 44.2349 30.1644C44.0799 30.3104 43.9202 30.4502 43.7829 30.6167C43.6914 30.7275 43.6106 30.8464 43.5239 30.9614Z" fill="#FCD38C"/>
<path d="M33.9542 26.886L33.955 27.1709C33.1417 27.0999 31.6257 27.0999 30.8604 27.1457C30.8023 27.1426 30.7443 27.1363 30.6869 27.1266C30.6441 27.1163 30.5782 27.0578 30.5794 27.0211C30.5813 26.9538 30.6177 26.9213 30.6649 26.8964C30.7238 26.865 30.8026 26.8591 30.8689 26.8591C31.6011 26.8591 32.3335 26.8473 33.0652 26.8661C33.3613 26.8736 33.6579 26.8783 33.9542 26.886Z" fill="#FCD38C"/>
<path d="M46.5069 30.3422C46.5109 30.6216 46.458 30.8788 46.3828 31.1313C46.2502 31.5783 46.0337 31.9771 45.7584 32.341C45.7026 32.415 45.6996 32.4152 45.6412 32.3421C45.3734 32.0074 45.1592 31.6361 44.9757 31.2436C44.8376 30.9487 44.7246 30.6431 44.6235 30.3324C44.5922 30.2361 44.5958 30.2188 44.6865 30.1694C45.0035 29.9963 45.3357 29.8734 45.6901 29.8197C45.8515 29.7951 46.0143 29.7955 46.1757 29.7745C46.1919 29.7729 46.2083 29.7725 46.2245 29.7734C46.3781 29.7764 46.4022 29.7971 46.4598 29.9459C46.511 30.0785 46.51 30.2159 46.5069 30.3422Z" fill="#FEFEFE"/>
<path d="M35.9662 24.6415C35.9662 25.4673 35.9753 27.2788 35.9941 27.7869C35.9489 27.8483 35.89 27.8259 35.8369 27.8098C35.2643 27.6319 34.6877 27.6584 34.1095 27.7708C34.0607 27.7802 34.0133 27.7931 33.9721 27.7505L33.9691 27.7548C33.9423 27.7158 33.9691 23.6799 33.9656 23.4216C33.964 23.3106 33.9815 23.21 34.0334 23.1125C34.0971 22.9928 34.1527 22.8682 34.212 22.7455C34.2202 22.7366 34.2312 22.7311 34.2429 22.73C34.9095 23.0328 35.4603 23.3843 35.9621 23.9303C35.9548 24.1277 35.9621 24.3917 35.9662 24.6415Z" fill="#414141"/>
<path d="M34.2448 22.6823H34.2348L34.2251 22.6803C34.2732 22.5581 34.276 22.4299 34.2755 22.2998C34.274 21.911 34.28 21.5222 34.2764 21.1336C34.2753 20.9919 34.3154 20.8771 34.3986 20.7662C34.8091 20.2193 35.255 19.7037 35.7332 19.2231C36.0371 18.9175 36.3596 18.6336 36.7142 18.394C36.7815 18.4112 36.7527 18.4577 36.7375 18.4937C36.5201 19.0035 36.5509 19.538 36.6191 20.0687C36.6492 20.3025 36.7102 20.5436 36.8929 20.7153C36.906 20.7261 36.9146 20.7418 36.9174 20.759C36.9201 20.7764 36.9167 20.7943 36.9078 20.809C36.4949 21.013 36.1708 21.3301 35.8971 21.7106C35.8566 21.7667 35.8268 21.8261 35.8367 21.9002C35.8186 22.3634 35.8226 22.8261 35.8378 23.5882C35.8371 23.5963 35.8361 23.6046 35.8346 23.6126C35.7735 23.6566 35.7337 23.6069 35.6961 23.5729C35.533 23.4252 35.3746 23.2721 35.1988 23.1405C35.0067 22.9964 34.8096 22.862 34.5967 22.7549C34.4845 22.6988 34.3703 22.6608 34.2448 22.6823Z" fill="#A19D98"/>
<path d="M36.9799 18.3384C37.0623 18.3822 37.1042 18.4553 37.1252 18.5492C37.1783 18.7881 37.2135 19.031 37.23 19.2758C37.2587 19.6944 37.2018 20.0995 37.1034 20.5014C37.0829 20.585 37.0593 20.6676 37.0071 20.7366C36.9551 20.746 36.9391 20.706 36.9182 20.6677C36.6756 20.2244 36.6316 19.7407 36.6616 19.2424C36.6656 19.1742 36.6759 19.1058 36.6802 19.0369C36.694 18.7723 36.8009 18.5229 36.9799 18.3384Z" fill="#A19D98"/>
<path d="M36.2313 27.8381C36.3577 27.8971 36.42 27.9839 36.4251 28.145C36.4507 28.957 36.4437 29.769 36.4456 30.5809C36.4456 30.6329 36.4508 30.8493 36.4505 30.9095C36.4485 31.2463 36.4432 31.5833 36.4475 31.92C36.4491 32.0386 36.4028 32.1062 36.3066 32.149C35.5024 32.3829 34.4579 32.3713 33.7255 32.123C33.5606 32.0696 33.5165 32.0041 33.5152 31.8229C33.5135 31.5854 33.5152 31.3478 33.5152 31.1102C33.5152 31.0109 33.5169 30.9116 33.5152 30.8122C33.5135 30.7128 33.5396 29.173 33.5396 29.1255C33.5396 28.7626 33.5422 28.3996 33.5387 28.0369C33.5377 27.9227 33.5772 27.8541 33.6773 27.8065C34.8404 27.4156 35.4509 27.5293 36.2313 27.8381Z" fill="#A19D98"/>
<path d="M33.756 29.9749V28.2235C33.756 28.1932 33.7552 28.1629 33.756 28.1325C33.7585 28.0123 33.7682 27.9961 33.877 27.9538C34.2859 27.787 35.4818 27.629 36.12 28.077C36.2209 28.1334 36.237 28.191 36.2414 28.3272C36.2577 28.634 36.2291 30.9127 36.2302 31.7904C36.2302 31.8079 36.2302 31.8251 36.2302 31.8424C36.2272 31.9675 36.2193 31.9735 36.0998 31.9999C35.3554 32.1645 34.615 32.1427 33.8779 31.9478C33.7687 31.9191 33.7629 31.9163 33.7627 31.7906C33.7617 31.3884 33.7617 30.9861 33.7627 30.584C33.7627 30.3807 33.7627 30.1775 33.7627 29.9741L33.756 29.9749Z" fill="#45423D"/>
<path d="M34.2179 22.7072C34.2321 22.5962 34.2959 22.5845 34.4188 22.6153C34.5665 22.6619 34.7077 22.7291 34.839 22.815C35.1312 23.0005 35.4111 23.2047 35.6567 23.458C35.7116 23.5147 35.7752 23.562 35.8348 23.613C35.8431 23.6503 35.8621 23.684 35.889 23.7095C35.9667 23.7838 35.9771 23.8695 35.9614 23.9777C35.8325 23.9582 35.7601 23.8764 35.6783 23.7804C35.4566 23.5206 35.1973 23.3103 34.9225 23.1188C34.7532 23.0008 34.4941 22.8719 34.3059 22.7922C34.2414 22.7649 34.2104 22.7666 34.2179 22.7072Z" fill="#DCF9FB"/>
<path d="M36.981 18.3377C37.0244 18.3629 37.0523 18.3744 36.9404 18.4796C36.7991 18.6145 36.7054 18.9545 36.7149 19.5121C36.7241 19.8818 36.7286 20.2108 37.0081 20.736C36.9846 20.775 36.9536 20.8037 36.9082 20.8095C36.4349 20.3146 36.4807 18.7919 36.7144 18.3946C36.8113 18.288 36.868 18.2758 36.981 18.3377Z" fill="#DCF9FB"/>
</g>
</g>
<defs>
<clipPath id="clip0_6052_126968">
<rect width="59.4705" height="59.4705" fill="white" transform="translate(0.000244141)"/>
</clipPath>
</defs>
</svg>
