<svg width="21" height="21" viewBox="0 0 21 21" fill="none" xmlns="http://www.w3.org/2000/svg">
<g clip-path="url(#clip0_6198_123336)">
<path d="M6.29987 15.8494C9.33693 15.8494 11.799 13.3874 11.799 10.3504C11.799 7.31341 9.33693 4.85144 6.29987 4.85144C3.2628 4.85144 0.800781 7.31341 0.800781 10.3504C0.800781 13.3874 3.2628 15.8494 6.29987 15.8494Z" fill="white"/>
<path d="M14.871 15.5259C16.3897 15.5259 17.6208 13.2088 17.6208 10.3504C17.6208 7.49203 16.3897 5.17487 14.871 5.17487C13.3523 5.17487 12.1211 7.49203 12.1211 10.3504C12.1211 13.2088 13.3523 15.5259 14.871 15.5259Z" fill="white"/>
<path d="M19.0764 15.2025C19.7016 15.2025 20.2084 13.0301 20.2084 10.3504C20.2084 7.67065 19.7016 5.49829 19.0764 5.49829C18.4512 5.49829 17.9443 7.67065 17.9443 10.3504C17.9443 13.0301 18.4512 15.2025 19.0764 15.2025Z" fill="white"/>
</g>
<defs>
<clipPath id="clip0_6198_123336">
<rect width="20.7" height="20.6996" fill="white" transform="translate(0.155273)"/>
</clipPath>
</defs>
</svg>
