<svg width="96" height="27" viewBox="0 0 96 27" fill="none" xmlns="http://www.w3.org/2000/svg">
<path d="M8.41002 11.0722L13.485 5.99725L18.5625 11.0748L21.5155 8.12183L13.485 0.0913086L5.45705 8.11921L8.41002 11.0722ZM0.418701 13.1576L3.37167 10.2046L6.32465 13.1576L3.37167 16.1105L0.418701 13.1576ZM8.41002 15.2429L13.485 20.3179L18.5625 15.2403L21.5155 18.192L13.485 26.2238L5.45705 18.1959L5.45313 18.192L8.41002 15.2429ZM20.6453 13.1576L23.5982 10.2046L26.5512 13.1576L23.5982 16.1105L20.6453 13.1576ZM16.4797 13.1549H16.4823V13.1576L13.485 16.155L10.4915 13.1628L10.4862 13.1576L10.4915 13.1536L11.0154 12.6284L11.2702 12.3736L13.485 10.1602L16.481 13.1563L16.4797 13.1549Z" fill="white"/>
<path d="M32.2582 18.4414V6.74574H36.9411C37.8015 6.74574 38.5191 6.87328 39.094 7.12836C39.6689 7.38344 40.101 7.73751 40.3904 8.19057C40.6797 8.63981 40.8244 9.15759 40.8244 9.7439C40.8244 10.2008 40.733 10.6024 40.5503 10.9489C40.3675 11.2915 40.1162 11.5732 39.7964 11.7941C39.4804 12.0111 39.1188 12.1653 38.7114 12.2566V12.3709C39.1568 12.3899 39.5737 12.5155 39.9621 12.7478C40.3542 12.98 40.6721 13.3055 40.9158 13.7243C41.1594 14.1393 41.2812 14.6342 41.2812 15.2091C41.2812 15.8297 41.127 16.3836 40.8187 16.8709C40.5141 17.3545 40.0629 17.7371 39.4652 18.0188C38.8675 18.3005 38.1308 18.4414 37.2551 18.4414H32.2582ZM34.731 16.4198H36.7469C37.436 16.4198 37.9385 16.2884 38.2545 16.0257C38.5705 15.7592 38.7285 15.4052 38.7285 14.9635C38.7285 14.6399 38.6505 14.3544 38.4944 14.1069C38.3383 13.8595 38.1156 13.6653 37.8262 13.5244C37.5407 13.3836 37.1999 13.3131 36.804 13.3131H34.731V16.4198ZM34.731 11.6399H36.5641C36.903 11.6399 37.2037 11.5809 37.4664 11.4628C37.7329 11.341 37.9423 11.1697 38.0946 10.9489C38.2507 10.7281 38.3288 10.4635 38.3288 10.1551C38.3288 9.73248 38.1784 9.39173 37.8776 9.13284C37.5807 8.87396 37.1581 8.74451 36.6098 8.74451H34.731V11.6399ZM42.8446 18.4414V9.66966H45.2774V18.4414H42.8446ZM44.0667 8.53892C43.705 8.53892 43.3947 8.419 43.1358 8.17914C42.8807 7.93549 42.7532 7.64424 42.7532 7.3054C42.7532 6.97036 42.8807 6.68292 43.1358 6.44307C43.3947 6.19941 43.705 6.07758 44.0667 6.07758C44.4284 6.07758 44.7367 6.19941 44.9918 6.44307C45.2507 6.68292 45.3801 6.97036 45.3801 7.3054C45.3801 7.64424 45.2507 7.93549 44.9918 8.17914C44.7367 8.419 44.4284 8.53892 44.0667 8.53892ZM49.6589 13.3702V18.4414H47.2262V9.66966H49.5447V11.2173H49.6475C49.8417 10.7071 50.1672 10.3036 50.6241 10.0066C51.0809 9.70583 51.6349 9.55544 52.2859 9.55544C52.895 9.55544 53.4262 9.68869 53.8792 9.9552C54.3323 10.2217 54.6844 10.6024 54.9357 11.0974C55.187 11.5885 55.3126 12.1748 55.3126 12.8563V18.4414H52.8798V13.2903C52.8836 12.7535 52.7466 12.3347 52.4686 12.0339C52.1907 11.7293 51.8081 11.5771 51.3208 11.5771C50.9934 11.5771 50.704 11.6475 50.4527 11.7884C50.2053 11.9292 50.0111 12.1348 49.8702 12.4051C49.7332 12.6716 49.6628 12.9933 49.6589 13.3702ZM59.7313 18.607C59.1717 18.607 58.6729 18.5099 58.2351 18.3158C57.7973 18.1178 57.4508 17.8265 57.1957 17.442C56.9445 17.0537 56.8188 16.5702 56.8188 15.9915C56.8188 15.5042 56.9083 15.0949 57.0872 14.7637C57.2662 14.4324 57.5098 14.1659 57.8182 13.9642C58.1266 13.7624 58.4769 13.6101 58.869 13.5073C59.2649 13.4045 59.6799 13.3322 60.1139 13.2903C60.6241 13.237 61.0353 13.1875 61.3475 13.1418C61.6597 13.0923 61.8862 13.02 62.0271 12.9248C62.1679 12.8296 62.2384 12.6888 62.2384 12.5022V12.4679C62.2384 12.1063 62.1241 11.8264 61.8957 11.6285C61.6711 11.4305 61.3513 11.3315 60.9363 11.3315C60.4985 11.3315 60.1501 11.4286 59.8912 11.6227C59.6323 11.8131 59.461 12.053 59.3773 12.3423L57.1272 12.1596C57.2414 11.6265 57.466 11.1659 57.8011 10.7775C58.1361 10.3854 58.5682 10.0846 59.0974 9.87524C59.6304 9.66204 60.2472 9.55544 60.9477 9.55544C61.435 9.55544 61.9014 9.61255 62.3469 9.72676C62.7961 9.84098 63.194 10.018 63.5404 10.2579C63.8907 10.4977 64.1667 10.8061 64.3685 11.183C64.5703 11.5561 64.6711 12.0035 64.6711 12.525V18.4414H62.364V17.225H62.2955C62.1546 17.4991 61.9661 17.7409 61.7301 17.9503C61.494 18.1559 61.2104 18.3177 60.8792 18.4357C60.548 18.5499 60.1653 18.607 59.7313 18.607ZM60.428 16.9281C60.7859 16.9281 61.1019 16.8576 61.376 16.7168C61.6501 16.5721 61.8652 16.3779 62.0213 16.1343C62.1774 15.8906 62.2555 15.6146 62.2555 15.3062V14.3753C62.1793 14.4248 62.0746 14.4705 61.9414 14.5124C61.8119 14.5505 61.6654 14.5866 61.5017 14.6209C61.338 14.6514 61.1742 14.6799 61.0105 14.7066C60.8468 14.7294 60.6983 14.7503 60.5651 14.7694C60.2796 14.8113 60.0302 14.8779 59.817 14.9693C59.6038 15.0606 59.4382 15.1844 59.3201 15.3405C59.2021 15.4927 59.1431 15.6831 59.1431 15.9115C59.1431 16.2428 59.263 16.4959 59.5029 16.6711C59.7466 16.8424 60.0549 16.9281 60.428 16.9281ZM68.9913 13.3702V18.4414H66.5586V9.66966H68.8771V11.2173H68.9799C69.1741 10.7071 69.4996 10.3036 69.9565 10.0066C70.4133 9.70583 70.9673 9.55544 71.6183 9.55544C72.2274 9.55544 72.7586 9.68869 73.2116 9.9552C73.6647 10.2217 74.0168 10.6024 74.2681 11.0974C74.5194 11.5885 74.645 12.1748 74.645 12.8563V18.4414H72.2122V13.2903C72.216 12.7535 72.079 12.3347 71.801 12.0339C71.5231 11.7293 71.1405 11.5771 70.6532 11.5771C70.3258 11.5771 70.0364 11.6475 69.7851 11.7884C69.5377 11.9292 69.3435 12.1348 69.2026 12.4051C69.0656 12.6716 68.9952 12.9933 68.9913 13.3702ZM80.5257 18.6127C79.6272 18.6127 78.8543 18.4224 78.2071 18.0417C77.5637 17.6571 77.0688 17.1241 76.7223 16.4426C76.3797 15.7611 76.2083 14.9769 76.2083 14.0898C76.2083 13.1913 76.3816 12.4032 76.728 11.7255C77.0783 11.0441 77.5751 10.5129 78.2185 10.1322C78.8619 9.7477 79.6272 9.55544 80.5143 9.55544C81.2795 9.55544 81.9496 9.6944 82.5244 9.97233C83.0993 10.2503 83.5543 10.6405 83.8893 11.143C84.2244 11.6456 84.409 12.2357 84.4433 12.9134H82.1475C82.0828 12.4756 81.9115 12.1234 81.6336 11.8569C81.3594 11.5866 80.9997 11.4514 80.5542 11.4514C80.1773 11.4514 79.848 11.5542 79.5663 11.7598C79.2883 11.9616 79.0713 12.2566 78.9152 12.645C78.7591 13.0333 78.6811 13.5035 78.6811 14.0555C78.6811 14.6152 78.7572 15.0911 78.9095 15.4832C79.0656 15.8754 79.2845 16.1742 79.5663 16.3798C79.848 16.5854 80.1773 16.6882 80.5542 16.6882C80.8322 16.6882 81.0815 16.6311 81.3023 16.5169C81.527 16.4027 81.7116 16.237 81.8563 16.02C82.0048 15.7992 82.1019 15.5346 82.1475 15.2262H84.4433C84.4052 15.8963 84.2225 16.4864 83.895 16.9966C83.5714 17.5029 83.1241 17.8989 82.553 18.1844C81.9819 18.47 81.3061 18.6127 80.5257 18.6127ZM89.9984 18.6127C89.0961 18.6127 88.3195 18.43 87.6684 18.0645C87.0212 17.6952 86.5225 17.1736 86.1722 16.4997C85.8219 15.8221 85.6468 15.0207 85.6468 14.0955C85.6468 13.1932 85.8219 12.4013 86.1722 11.7198C86.5225 11.0383 87.0155 10.5072 87.6513 10.1265C88.2909 9.7458 89.0409 9.55544 89.9013 9.55544C90.48 9.55544 91.0188 9.64872 91.5175 9.83527C92.02 10.018 92.4579 10.294 92.831 10.6633C93.2079 11.0326 93.501 11.4971 93.7104 12.0568C93.9198 12.6126 94.0245 13.2636 94.0245 14.0098V14.678H86.6176V13.1704H91.7345C91.7345 12.8201 91.6584 12.5098 91.5061 12.2395C91.3538 11.9692 91.1425 11.7579 90.8722 11.6056C90.6057 11.4495 90.2954 11.3715 89.9413 11.3715C89.572 11.3715 89.2446 11.4571 88.9591 11.6285C88.6773 11.796 88.4565 12.0225 88.2966 12.308C88.1367 12.5898 88.0549 12.9039 88.0511 13.2503V14.6837C88.0511 15.1177 88.131 15.4927 88.2909 15.8087C88.4546 16.1247 88.6849 16.3684 88.9819 16.5397C89.2789 16.711 89.631 16.7967 90.0384 16.7967C90.3087 16.7967 90.5562 16.7586 90.7808 16.6825C91.0054 16.6063 91.1977 16.4921 91.3576 16.3398C91.5175 16.1876 91.6393 16.001 91.7231 15.7802L93.9731 15.9287C93.8589 16.4693 93.6248 16.9414 93.2707 17.3449C92.9204 17.7447 92.4674 18.0569 91.9115 18.2815C91.3595 18.5023 90.7218 18.6127 89.9984 18.6127Z" fill="white"/>
</svg>
