<svg width="101" height="25" viewBox="0 0 101 25" fill="none" xmlns="http://www.w3.org/2000/svg">
<path d="M14.1267 24.1257V14.2878C16.4724 14.5391 18.0642 15.6163 18.0642 15.6163L19.5602 13.9287C17.1067 12.1814 13.4684 12.1096 13.4684 12.1096L12.87 5.5031C13.2649 5.2398 13.5282 4.79698 13.5282 4.28234C13.5282 3.48047 12.87 2.82222 12.0681 2.82222C11.2662 2.82222 10.608 3.48047 10.608 4.28234C10.608 4.79698 10.8713 5.25177 11.2662 5.5031L10.6678 12.1096C10.6678 12.1096 7.02949 12.1694 4.57601 13.9287L6.07204 15.6163C6.07204 15.6163 7.66381 14.5391 10.0096 14.2878V24.1257C0.841918 17.3277 0.087919 7.45393 0.111855 4.17463C0.111855 3.49244 0.518775 2.87009 1.14112 2.59482C2.97226 1.78098 7.14918 0.189209 12.0562 0.189209C16.9631 0.189209 21.14 1.78098 22.9712 2.59482C23.5935 2.87009 24.0005 3.49244 24.0005 4.17463C24.0244 7.45393 23.2704 17.3277 14.1267 24.1257Z" fill="white"/>
<path d="M45.3369 10.0564H42.8355C42.7899 9.73282 42.6966 9.44538 42.5557 9.1941C42.4149 8.93902 42.234 8.72201 42.0132 8.54308C41.7924 8.36414 41.5373 8.22708 41.2479 8.1319C40.9624 8.03672 40.6521 7.98913 40.3171 7.98913C39.7118 7.98913 39.1845 8.13951 38.7352 8.44028C38.286 8.73724 37.9376 9.17126 37.6901 9.74234C37.4427 10.3096 37.3189 10.9987 37.3189 11.8096C37.3189 12.6434 37.4427 13.3439 37.6901 13.9112C37.9414 14.4785 38.2917 14.9068 38.7409 15.1961C39.1902 15.4855 39.7098 15.6301 40.3 15.6301C40.6312 15.6301 40.9377 15.5864 41.2194 15.4988C41.5049 15.4112 41.7581 15.2837 41.9789 15.1162C42.1997 14.9449 42.3825 14.7374 42.5272 14.4937C42.6756 14.25 42.7784 13.9721 42.8355 13.6599L45.3369 13.6714C45.2721 14.2082 45.1103 14.7259 44.8514 15.2247C44.5964 15.7196 44.2518 16.1632 43.8178 16.5553C43.3876 16.9436 42.8736 17.252 42.2759 17.4804C41.682 17.7051 41.01 17.8174 40.26 17.8174C39.2168 17.8174 38.2841 17.5813 37.4617 17.1092C36.6432 16.6371 35.9959 15.9538 35.52 15.0591C35.048 14.1644 34.8119 13.0812 34.8119 11.8096C34.8119 10.5342 35.0518 9.44919 35.5315 8.5545C36.0112 7.65981 36.6622 6.97832 37.4845 6.51004C38.3069 6.03795 39.232 5.8019 40.26 5.8019C40.9377 5.8019 41.5658 5.89708 42.1445 6.08744C42.727 6.2778 43.2429 6.55573 43.6922 6.92122C44.1414 7.2829 44.5069 7.72643 44.7886 8.25183C45.0742 8.77722 45.2569 9.37875 45.3369 10.0564ZM49.5657 17.8231C49.006 17.8231 48.5073 17.726 48.0695 17.5318C47.6316 17.3339 47.2852 17.0426 47.0301 16.6581C46.7788 16.2698 46.6532 15.7862 46.6532 15.2075C46.6532 14.7202 46.7427 14.311 46.9216 13.9797C47.1005 13.6485 47.3442 13.382 47.6526 13.1802C47.961 12.9784 48.3112 12.8262 48.7034 12.7234C49.0993 12.6206 49.5143 12.5482 49.9483 12.5064C50.4585 12.4531 50.8697 12.4036 51.1818 12.3579C51.494 12.3084 51.7206 12.236 51.8614 12.1409C52.0023 12.0457 52.0727 11.9048 52.0727 11.7183V11.684C52.0727 11.3223 51.9585 11.0425 51.7301 10.8445C51.5055 10.6465 51.1856 10.5476 50.7707 10.5476C50.3328 10.5476 49.9845 10.6446 49.7256 10.8388C49.4667 11.0292 49.2954 11.269 49.2116 11.5584L46.9616 11.3756C47.0758 10.8426 47.3004 10.3819 47.6354 9.99361C47.9705 9.60147 48.4026 9.3007 48.9318 9.09131C49.4648 8.87811 50.0816 8.77151 50.7821 8.77151C51.2694 8.77151 51.7358 8.82861 52.1812 8.94283C52.6305 9.05705 53.0283 9.23408 53.3748 9.47393C53.725 9.71378 54.0011 10.0222 54.2028 10.3991C54.4046 10.7722 54.5055 11.2195 54.5055 11.7411V17.6575H52.1984V16.4411H52.1298C51.989 16.7152 51.8005 16.9569 51.5645 17.1663C51.3284 17.3719 51.0448 17.5337 50.7136 17.6518C50.3823 17.766 49.9997 17.8231 49.5657 17.8231ZM50.2624 16.1441C50.6203 16.1441 50.9363 16.0737 51.2104 15.9328C51.4845 15.7881 51.6996 15.594 51.8557 15.3503C52.0118 15.1067 52.0899 14.8306 52.0899 14.5223V13.5914C52.0137 13.6409 51.909 13.6866 51.7758 13.7285C51.6463 13.7665 51.4997 13.8027 51.336 13.837C51.1723 13.8674 51.0086 13.896 50.8449 13.9226C50.6812 13.9455 50.5327 13.9664 50.3995 13.9854C50.1139 14.0273 49.8646 14.0939 49.6514 14.1853C49.4382 14.2767 49.2725 14.4004 49.1545 14.5565C49.0365 14.7088 48.9775 14.8992 48.9775 15.1276C48.9775 15.4588 49.0974 15.712 49.3373 15.8871C49.5809 16.0585 49.8893 16.1441 50.2624 16.1441ZM56.3929 17.6575V8.88572H58.7115V10.4333H58.8143C58.997 9.91937 59.3016 9.51391 59.728 9.21695C60.1544 8.91999 60.6646 8.77151 61.2585 8.77151C61.86 8.77151 62.3721 8.92189 62.7947 9.22266C63.2173 9.51962 63.499 9.92318 63.6399 10.4333H63.7313C63.9102 9.93079 64.2338 9.52914 64.7021 9.22837C65.1742 8.92379 65.7319 8.77151 66.3754 8.77151C67.1939 8.77151 67.8583 9.0323 68.3684 9.55388C68.8824 10.0717 69.1394 10.8064 69.1394 11.7582V17.6575H66.7123V12.2379C66.7123 11.7506 66.5828 11.3851 66.324 11.1415C66.0651 10.8978 65.7415 10.776 65.3531 10.776C64.9115 10.776 64.5669 10.9169 64.3195 11.1986C64.072 11.4765 63.9483 11.8439 63.9483 12.3008V17.6575H61.5897V12.1865C61.5897 11.7563 61.466 11.4137 61.2185 11.1586C60.9749 10.9035 60.6532 10.776 60.2534 10.776C59.9831 10.776 59.7394 10.8445 59.5224 10.9816C59.3092 11.1148 59.1398 11.3033 59.0142 11.5469C58.8885 11.7868 58.8257 12.0685 58.8257 12.3921V17.6575H56.3929ZM75.0586 17.8288C74.1563 17.8288 73.3796 17.646 72.7286 17.2806C72.0814 16.9113 71.5826 16.3897 71.2324 15.7158C70.8821 15.0381 70.707 14.2367 70.707 13.3116C70.707 12.4093 70.8821 11.6174 71.2324 10.9359C71.5826 10.2544 72.0757 9.7233 72.7115 9.34258C73.3511 8.96187 74.1011 8.77151 74.9615 8.77151C75.5402 8.77151 76.0789 8.86478 76.5776 9.05133C77.0802 9.23408 77.518 9.5101 77.8911 9.8794C78.268 10.2487 78.5612 10.7132 78.7706 11.2728C78.98 11.8287 79.0847 12.4797 79.0847 13.2259V13.8941H71.6778V12.3864H76.7947C76.7947 12.0362 76.7185 11.7259 76.5662 11.4556C76.4139 11.1853 76.2026 10.974 75.9323 10.8217C75.6658 10.6656 75.3555 10.5875 75.0015 10.5875C74.6322 10.5875 74.3048 10.6732 74.0192 10.8445C73.7375 11.012 73.5167 11.2386 73.3568 11.5241C73.1969 11.8058 73.115 12.1199 73.1112 12.4664V13.8998C73.1112 14.3338 73.1912 14.7088 73.3511 15.0248C73.5148 15.3408 73.7451 15.5845 74.0421 15.7558C74.339 15.9271 74.6912 16.0128 75.0986 16.0128C75.3689 16.0128 75.6163 15.9747 75.841 15.8986C76.0656 15.8224 76.2578 15.7082 76.4177 15.5559C76.5776 15.4036 76.6995 15.2171 76.7832 14.9963L79.0333 15.1447C78.9191 15.6854 78.6849 16.1574 78.3309 16.561C77.9806 16.9608 77.5275 17.2729 76.9717 17.4976C76.4197 17.7184 75.7819 17.8288 75.0586 17.8288ZM83.1051 5.96181V17.6575H80.6723V5.96181H83.1051ZM89.0171 17.8288C88.1301 17.8288 87.3629 17.6403 86.7157 17.2634C86.0723 16.8827 85.5755 16.3535 85.2252 15.6758C84.8749 14.9943 84.6998 14.2044 84.6998 13.3059C84.6998 12.3998 84.8749 11.6079 85.2252 10.9302C85.5755 10.2487 86.0723 9.71949 86.7157 9.34258C87.3629 8.96187 88.1301 8.77151 89.0171 8.77151C89.9042 8.77151 90.6695 8.96187 91.3129 9.34258C91.9601 9.71949 92.4588 10.2487 92.8091 10.9302C93.1594 11.6079 93.3345 12.3998 93.3345 13.3059C93.3345 14.2044 93.1594 14.9943 92.8091 15.6758C92.4588 16.3535 91.9601 16.8827 91.3129 17.2634C90.6695 17.6403 89.9042 17.8288 89.0171 17.8288ZM89.0286 15.9442C89.4321 15.9442 89.7691 15.83 90.0394 15.6016C90.3097 15.3694 90.5134 15.0534 90.6504 14.6536C90.7913 14.2538 90.8617 13.7989 90.8617 13.2887C90.8617 12.7786 90.7913 12.3236 90.6504 11.9239C90.5134 11.5241 90.3097 11.2081 90.0394 10.9759C89.7691 10.7436 89.4321 10.6275 89.0286 10.6275C88.6212 10.6275 88.2785 10.7436 88.0006 10.9759C87.7265 11.2081 87.519 11.5241 87.3782 11.9239C87.2411 12.3236 87.1726 12.7786 87.1726 13.2887C87.1726 13.7989 87.2411 14.2538 87.3782 14.6536C87.519 15.0534 87.7265 15.3694 88.0006 15.6016C88.2785 15.83 88.6212 15.9442 89.0286 15.9442ZM99.5821 8.88572V10.7132H94.2996V8.88572H99.5821ZM95.4989 6.78416H97.9317V14.962C97.9317 15.1866 97.9659 15.3617 98.0345 15.4874C98.103 15.6092 98.1982 15.6949 98.32 15.7444C98.4456 15.7939 98.5903 15.8186 98.754 15.8186C98.8682 15.8186 98.9824 15.8091 99.0967 15.79C99.2109 15.7672 99.2984 15.7501 99.3594 15.7387L99.742 17.549C99.6201 17.587 99.4488 17.6308 99.228 17.6803C99.0072 17.7336 98.7388 17.766 98.4228 17.7774C97.8365 17.8002 97.3225 17.7222 96.8809 17.5433C96.4431 17.3643 96.1023 17.0864 95.8587 16.7095C95.615 16.3326 95.4951 15.8567 95.4989 15.2818V6.78416Z" fill="white"/>
</svg>
