<svg width="28" height="21" viewBox="0 0 28 21" fill="none" xmlns="http://www.w3.org/2000/svg">
<path d="M23.7897 2.26103C21.4007 0.340591 17.6228 0.0154188 17.4626 0.00221989C17.2107 -0.0193783 16.9713 0.12341 16.8675 0.35439C16.8603 0.369389 16.7775 0.558373 16.6857 0.854148C18.2654 1.11993 20.2056 1.65748 21.9616 2.74699C22.243 2.92157 22.3294 3.29114 22.1548 3.57312C22.0414 3.7561 21.8453 3.85689 21.6443 3.85689C21.5363 3.85689 21.4271 3.82809 21.3287 3.7669C18.311 1.89506 14.5403 1.80027 13.8149 1.80027C13.0896 1.80027 9.31832 1.89506 6.30178 3.7669C6.0198 3.94209 5.65023 3.85509 5.47565 3.57372C5.30046 3.29174 5.38746 2.92217 5.66883 2.74759C7.42488 1.65868 9.36452 1.12052 10.9448 0.854747C10.8524 0.558973 10.7696 0.369989 10.763 0.35499C10.6592 0.12341 10.4204 -0.0223778 10.1673 0.00282008C10.0077 0.015419 6.22978 0.340591 3.80899 2.28803C2.5437 3.45613 0.0161133 10.2907 0.0161133 16.199C0.0161133 16.3034 0.043111 16.4054 0.0947066 16.496C1.83996 19.5612 6.59935 20.3639 7.68346 20.3981C7.69006 20.3987 7.69606 20.3987 7.70266 20.3987C7.89404 20.3987 8.07463 20.3075 8.18802 20.1521L9.28533 18.6444C6.32578 17.8789 4.81391 16.5812 4.72691 16.5038C4.47853 16.2848 4.45514 15.9057 4.67472 15.6573C4.8937 15.4089 5.27167 15.3855 5.52065 15.6039C5.55724 15.6363 8.34041 17.9989 13.8149 17.9989C19.2991 17.9989 22.0834 15.6273 22.111 15.6033C22.3594 15.3879 22.738 15.4095 22.9564 15.6597C23.1747 15.9081 23.1513 16.2854 22.9036 16.5038C22.816 16.5812 21.3041 17.8789 18.3446 18.6444L19.4419 20.1521C19.5553 20.3075 19.7358 20.3987 19.9272 20.3987C19.9338 20.3987 19.9398 20.3987 19.9458 20.3981C21.0311 20.3639 25.7899 19.5612 27.5346 16.496C27.5868 16.4054 27.6138 16.3034 27.6138 16.199C27.6138 10.2907 25.0862 3.45613 23.7897 2.26103ZM9.91527 13.7992C8.75557 13.7992 7.81545 12.7247 7.81545 11.3995C7.81545 10.0742 8.75557 8.99965 9.91527 8.99965C11.075 8.99965 12.0151 10.0742 12.0151 11.3995C12.0151 12.7247 11.075 13.7992 9.91527 13.7992ZM17.7146 13.7992C16.5549 13.7992 15.6148 12.7247 15.6148 11.3995C15.6148 10.0742 16.5549 8.99965 17.7146 8.99965C18.8743 8.99965 19.8144 10.0742 19.8144 11.3995C19.8144 12.7247 18.8743 13.7992 17.7146 13.7992Z" fill="white"/>
</svg>
