<svg width="99" height="27" viewBox="0 0 99 27" fill="none" xmlns="http://www.w3.org/2000/svg">
<path d="M44.017 18.4414V6.74574H46.4898V11.9026H46.644L50.8528 6.74574H53.8167L49.4765 11.9825L53.8681 18.4414H50.9099L47.7062 13.6329L46.4898 15.1177V18.4414H44.017ZM55.0588 18.4414V9.66966H57.4173V11.2001H57.5087C57.6686 10.6557 57.937 10.2445 58.3139 9.96662C58.6908 9.68489 59.1249 9.54402 59.616 9.54402C59.7378 9.54402 59.8692 9.55163 60.01 9.56686C60.1509 9.58209 60.2746 9.60303 60.3812 9.62968V11.7884C60.267 11.7541 60.109 11.7236 59.9072 11.697C59.7055 11.6703 59.5208 11.657 59.3533 11.657C58.9954 11.657 58.6756 11.7351 58.3939 11.8911C58.116 12.0434 57.8951 12.2566 57.7314 12.5308C57.5715 12.8049 57.4916 13.1209 57.4916 13.4787V18.4414H55.0588ZM63.8891 18.607C63.3294 18.607 62.8307 18.5099 62.3928 18.3158C61.955 18.1178 61.6086 17.8265 61.3535 17.442C61.1022 17.0537 60.9766 16.5702 60.9766 15.9915C60.9766 15.5042 61.066 15.0949 61.245 14.7637C61.4239 14.4324 61.6676 14.1659 61.976 13.9642C62.2843 13.7624 62.6346 13.6101 63.0267 13.5073C63.4227 13.4045 63.8377 13.3322 64.2717 13.2903C64.7819 13.237 65.193 13.1875 65.5052 13.1418C65.8174 13.0923 66.0439 13.02 66.1848 12.9248C66.3257 12.8296 66.3961 12.6888 66.3961 12.5022V12.4679C66.3961 12.1063 66.2819 11.8264 66.0535 11.6285C65.8288 11.4305 65.509 11.3315 65.094 11.3315C64.6562 11.3315 64.3079 11.4286 64.049 11.6227C63.7901 11.8131 63.6188 12.053 63.535 12.3423L61.285 12.1596C61.3992 11.6265 61.6238 11.1659 61.9588 10.7775C62.2939 10.3854 62.726 10.0846 63.2552 9.87524C63.7882 9.66204 64.4049 9.55544 65.1055 9.55544C65.5928 9.55544 66.0592 9.61255 66.5046 9.72676C66.9539 9.84098 67.3517 10.018 67.6982 10.2579C68.0484 10.4977 68.3244 10.8061 68.5262 11.183C68.728 11.5561 68.8289 12.0035 68.8289 12.525V18.4414H66.5217V17.225H66.4532C66.3123 17.4991 66.1239 17.7409 65.8878 17.9503C65.6518 18.1559 65.3682 18.3177 65.0369 18.4357C64.7057 18.5499 64.3231 18.607 63.8891 18.607ZM64.5858 16.9281C64.9437 16.9281 65.2597 16.8576 65.5338 16.7168C65.8079 16.5721 66.023 16.3779 66.1791 16.1343C66.3352 15.8906 66.4132 15.6146 66.4132 15.3062V14.3753C66.3371 14.4248 66.2324 14.4705 66.0991 14.5124C65.9697 14.5505 65.8231 14.5866 65.6594 14.6209C65.4957 14.6514 65.332 14.6799 65.1683 14.7066C65.0046 14.7294 64.8561 14.7503 64.7228 14.7694C64.4373 14.8113 64.1879 14.8779 63.9747 14.9693C63.7615 15.0606 63.5959 15.1844 63.4779 15.3405C63.3599 15.4927 63.3009 15.6831 63.3009 15.9115C63.3009 16.2428 63.4208 16.4959 63.6606 16.6711C63.9043 16.8424 64.2127 16.9281 64.5858 16.9281ZM72.9207 15.9172L72.9264 12.999H73.2804L76.0901 9.66966H78.8827L75.1079 14.0784H74.5311L72.9207 15.9172ZM70.7163 18.4414V6.74574H73.1491V18.4414H70.7163ZM76.1986 18.4414L73.6174 14.6209L75.2392 12.902L79.0483 18.4414H76.1986ZM83.7126 18.6127C82.8103 18.6127 82.0336 18.43 81.3826 18.0645C80.7354 17.6952 80.2366 17.1736 79.8864 16.4997C79.5361 15.8221 79.361 15.0207 79.361 14.0955C79.361 13.1932 79.5361 12.4013 79.8864 11.7198C80.2366 11.0383 80.7297 10.5072 81.3655 10.1265C82.0051 9.7458 82.7551 9.55544 83.6155 9.55544C84.1942 9.55544 84.7329 9.64872 85.2317 9.83527C85.7342 10.018 86.172 10.294 86.5451 10.6633C86.922 11.0326 87.2152 11.4971 87.4246 12.0568C87.634 12.6126 87.7387 13.2636 87.7387 14.0098V14.678H80.3318V13.1704H85.4487C85.4487 12.8201 85.3725 12.5098 85.2202 12.2395C85.068 11.9692 84.8567 11.7579 84.5863 11.6056C84.3198 11.4495 84.0096 11.3715 83.6555 11.3715C83.2862 11.3715 82.9588 11.4571 82.6732 11.6285C82.3915 11.796 82.1707 12.0225 82.0108 12.308C81.8509 12.5898 81.769 12.9039 81.7652 13.2503V14.6837C81.7652 15.1177 81.8452 15.4927 82.0051 15.8087C82.1688 16.1247 82.3991 16.3684 82.6961 16.5397C82.993 16.711 83.3452 16.7967 83.7526 16.7967C84.0229 16.7967 84.2703 16.7586 84.495 16.6825C84.7196 16.6063 84.9119 16.4921 85.0718 16.3398C85.2317 16.1876 85.3535 16.001 85.4372 15.7802L87.6873 15.9287C87.5731 16.4693 87.3389 16.9414 86.9849 17.3449C86.6346 17.7447 86.1816 18.0569 85.6257 18.2815C85.0737 18.5023 84.436 18.6127 83.7126 18.6127ZM91.7591 13.3702V18.4414H89.3263V9.66966H91.6449V11.2173H91.7477C91.9418 10.7071 92.2673 10.3036 92.7242 10.0066C93.1811 9.70583 93.735 9.55544 94.386 9.55544C94.9952 9.55544 95.5263 9.68869 95.9793 9.9552C96.4324 10.2217 96.7846 10.6024 97.0358 11.0974C97.2871 11.5885 97.4127 12.1748 97.4127 12.8563V18.4414H94.98V13.2903C94.9838 12.7535 94.8467 12.3347 94.5688 12.0339C94.2909 11.7293 93.9082 11.5771 93.4209 11.5771C93.0935 11.5771 92.8041 11.6475 92.5529 11.7884C92.3054 11.9292 92.1112 12.1348 91.9704 12.4051C91.8333 12.6716 91.7629 12.9933 91.7591 13.3702Z" fill="white"/>
<path d="M0.796336 19.7732C0.796336 19.1309 0.80768 18.4893 0.79233 17.847C0.761944 16.6072 0.852912 15.3674 1.06397 14.1448C1.42437 12.0935 2.07909 10.1567 3.14962 8.36559C4.94494 5.35708 7.47642 3.14499 10.6646 1.66214C12.0727 0.997456 13.5718 0.540035 15.1142 0.30446C15.9211 0.18325 16.7314 0.0844371 17.553 0.0916833C21.0435 0.117375 24.2938 0.96848 27.2304 2.86898C30.1076 4.73258 32.2673 7.19829 33.5647 10.3649C34.1636 11.8528 34.5612 13.4121 34.7474 15.0025C34.967 16.76 34.9776 18.5248 34.9476 20.2936C34.9289 21.2475 34.9329 22.204 34.9176 23.1552C34.9102 23.5696 34.8956 23.9846 34.7841 24.3917C34.349 25.9727 32.5203 26.692 31.1801 25.8152C30.5794 25.4266 30.2844 24.8541 30.179 24.1684C30.1047 23.7098 30.0674 23.2461 30.0675 22.7817V17.0249C30.0675 16.2726 29.8299 15.6046 29.3094 15.0486C28.3983 14.0835 27.0008 14.0467 25.9783 14.9386C25.4057 15.4412 25.1454 16.0796 25.09 16.8134C25.068 17.0888 25.06 17.3635 25.06 17.6388C25.056 19.756 25.064 21.8693 25.0486 23.9865C25.0373 25.1861 24.1142 26.1038 22.8742 26.1881C22.3033 26.2302 21.737 26.0607 21.286 25.7127C20.835 25.3646 20.5317 24.8631 20.4355 24.306C20.3829 23.9859 20.3581 23.662 20.3614 23.3377C20.3614 21.2093 20.3654 19.0815 20.3614 16.9531C20.3713 16.2529 20.0999 15.5774 19.6066 15.0743C18.5841 14.0137 17.0451 14.0467 16.0526 15.1369C15.5654 15.6692 15.3538 16.289 15.3538 16.9972C15.3538 19.0999 15.3498 21.206 15.3538 23.308C15.3538 23.8508 15.2871 24.3831 15.0602 24.8818C14.8788 25.2976 14.5729 25.6488 14.1835 25.8882C13.7941 26.1276 13.3399 26.2437 12.8818 26.221C11.9708 26.1914 11.2012 25.6281 10.8522 24.7237C10.7169 24.3683 10.6491 23.9914 10.652 23.6117C10.6555 21.5753 10.6542 19.5389 10.6479 17.5025C10.6479 17.0512 10.6293 16.596 10.4918 16.1593C10.1794 15.1573 9.50268 14.519 8.45818 14.3503C7.395 14.1777 6.60679 14.6731 6.01614 15.517C5.73382 15.9208 5.64038 16.3734 5.64038 16.8562C5.64038 18.7886 5.64172 20.7209 5.64439 22.6532C5.64439 23.2217 5.65573 23.7909 5.52559 24.3521C5.31002 25.2843 4.40301 26.3007 3.03149 26.2013C2.0871 26.1314 1.1801 25.3607 0.916469 24.3739C0.827461 24.0248 0.78395 23.666 0.786991 23.3061C0.798337 22.1203 0.798336 20.9471 0.794332 19.7725L0.796336 19.7732Z" fill="white"/>
</svg>
