<svg width="149" height="17" viewBox="0 0 149 17" fill="none" xmlns="http://www.w3.org/2000/svg">
<g id="logotext-gray 1" clip-path="url(#clip0_12859_1878)">
<g id="Clip path group">
<mask id="mask0_12859_1878" style="mask-type:luminance" maskUnits="userSpaceOnUse" x="0" y="0" width="149" height="17">
<g id="clip0_23_8698">
<path id="Vector" d="M148.89 0.88501H0.279083V16.1148H148.89V0.88501Z" fill="white"/>
</g>
</mask>
<g mask="url(#mask0_12859_1878)">
<g id="Group">
<path id="Vector_2" d="M133.189 0.88501H129.565L126.178 16.1148H129.802L133.189 0.88501Z" fill="white"/>
<path id="Vector_3" d="M148.89 0.88501H145.266L141.879 16.1148H145.503L148.89 0.88501Z" fill="white"/>
<path id="Vector_4" d="M136.811 0.88501L141.879 16.1148H138.256L133.188 0.88501H136.811Z" fill="white"/>
<path id="Vector_5" d="M47.1839 12.5074L49.7684 0.88501H46.145L42.7582 16.1148H62.084L62.8859 12.5074H47.1839Z" fill="white"/>
<path id="Vector_6" d="M66.9999 0.88501L63.6132 16.1148H77.0928C80.3213 16.1148 83.5177 13.5089 84.2327 10.2947L81.412 6.68725H85.0351C85.7477 3.48285 83.7157 0.885308 80.4974 0.885308H66.9999V0.88501ZM77.9136 12.5071H68.0392L68.5311 10.2944H80.6096L80.6056 10.3126C80.3362 11.5246 79.1309 12.5071 77.9136 12.5071ZM81.412 6.68695H69.3334L69.8215 4.49249H79.6959C80.9134 4.49249 81.6813 5.47503 81.412 6.68695Z" fill="white"/>
<path id="Vector_7" d="M124.649 16.1148L125.943 10.2947L123.122 6.68725H126.745C127.458 3.48285 125.426 0.88501 122.208 0.88501H108.71L105.323 16.1145H108.946L110.241 10.2944H122.32L121.025 16.1145H124.649V16.1148ZM123.122 6.68725H111.043L111.531 4.49279H121.406C122.623 4.49279 123.392 5.47532 123.122 6.68725Z" fill="white"/>
<path id="Vector_8" d="M87.8536 0.88501L84.4669 16.1148H103.792L107.179 0.88501H87.8536ZM100.971 12.5074H88.8924L90.6743 4.49279H102.753L100.971 12.5074Z" fill="white"/>
<path id="Vector_9" d="M34.568 0.88501H30.56L21.1341 16.1148H24.7575L34.568 0.88501H38.5756L41.2283 16.1148H37.6049L34.568 0.88501Z" fill="white"/>
<path id="Vector_10" d="M19.3678 0.88501L18.0758 6.69619H5.99716L7.28926 0.88501H3.66582L0.279083 16.1148H3.90281L5.99716 6.69619L8.81837 10.3039H17.2735L15.9811 16.1148H19.6049L22.9913 0.88501H19.3678Z" fill="white"/>
</g>
</g>
</g>
</g>
<defs>
<clipPath id="clip0_12859_1878">
<rect width="148.611" height="15.2298" fill="white" transform="translate(0.277771 0.88501)"/>
</clipPath>
</defs>
</svg>
