<svg width="34" height="34" viewBox="0 0 34 34" fill="none" xmlns="http://www.w3.org/2000/svg">
<g id="play-circle">
<g id="Icon">
<path d="M17.0663 31.1073C24.7029 31.1073 30.8936 24.9166 30.8936 17.28C30.8936 9.6434 24.7029 3.4527 17.0663 3.4527C9.42968 3.4527 3.23898 9.6434 3.23898 17.28C3.23898 24.9166 9.42968 31.1073 17.0663 31.1073Z" stroke="white" stroke-width="2" stroke-linecap="round" stroke-linejoin="round"/>
<path d="M13.6095 13.0839C13.6095 12.4239 13.6095 12.0939 13.7474 11.9097C13.8676 11.7492 14.0515 11.6487 14.2516 11.6345C14.4811 11.6181 14.7587 11.7965 15.3138 12.1534L21.8411 16.3495C22.3229 16.6592 22.5637 16.814 22.6469 17.0109C22.7196 17.1829 22.7196 17.3771 22.6469 17.5491C22.5637 17.746 22.3229 17.9008 21.8411 18.2105L15.3138 22.4066C14.7587 22.7635 14.4811 22.942 14.2516 22.9256C14.0515 22.9113 13.8676 22.8108 13.7474 22.6503C13.6095 22.4661 13.6095 22.1361 13.6095 21.4761V13.0839Z" stroke="white" stroke-width="2" stroke-linecap="round" stroke-linejoin="round"/>
</g>
</g>
</svg>
