<svg width="122" height="27" viewBox="0 0 122 27" fill="none" xmlns="http://www.w3.org/2000/svg">
<path d="M40.614 9.43995C40.5683 8.97928 40.3722 8.62141 40.0258 8.36633C39.6793 8.11125 39.2091 7.98371 38.6152 7.98371C38.2117 7.98371 37.8709 8.04081 37.593 8.15503C37.3151 8.26544 37.1019 8.41963 36.9534 8.6176C36.8087 8.81558 36.7364 9.0402 36.7364 9.29147C36.7288 9.50087 36.7725 9.68361 36.8677 9.83971C36.9667 9.9958 37.1019 10.131 37.2732 10.2452C37.4445 10.3556 37.6425 10.4527 37.8671 10.5364C38.0917 10.6164 38.3316 10.6849 38.5867 10.742L39.6375 10.9933C40.1476 11.1075 40.6159 11.2598 41.0423 11.4501C41.4687 11.6405 41.838 11.8746 42.1502 12.1526C42.4624 12.4305 42.7041 12.7579 42.8755 13.1348C43.0506 13.5117 43.1401 13.9439 43.1439 14.4312C43.1401 15.1469 42.9573 15.7675 42.5956 16.2929C42.2378 16.8145 41.72 17.2199 41.0423 17.5093C40.3684 17.7948 39.5556 17.9376 38.6038 17.9376C37.6596 17.9376 36.8373 17.7929 36.1367 17.5036C35.44 17.2142 34.8956 16.7859 34.5035 16.2186C34.1151 15.6476 33.9115 14.9413 33.8924 14.0999H36.2852C36.3119 14.4921 36.4242 14.8195 36.6222 15.0822C36.8239 15.3411 37.0924 15.5372 37.4274 15.6704C37.7662 15.7999 38.1488 15.8646 38.5752 15.8646C38.994 15.8646 39.3576 15.8037 39.666 15.6818C39.9782 15.56 40.22 15.3906 40.3913 15.1736C40.5626 14.9566 40.6483 14.7072 40.6483 14.4255C40.6483 14.1628 40.5702 13.9419 40.4141 13.763C40.2618 13.5841 40.0372 13.4318 39.7402 13.3061C39.4471 13.1805 39.0873 13.0663 38.6609 12.9635L37.3874 12.6437C36.4013 12.4038 35.6228 12.0288 35.0517 11.5187C34.4806 11.0085 34.197 10.3213 34.2008 9.45709C34.197 8.74895 34.3854 8.13028 34.7662 7.60108C35.1507 7.07189 35.678 6.65881 36.348 6.36185C37.0181 6.06489 37.7795 5.91641 38.6324 5.91641C39.5004 5.91641 40.258 6.06489 40.9052 6.36185C41.5563 6.65881 42.0626 7.07189 42.4243 7.60108C42.786 8.13028 42.9725 8.74324 42.984 9.43995H40.614ZM50.3866 14.0371V9.00022H52.8193V17.772H50.4836V16.1787H50.3923C50.1943 16.6926 49.865 17.1057 49.4043 17.4179C48.9474 17.7301 48.3897 17.8862 47.731 17.8862C47.1447 17.8862 46.6289 17.7529 46.1834 17.4864C45.738 17.2199 45.3896 16.8411 45.1384 16.35C44.8909 15.8589 44.7653 15.2707 44.7614 14.5854V9.00022H47.1942V14.1513C47.198 14.6691 47.337 15.0784 47.6111 15.3792C47.8852 15.6799 48.2526 15.8303 48.7133 15.8303C49.0065 15.8303 49.2806 15.7637 49.5357 15.6304C49.7907 15.4934 49.9963 15.2916 50.1524 15.0251C50.3123 14.7586 50.3904 14.4293 50.3866 14.0371ZM62.0637 11.5015L59.8365 11.6386C59.7984 11.4482 59.7165 11.2769 59.5909 11.1246C59.4653 10.9685 59.2996 10.8448 59.0941 10.7534C58.8923 10.6583 58.6505 10.6107 58.3688 10.6107C57.9919 10.6107 57.674 10.6906 57.4151 10.8505C57.1562 11.0066 57.0268 11.216 57.0268 11.4787C57.0268 11.6881 57.1105 11.8651 57.278 12.0098C57.4455 12.1545 57.733 12.2706 58.1404 12.3582L59.728 12.678C60.5808 12.8531 61.2166 13.1348 61.6354 13.5232C62.0541 13.9115 62.2635 14.4217 62.2635 15.0536C62.2635 15.6285 62.0941 16.133 61.7553 16.567C61.4202 17.001 60.9596 17.3399 60.3733 17.5835C59.7908 17.8234 59.1188 17.9433 58.3574 17.9433C57.1962 17.9433 56.271 17.7015 55.5819 17.218C54.8966 16.7307 54.495 16.0683 54.377 15.2307L56.7698 15.105C56.8421 15.4591 57.0172 15.7294 57.2952 15.916C57.5731 16.0987 57.9291 16.1901 58.3631 16.1901C58.7895 16.1901 59.1321 16.1082 59.391 15.9445C59.6537 15.777 59.787 15.5619 59.7908 15.2992C59.787 15.0784 59.6937 14.8975 59.5109 14.7567C59.3282 14.612 59.0465 14.5016 58.6658 14.4255L57.1467 14.1228C56.2901 13.9515 55.6524 13.6545 55.2336 13.2319C54.8186 12.8093 54.6111 12.2706 54.6111 11.6158C54.6111 11.0523 54.7634 10.5669 55.068 10.1595C55.3763 9.75214 55.8085 9.43805 56.3643 9.21723C56.924 8.99642 57.5788 8.88601 58.3288 8.88601C59.4367 8.88601 60.3085 9.12015 60.9443 9.58843C61.584 10.0567 61.9571 10.6944 62.0637 11.5015ZM66.2282 12.7008V17.772H63.7955V6.07631H66.1597V10.5478H66.2625C66.4605 10.0301 66.7803 9.6246 67.2219 9.33145C67.6636 9.03449 68.2175 8.88601 68.8838 8.88601C69.4929 8.88601 70.024 9.01926 70.4771 9.28576C70.9339 9.54846 71.288 9.92727 71.5393 10.4222C71.7943 10.9133 71.92 11.5015 71.9162 12.1868V17.772H69.4834V12.6209C69.4872 12.0802 69.3501 11.6595 69.0722 11.3588C68.7981 11.058 68.4136 10.9076 67.9186 10.9076C67.5874 10.9076 67.2943 10.9781 67.0392 11.1189C66.7879 11.2598 66.5899 11.4654 66.4453 11.7357C66.3044 12.0022 66.2321 12.3239 66.2282 12.7008ZM73.8307 17.772V9.00022H76.2635V17.772H73.8307ZM75.0528 7.86949C74.6911 7.86949 74.3808 7.74956 74.122 7.50971C73.8669 7.26605 73.7393 6.9748 73.7393 6.63596C73.7393 6.30093 73.8669 6.01349 74.122 5.77364C74.3808 5.52998 74.6911 5.40815 75.0528 5.40815C75.4145 5.40815 75.7229 5.52998 75.978 5.77364C76.2368 6.01349 76.3663 6.30093 76.3663 6.63596C76.3663 6.9748 76.2368 7.26605 75.978 7.50971C75.7229 7.74956 75.4145 7.86949 75.0528 7.86949ZM84.6027 9.43995C84.557 8.97928 84.3609 8.62141 84.0144 8.36633C83.668 8.11125 83.1978 7.98371 82.6039 7.98371C82.2003 7.98371 81.8596 8.04081 81.5817 8.15503C81.3037 8.26544 81.0905 8.41963 80.9421 8.6176C80.7974 8.81558 80.725 9.0402 80.725 9.29147C80.7174 9.50087 80.7612 9.68361 80.8564 9.83971C80.9554 9.9958 81.0905 10.131 81.2619 10.2452C81.4332 10.3556 81.6312 10.4527 81.8558 10.5364C82.0804 10.6164 82.3203 10.6849 82.5753 10.742L83.6261 10.9933C84.1363 11.1075 84.6046 11.2598 85.031 11.4501C85.4574 11.6405 85.8267 11.8746 86.1389 12.1526C86.451 12.4305 86.6928 12.7579 86.8641 13.1348C87.0393 13.5117 87.1287 13.9439 87.1325 14.4312C87.1287 15.1469 86.946 15.7675 86.5843 16.2929C86.2264 16.8145 85.7086 17.2199 85.031 17.5093C84.3571 17.7948 83.5443 17.9376 82.5925 17.9376C81.6483 17.9376 80.8259 17.7929 80.1254 17.5036C79.4287 17.2142 78.8843 16.7859 78.4921 16.2186C78.1038 15.6476 77.9001 14.9413 77.8811 14.0999H80.2739C80.3005 14.4921 80.4129 14.8195 80.6108 15.0822C80.8126 15.3411 81.081 15.5372 81.416 15.6704C81.7549 15.7999 82.1375 15.8646 82.5639 15.8646C82.9827 15.8646 83.3463 15.8037 83.6547 15.6818C83.9669 15.56 84.2086 15.3906 84.3799 15.1736C84.5513 14.9566 84.6369 14.7072 84.6369 14.4255C84.6369 14.1628 84.5589 13.9419 84.4028 13.763C84.2505 13.5841 84.0259 13.4318 83.7289 13.3061C83.4358 13.1805 83.076 13.0663 82.6496 12.9635L81.3761 12.6437C80.39 12.4038 79.6114 12.0288 79.0404 11.5187C78.4693 11.0085 78.1857 10.3213 78.1895 9.45709C78.1857 8.74895 78.3741 8.13028 78.7548 7.60108C79.1394 7.07189 79.6666 6.65881 80.3367 6.36185C81.0068 6.06489 81.7682 5.91641 82.621 5.91641C83.4891 5.91641 84.2467 6.06489 84.8939 6.36185C85.5449 6.65881 86.0513 7.07189 86.413 7.60108C86.7747 8.13028 86.9612 8.74324 86.9726 9.43995H84.6027ZM90.4805 17.772L88.0934 9.00022H90.5547L91.9139 14.8937H91.9938L93.4101 9.00022H95.8258L97.2649 14.8595H97.3391L98.6754 9.00022H101.131L98.7497 17.772H96.1741L94.6665 12.2554H94.558L93.0503 17.772H90.4805ZM104.93 17.9376C104.371 17.9376 103.872 17.8405 103.434 17.6463C102.996 17.4484 102.65 17.1571 102.395 16.7726C102.143 16.3843 102.018 15.9007 102.018 15.3221C102.018 14.8347 102.107 14.4255 102.286 14.0942C102.465 13.763 102.709 13.4965 103.017 13.2947C103.325 13.0929 103.676 12.9407 104.068 12.8379C104.464 12.7351 104.879 12.6627 105.313 12.6209C105.823 12.5676 106.234 12.5181 106.546 12.4724C106.858 12.4229 107.085 12.3505 107.226 12.2554C107.367 12.1602 107.437 12.0193 107.437 11.8328V11.7985C107.437 11.4368 107.323 11.157 107.095 10.959C106.87 10.761 106.55 10.6621 106.135 10.6621C105.697 10.6621 105.349 10.7591 105.09 10.9533C104.831 11.1437 104.66 11.3835 104.576 11.6729L102.326 11.4901C102.44 10.9571 102.665 10.4964 103 10.1081C103.335 9.71597 103.767 9.41521 104.296 9.20581C104.829 8.99261 105.446 8.88601 106.147 8.88601C106.634 8.88601 107.1 8.94312 107.546 9.05733C107.995 9.17155 108.393 9.34858 108.739 9.58843C109.09 9.82829 109.366 10.1367 109.567 10.5136C109.769 10.8867 109.87 11.334 109.87 11.8556V17.772H107.563V16.5556H107.494C107.353 16.8297 107.165 17.0715 106.929 17.2808C106.693 17.4864 106.409 17.6482 106.078 17.7663C105.747 17.8805 105.364 17.9376 104.93 17.9376ZM105.627 16.2586C105.985 16.2586 106.301 16.1882 106.575 16.0473C106.849 15.9026 107.064 15.7085 107.22 15.4648C107.376 15.2212 107.454 14.9451 107.454 14.6368V13.7059C107.378 13.7554 107.273 13.8011 107.14 13.843C107.011 13.881 106.864 13.9172 106.7 13.9515C106.537 13.9819 106.373 14.0105 106.209 14.0371C106.046 14.06 105.897 14.0809 105.764 14.0999C105.478 14.1418 105.229 14.2084 105.016 14.2998C104.803 14.3912 104.637 14.5149 104.519 14.671C104.401 14.8233 104.342 15.0137 104.342 15.2421C104.342 15.5733 104.462 15.8265 104.702 16.0016C104.945 16.173 105.254 16.2586 105.627 16.2586ZM111.757 21.0614V9.00022H114.156V10.4736H114.264C114.371 10.2376 114.525 9.99771 114.727 9.75405C114.933 9.50658 115.199 9.30099 115.527 9.13728C115.858 8.96977 116.269 8.88601 116.76 8.88601C117.4 8.88601 117.99 9.05352 118.53 9.38856C119.071 9.71978 119.503 10.2204 119.827 10.8905C120.15 11.5567 120.312 12.3924 120.312 13.3975C120.312 14.376 120.154 15.2021 119.838 15.876C119.526 16.5461 119.1 17.0543 118.559 17.4008C118.022 17.7434 117.421 17.9147 116.754 17.9147C116.282 17.9147 115.881 17.8367 115.549 17.6806C115.222 17.5245 114.954 17.3284 114.744 17.0924C114.535 16.8525 114.375 16.6108 114.264 16.3671H114.19V21.0614H111.757ZM114.139 13.3861C114.139 13.9077 114.211 14.3626 114.356 14.751C114.5 15.1393 114.71 15.442 114.984 15.659C115.258 15.8722 115.591 15.9788 115.983 15.9788C116.379 15.9788 116.714 15.8703 116.988 15.6533C117.263 15.4325 117.47 15.1279 117.611 14.7396C117.756 14.3474 117.828 13.8963 117.828 13.3861C117.828 12.8797 117.758 12.4343 117.617 12.0498C117.476 11.6653 117.268 11.3645 116.994 11.1475C116.72 10.9305 116.383 10.822 115.983 10.822C115.587 10.822 115.252 10.9267 114.978 11.1361C114.708 11.3454 114.5 11.6424 114.356 12.0269C114.211 12.4115 114.139 12.8645 114.139 13.3861Z" fill="white"/>
<path d="M6.29671 1.59375L28.379 16.6692L22.9191 24.7377L0.836792 9.55613L6.29671 1.59375Z" fill="white"/>
<path d="M28.3794 16.6841C26.4836 19.4141 20.0682 18.3524 14.0016 14.0755C7.84404 9.91991 4.50743 4.33867 6.29706 1.59354C8.19287 -1.13641 14.6083 -0.0747651 20.6748 4.20217C26.8476 8.2516 30.169 13.9542 28.3794 16.6841Z" fill="white"/>
<path d="M22.9196 24.6463C21.0238 27.3762 14.6084 26.3146 8.54179 22.0376C2.47522 17.7607 -0.952391 12.3008 0.943413 9.4495C2.83922 6.71954 9.25462 7.78119 15.3212 12.0581C21.3878 16.3351 24.7092 21.9011 22.9196 24.6463Z" fill="white"/>
<path d="M28.3791 16.684L22.9192 24.7526C21.0234 27.4825 14.608 26.2996 8.54142 22.1439C7.35844 21.3098 6.28162 20.324 5.21997 19.3837C6.05412 19.2623 7.11577 18.9438 8.19259 17.7609C10.0884 15.7437 11.0439 15.2736 11.878 15.3797C12.7122 15.3797 13.6525 16.2139 15.1995 18.231C16.7465 20.2481 18.8849 20.8396 20.1892 19.778C20.3106 19.6567 20.4319 19.6567 20.5381 19.5353C21.5997 18.7012 21.9637 18.3523 23.9808 14.5456C24.451 13.5901 26.1193 12.0583 28.3791 12.7711C28.9858 14.3029 28.9858 15.6072 28.3791 16.684Z" fill="white"/>
<path fill-rule="evenodd" clip-rule="evenodd" d="M27.5603 16.2139C25.892 18.595 20.0833 17.3968 14.502 13.4839C8.7843 9.55579 5.46285 4.56604 7.13116 2.20008C8.79946 -0.165888 14.6082 1.01709 20.1895 4.93003C25.7707 8.84297 29.0921 13.8327 27.5603 16.2139ZM22.3279 12.6497C21.4938 13.8327 18.6425 13.2412 15.7912 11.3454C13.0612 9.44963 11.3929 6.94717 12.2271 5.76419C13.0612 4.58121 15.9125 5.1727 18.7638 7.0685C21.4938 8.9643 23.1621 11.4516 22.3279 12.6497Z" fill="#C6C6C6"/>
<path d="M5.82678 4.33867C5.82678 4.21728 5.70538 4.09588 5.58398 4.21728C5.46258 4.33867 5.34119 4.33867 5.34119 4.46007C5.46258 4.80909 5.58398 5.05188 5.58398 5.29468C5.58398 5.41608 5.70538 5.53747 5.82678 5.41608C5.94817 5.41608 6.06957 5.29468 5.94817 5.17328C5.933 4.93049 5.933 4.68769 5.82678 4.33867Z" fill="white"/>
<path d="M6.41807 6.23458C6.41807 6.11324 6.29674 5.99191 6.17541 6.11325C6.05408 6.23458 6.05408 6.23458 6.05408 6.35591C7.35839 9.32853 10.0883 12.5286 13.6525 14.9098C13.7738 15.0311 13.8951 14.9098 14.0013 14.9098C14.1226 14.7884 14.0013 14.6671 14.0013 14.5609C10.331 12.1647 7.72238 9.08587 6.41807 6.23458Z" fill="white"/>
<path d="M20.7812 17.8672C20.6598 17.8672 20.5385 17.8672 20.5385 17.9886C20.5385 18.11 20.5385 18.2314 20.6598 18.2314C21.0089 18.3528 21.4945 18.4742 21.8435 18.5804C21.9649 18.5804 22.0863 18.5804 22.0863 18.459C22.0863 18.3376 22.0863 18.2162 21.9649 18.2162C21.6159 18.11 21.1454 17.9886 20.7812 17.8672Z" fill="white"/>
<path d="M22.9194 18.3525C22.7981 18.3525 22.6768 18.4739 22.6768 18.5952C22.6768 18.7165 22.7981 18.8379 22.9194 18.8379C23.8749 18.9592 24.9366 19.0805 25.7707 18.9592C25.892 18.9592 26.0134 18.8379 26.0134 18.7165C26.0134 18.5952 25.892 18.4739 25.7707 18.4739C24.8152 18.58 23.8749 18.4587 22.9194 18.3525Z" fill="white"/>
</svg>
