<svg width="26" height="21" viewBox="0 0 26 21" fill="none" xmlns="http://www.w3.org/2000/svg">
<path d="M8.0113 20.6996C17.6245 20.6996 22.8824 12.7351 22.8824 5.82842C22.8824 5.6022 22.8824 5.37701 22.8672 5.15283C23.8901 4.41295 24.773 3.49685 25.4748 2.44741C24.5209 2.87029 23.509 3.14749 22.4728 3.26974C23.564 2.61662 24.3806 1.58923 24.7706 0.378861C23.7447 0.987716 22.6223 1.41677 21.4518 1.6475C20.6638 0.809572 19.6215 0.254715 18.4864 0.0687954C17.3512 -0.117125 16.1865 0.0762576 15.1723 0.619017C14.1581 1.16178 13.3511 2.02365 12.8762 3.07128C12.4012 4.1189 12.2847 5.29386 12.5448 6.41434C10.4668 6.3101 8.43401 5.77007 6.57828 4.82931C4.72255 3.88854 3.08538 2.56806 1.77304 0.953571C1.10468 2.10418 0.899973 3.46626 1.2006 4.7625C1.50123 6.05873 2.2846 7.19165 3.3912 7.9306C2.5594 7.90622 1.74571 7.68183 1.01899 7.27641V7.34264C1.01932 8.54935 1.43704 9.71879 2.20131 10.6526C2.96557 11.5865 4.02932 12.2272 5.21214 12.4661C4.44267 12.676 3.63533 12.7067 2.85215 12.5558C3.18627 13.5942 3.83653 14.5023 4.71202 15.1531C5.58752 15.8039 6.64448 16.1648 7.73516 16.1854C6.6515 17.0372 5.41054 17.667 4.08326 18.0387C2.75598 18.4105 1.36843 18.5168 0 18.3518C2.3902 19.8856 5.1713 20.6992 8.0113 20.6955" fill="white"/>
</svg>
