<svg width="99" height="27" viewBox="0 0 99 27" fill="none" xmlns="http://www.w3.org/2000/svg">
<path d="M38.1276 6.07582H40.6004V13.6711C40.6004 14.524 40.3967 15.2702 39.9893 15.9098C39.5858 16.5494 39.0204 17.0481 38.2932 17.406C37.5661 17.7601 36.719 17.9371 35.7519 17.9371C34.7811 17.9371 33.9321 17.7601 33.2049 17.406C32.4778 17.0481 31.9124 16.5494 31.5088 15.9098C31.1053 15.2702 30.9035 14.524 30.9035 13.6711V6.07582H33.3762V13.4598C33.3762 13.9053 33.4733 14.3012 33.6675 14.6477C33.8655 14.9941 34.1434 15.2664 34.5013 15.4643C34.8591 15.6623 35.276 15.7613 35.7519 15.7613C36.2316 15.7613 36.6485 15.6623 37.0026 15.4643C37.3605 15.2664 37.6365 14.9941 37.8306 14.6477C38.0286 14.3012 38.1276 13.9053 38.1276 13.4598V6.07582ZM45.0219 12.7003V17.7715H42.5892V8.99974H44.9077V10.5474H45.0105C45.2047 10.0372 45.5302 9.63363 45.9871 9.33667C46.4439 9.0359 46.9979 8.88552 47.6489 8.88552C48.258 8.88552 48.7891 9.01877 49.2422 9.28527C49.6953 9.55178 50.0474 9.9325 50.2987 10.4274C50.55 10.9186 50.6756 11.5049 50.6756 12.1863V17.7715H48.2428V12.6204C48.2466 12.0836 48.1096 11.6648 47.8316 11.364C47.5537 11.0594 47.1711 10.9071 46.6838 10.9071C46.3564 10.9071 46.067 10.9776 45.8157 11.1184C45.5683 11.2593 45.3741 11.4649 45.2332 11.7352C45.0962 12.0017 45.0257 12.3234 45.0219 12.7003ZM52.593 17.7715V8.99974H55.0258V17.7715H52.593ZM53.8151 7.869C53.4534 7.869 53.1431 7.74908 52.8843 7.50922C52.6292 7.26556 52.5016 6.97431 52.5016 6.63547C52.5016 6.30044 52.6292 6.013 52.8843 5.77315C53.1431 5.52949 53.4534 5.40766 53.8151 5.40766C54.1768 5.40766 54.4852 5.52949 54.7403 5.77315C54.9991 6.013 55.1286 6.30044 55.1286 6.63547C55.1286 6.97431 54.9991 7.26556 54.7403 7.50922C54.4852 7.74908 54.1768 7.869 53.8151 7.869ZM64.273 11.5011L62.0458 11.6381C62.0077 11.4478 61.9258 11.2764 61.8002 11.1241C61.6746 10.968 61.5089 10.8443 61.3034 10.7529C61.1016 10.6578 60.8598 10.6102 60.5781 10.6102C60.2012 10.6102 59.8833 10.6901 59.6244 10.85C59.3655 11.0061 59.2361 11.2155 59.2361 11.4782C59.2361 11.6876 59.3198 11.8646 59.4873 12.0093C59.6548 12.154 59.9423 12.2701 60.3497 12.3577L61.9373 12.6775C62.7901 12.8526 63.4259 13.1343 63.8447 13.5227C64.2634 13.911 64.4728 14.4212 64.4728 15.0532C64.4728 15.628 64.3034 16.1325 63.9646 16.5665C63.6295 17.0005 63.1689 17.3394 62.5826 17.583C62.0001 17.8229 61.3281 17.9428 60.5667 17.9428C59.4055 17.9428 58.4803 17.7011 57.7912 17.2175C57.1059 16.7302 56.7043 16.0678 56.5863 15.2302L58.9791 15.1046C59.0514 15.4586 59.2265 15.7289 59.5045 15.9155C59.7824 16.0982 60.1384 16.1896 60.5724 16.1896C60.9988 16.1896 61.3414 16.1077 61.6003 15.944C61.863 15.7765 61.9963 15.5614 62.0001 15.2987C61.9963 15.0779 61.903 14.8971 61.7202 14.7562C61.5375 14.6115 61.2558 14.5011 60.875 14.425L59.356 14.1223C58.4994 13.951 57.8617 13.654 57.4429 13.2314C57.0279 12.8088 56.8204 12.2701 56.8204 11.6153C56.8204 11.0518 56.9727 10.5664 57.2773 10.159C57.5856 9.75165 58.0178 9.43756 58.5736 9.21674C59.1333 8.99593 59.7881 8.88552 60.5381 8.88552C61.646 8.88552 62.5178 9.11966 63.1536 9.58794C63.7933 10.0562 64.1664 10.6939 64.273 11.5011ZM67.7351 17.7715L65.348 8.99974H67.8094L69.1685 14.8933H69.2485L70.6647 8.99974H73.0804L74.5195 14.859H74.5938L75.9301 8.99974H78.3857L76.0043 17.7715H73.4288L71.9211 12.2549H71.8126L70.305 17.7715H67.7351ZM82.1848 17.9371C81.6251 17.9371 81.1264 17.84 80.6886 17.6458C80.2508 17.4479 79.9043 17.1566 79.6492 16.7721C79.3979 16.3838 79.2723 15.9003 79.2723 15.3216C79.2723 14.8342 79.3618 14.425 79.5407 14.0937C79.7197 13.7625 79.9633 13.496 80.2717 13.2942C80.5801 13.0925 80.9303 12.9402 81.3225 12.8374C81.7184 12.7346 82.1334 12.6622 82.5674 12.6204C83.0776 12.5671 83.4888 12.5176 83.8009 12.4719C84.1131 12.4224 84.3397 12.3501 84.4805 12.2549C84.6214 12.1597 84.6918 12.0188 84.6918 11.8323V11.798C84.6918 11.4363 84.5776 11.1565 84.3492 10.9585C84.1246 10.7606 83.8048 10.6616 83.3898 10.6616C82.9519 10.6616 82.6036 10.7587 82.3447 10.9528C82.0858 11.1432 81.9145 11.383 81.8307 11.6724L79.5807 11.4896C79.6949 10.9566 79.9195 10.496 80.2546 10.1076C80.5896 9.71549 81.0217 9.41472 81.5509 9.20532C82.0839 8.99212 82.7007 8.88552 83.4012 8.88552C83.8885 8.88552 84.3549 8.94263 84.8003 9.05684C85.2496 9.17106 85.6474 9.34809 85.9939 9.58794C86.3441 9.8278 86.6202 10.1362 86.8219 10.5131C87.0237 10.8862 87.1246 11.3335 87.1246 11.8551V17.7715H84.8175V16.5551H84.7489C84.6081 16.8292 84.4196 17.071 84.1836 17.2804C83.9475 17.4859 83.6639 17.6478 83.3327 17.7658C83.0014 17.88 82.6188 17.9371 82.1848 17.9371ZM82.8815 16.2581C83.2394 16.2581 83.5554 16.1877 83.8295 16.0468C84.1036 15.9022 84.3187 15.708 84.4748 15.4643C84.6309 15.2207 84.709 14.9447 84.709 14.6363V13.7054C84.6328 13.7549 84.5281 13.8006 84.3949 13.8425C84.2654 13.8805 84.1188 13.9167 83.9551 13.951C83.7914 13.9814 83.6277 14.01 83.464 14.0366C83.3003 14.0595 83.1518 14.0804 83.0186 14.0995C82.733 14.1413 82.4837 14.208 82.2705 14.2993C82.0573 14.3907 81.8916 14.5144 81.7736 14.6705C81.6556 14.8228 81.5966 15.0132 81.5966 15.2416C81.5966 15.5728 81.7165 15.826 81.9564 16.0011C82.2 16.1725 82.5084 16.2581 82.8815 16.2581ZM89.012 21.0609V8.99974H91.4106V10.4731H91.5191C91.6257 10.2371 91.7799 9.99722 91.9816 9.75356C92.1872 9.50609 92.4537 9.3005 92.7811 9.13679C93.1124 8.96928 93.5235 8.88552 94.0147 8.88552C94.6543 8.88552 95.2444 9.05304 95.785 9.38807C96.3256 9.71929 96.7577 10.2199 97.0814 10.89C97.405 11.5563 97.5668 12.3919 97.5668 13.397C97.5668 14.3755 97.4088 15.2016 97.0928 15.8755C96.7806 16.5456 96.3542 17.0538 95.8136 17.4003C95.2768 17.7429 94.6752 17.9143 94.009 17.9143C93.5369 17.9143 93.1352 17.8362 92.804 17.6801C92.4766 17.524 92.2082 17.3279 91.9988 17.0919C91.7894 16.852 91.6295 16.6103 91.5191 16.3666H91.4448V21.0609H89.012ZM91.3934 13.3856C91.3934 13.9072 91.4658 14.3622 91.6104 14.7505C91.7551 15.1388 91.9645 15.4415 92.2386 15.6585C92.5127 15.8717 92.8459 15.9783 93.238 15.9783C93.634 15.9783 93.969 15.8698 94.2431 15.6528C94.5172 15.432 94.7247 15.1274 94.8656 14.7391C95.0103 14.3469 95.0826 13.8958 95.0826 13.3856C95.0826 12.8793 95.0122 12.4338 94.8713 12.0493C94.7304 11.6648 94.5229 11.364 94.2488 11.147C93.9747 10.93 93.6378 10.8215 93.238 10.8215C92.8421 10.8215 92.507 10.9262 92.2329 11.1356C91.9626 11.345 91.7551 11.6419 91.6104 12.0264C91.4658 12.411 91.3934 12.864 91.3934 13.3856Z" fill="white"/>
<path d="M7.10387 3.02318C6.78903 2.97319 6.77577 2.96637 6.9238 2.94365C7.20771 2.89821 7.87937 2.96069 8.34224 3.07316C9.42154 3.33786 10.4036 4.01379 11.4531 5.21458L11.7315 5.53266L12.1292 5.46791C13.8083 5.18958 15.5173 5.41111 16.9457 6.08932C17.339 6.27563 17.9587 6.64711 18.036 6.74367C18.0615 6.77321 18.1067 6.96974 18.1366 7.17877C18.2426 7.90242 18.1896 8.4568 17.9753 8.87145C17.8582 9.09639 17.8516 9.16682 17.93 9.35995C17.9672 9.43972 18.0255 9.50713 18.0981 9.55453C18.1708 9.60193 18.2549 9.6274 18.3409 9.62805C18.6967 9.62805 19.0789 9.03731 19.2556 8.21597L19.3263 7.88992L19.4655 8.05238C20.23 8.94302 20.8298 10.1574 20.9326 11.0208L20.9602 11.2469L20.831 11.0424C20.61 10.6902 20.3891 10.4494 20.1041 10.2551C19.5915 9.90638 19.0491 9.78823 17.6129 9.70984C16.316 9.63941 15.5814 9.52581 14.8545 9.28156C13.6161 8.86691 12.992 8.31366 11.5205 6.32902C10.8676 5.44746 10.4633 4.96011 10.0623 4.56817C9.14868 3.67526 8.25166 3.20721 7.10387 3.02318Z" fill="white"/>
<path d="M18.3288 4.99213C18.362 4.40139 18.4393 4.01173 18.5962 3.65616C18.658 3.51529 18.7166 3.39941 18.7254 3.39941C18.7156 3.47916 18.6951 3.55714 18.6646 3.63116C18.5509 3.97652 18.5321 4.44911 18.6105 4.99781C18.7099 5.69533 18.7674 5.7953 19.4832 6.54849C19.8202 6.90179 20.2112 7.34712 20.3526 7.5391L20.61 7.88673L20.3526 7.63794C20.0378 7.33462 19.3131 6.74048 19.1529 6.65641C19.0458 6.59961 19.0292 6.60075 18.9629 6.66777C18.9022 6.73139 18.8889 6.82454 18.8812 7.26873C18.8679 7.95944 18.7762 8.40476 18.5542 8.84781C18.4349 9.08638 18.4161 9.03639 18.5244 8.76488C18.605 8.56267 18.6127 8.47406 18.6127 7.80494C18.6127 6.45988 18.457 6.13725 17.5456 5.58286C17.2713 5.41922 16.9897 5.2691 16.7016 5.13299C16.5593 5.07428 16.4212 5.00518 16.2884 4.92624C16.3138 4.90011 17.202 5.16594 17.5588 5.30794C18.0913 5.51811 18.1786 5.54537 18.2438 5.51925C18.2868 5.5022 18.3078 5.3727 18.3288 4.99213ZM7.7159 7.29259C7.07628 6.38717 6.68079 4.99781 6.76586 3.95948L6.79237 3.63798L6.93819 3.66524C7.21216 3.71637 7.68387 3.89699 7.90481 4.03559C8.51019 4.41389 8.77311 4.9126 9.03934 6.19177C9.11778 6.56666 9.22051 6.9904 9.26802 7.13468C9.34314 7.36529 9.63036 7.90491 9.86456 8.25594C10.0325 8.50814 9.91979 8.62742 9.54861 8.59334C8.98079 8.53995 8.21192 7.99465 7.7159 7.29259ZM17.5533 14.0349C14.5629 12.7966 13.5101 11.722 13.5101 9.90886C13.5101 9.6419 13.5189 9.42378 13.5289 9.42378C13.5399 9.42378 13.6559 9.51125 13.7863 9.61917C14.3927 10.119 15.0721 10.3326 16.9512 10.6143C18.0571 10.7813 18.6801 10.9154 19.2546 11.1108C21.0795 11.7333 22.2085 12.9966 22.4781 14.7165C22.5554 15.2164 22.5101 16.1536 22.3831 16.6478C22.2837 17.0386 21.9777 17.7418 21.897 17.769C21.8749 17.7759 21.8528 17.6884 21.8462 17.5668C21.8153 16.9216 21.4982 16.2922 20.9646 15.8208C20.3582 15.2857 19.544 14.8585 17.5522 14.0349H17.5533ZM15.4544 14.5484C15.419 14.329 15.3707 14.112 15.3097 13.8986L15.2323 13.6646L15.3748 13.8282C15.5704 14.0554 15.7261 14.3439 15.8565 14.7302C15.957 15.0244 15.9681 15.1119 15.967 15.5901C15.967 16.0605 15.9548 16.1582 15.862 16.424C15.733 16.8138 15.517 17.1671 15.2312 17.4555C14.6844 18.0281 13.9829 18.3439 12.9688 18.4757C12.792 18.4984 12.2794 18.537 11.8276 18.5609C10.6898 18.6222 9.94189 18.7472 9.26912 18.9903C9.20846 19.0182 9.14329 19.0344 9.0769 19.038C9.05039 19.0096 9.50774 18.729 9.88665 18.5415C10.4202 18.2769 10.9505 18.1326 12.1403 17.9292C12.728 17.8281 13.3355 17.7066 13.4891 17.6577C14.9451 17.1988 15.693 16.015 15.4533 14.5484H15.4544Z" fill="white"/>
<path d="M16.8241 17.0522C16.4264 16.174 16.3358 15.3254 16.5534 14.5347C16.5766 14.4506 16.6142 14.3813 16.6363 14.3813C16.711 14.4092 16.7814 14.4482 16.8451 14.4972C17.0284 14.6245 17.3952 14.838 18.3729 15.3856C19.5936 16.0706 20.2895 16.6011 20.7634 17.2055C21.1777 17.736 21.434 18.3404 21.5577 19.0766C21.6273 19.4935 21.5865 20.4966 21.4826 20.9169C21.1545 22.2415 20.3912 23.2821 19.3041 23.8888C19.2015 23.9498 19.0953 24.0041 18.986 24.0512C18.9705 24.0512 19.028 23.9001 19.1152 23.7138C19.4798 22.9277 19.5229 22.162 19.2456 21.31C19.0766 20.7886 18.7308 20.1512 18.0337 19.0766C17.2229 17.8269 17.024 17.4929 16.8241 17.0522ZM5.59251 21.7905C6.70274 20.8272 8.08252 20.1433 9.34078 19.9331C9.88209 19.8422 10.7857 19.8786 11.2873 20.0104C12.0915 20.2217 12.8118 20.6965 13.1863 21.2611C13.5508 21.8133 13.7088 22.2949 13.8712 23.3651C13.9375 23.7877 14.0071 24.2114 14.0281 24.308C14.1496 24.8624 14.3893 25.3065 14.6854 25.5292C15.1549 25.8825 15.9646 25.9041 16.76 25.586C16.8431 25.5468 16.9307 25.5185 17.0207 25.5019C17.0494 25.5315 16.6495 25.8075 16.3667 25.9529C16.033 26.1366 15.6592 26.2296 15.2808 26.2233C14.5517 26.2233 13.9463 25.8427 13.4415 25.0646C13.342 24.9112 13.1189 24.4534 12.9443 24.0455C12.4119 22.7959 12.1489 22.4142 11.5303 21.9973C10.9901 21.6338 10.2952 21.569 9.77272 21.8326C9.0856 22.1791 8.89448 23.0822 9.38608 23.6536C9.58161 23.8808 9.94616 24.0774 10.2444 24.1148C10.3745 24.1326 10.5068 24.1214 10.6324 24.082C10.7579 24.0426 10.8738 23.976 10.9721 23.8866C11.0705 23.7972 11.149 23.6871 11.2024 23.5638C11.2558 23.4406 11.2829 23.3069 11.2818 23.1719C11.2818 22.7948 11.1404 22.5812 10.7868 22.4165C10.3041 22.1927 9.78487 22.454 9.78708 22.9209C9.78819 23.1197 9.87215 23.2446 10.0666 23.3355C10.1914 23.3923 10.1936 23.398 10.092 23.3764C9.649 23.281 9.54515 22.7323 9.90197 22.3676C10.3295 21.9291 11.2144 22.1223 11.5182 22.7198C11.6463 22.9709 11.6607 23.4719 11.5491 23.774C11.3005 24.45 10.5736 24.8044 9.8368 24.6113C9.33526 24.4795 9.13089 24.3375 8.52661 23.6968C7.47604 22.5835 7.0684 22.3676 5.55275 22.1245L5.26221 22.0779L5.59362 21.7905H5.59251Z" fill="white"/>
<path fill-rule="evenodd" clip-rule="evenodd" d="M0.403809 0.277617L0.50986 0.410533C4.60611 5.56811 6.72273 8.24459 6.8575 8.43544C7.07845 8.75126 6.99559 9.03413 6.61557 9.25679C6.40457 9.38062 5.96932 9.50558 5.7528 9.50558C5.50645 9.50558 5.22917 9.38403 5.027 9.18749C4.8845 9.04776 4.30895 8.16393 2.97998 6.04297C2.35765 5.04053 1.72721 4.04344 1.08873 3.0518C1.0346 2.99954 1.0357 3.00068 2.87614 6.38718C4.03166 8.51383 4.42273 9.26475 4.42273 9.36585C4.42273 9.57034 4.3675 9.67712 4.12225 9.95886C3.71351 10.428 3.53123 10.9552 3.39867 12.0457C3.25064 13.2692 2.83527 14.1326 1.68195 15.6106C1.00808 16.4763 0.897612 16.6353 0.726383 16.9841C0.51207 17.4226 0.45352 17.6691 0.429217 18.2235C0.403808 18.8097 0.45352 19.1891 0.628064 19.7492C0.780514 20.2399 0.939591 20.5648 1.34612 21.2124C1.69742 21.7724 1.89958 22.1882 1.89958 22.3507C1.89958 22.4802 1.92388 22.4802 2.4685 22.3541C3.77095 22.0519 4.82816 21.5191 5.42359 20.867C5.79146 20.4637 5.87763 20.2411 5.88094 19.6878C5.88205 19.3266 5.8699 19.2504 5.77489 19.0425C5.62023 18.704 5.33853 18.4223 4.71769 17.986C3.90352 17.4135 3.55664 16.9523 3.46053 16.3195C3.38099 15.8003 3.47268 15.4334 3.9234 14.4632C4.38848 13.459 4.50448 13.0318 4.58291 12.0196C4.63263 11.3653 4.70222 11.1074 4.8856 10.9006C5.07561 10.6848 5.24795 10.6109 5.71966 10.545C6.48853 10.4371 6.97792 10.2326 7.38003 9.85207C7.72912 9.52035 7.87494 9.20113 7.89703 8.72172L7.91471 8.35819L7.71917 8.12417C7.43858 7.78791 5.11759 5.15459 0.755105 0.221952L0.638006 0.0913086L0.403809 0.278753V0.277617ZM2.29728 18.888C2.37435 18.7477 2.39736 18.5827 2.36176 18.4258C2.32616 18.2688 2.23455 18.1314 2.10506 18.0406C1.85318 17.8679 1.46101 17.9497 1.46101 18.1746C1.46101 18.2428 1.49747 18.2928 1.58032 18.3371C1.72062 18.4109 1.73056 18.495 1.62119 18.6642C1.50962 18.8369 1.51846 18.9892 1.6466 19.0925C1.85208 19.2584 2.14372 19.1664 2.29838 18.888H2.29728ZM8.39967 10.7359C8.03844 10.8495 7.68824 11.2437 7.57888 11.6561C7.5126 11.9071 7.55016 12.3491 7.64958 12.4854C7.80976 12.7058 7.96552 12.7637 8.38531 12.7603C9.20721 12.7546 9.92086 12.3922 10.0048 11.939C10.0733 11.5675 9.75846 11.0529 9.32652 10.8256C9.10337 10.7098 8.62945 10.6632 8.39967 10.7359ZM9.36077 11.5084C9.48781 11.3232 9.43147 11.1222 9.21716 10.9881C8.80621 10.7302 8.18536 10.9427 8.18536 11.3425C8.18536 11.5402 8.50904 11.7572 8.8051 11.7572C9.00395 11.7572 9.2735 11.6356 9.36077 11.5084Z" fill="white"/>
</svg>
